<svg width="38" height="24" viewBox="0 0 38 24" fill="none" xmlns="http://www.w3.org/2000/svg">
<path d="M27.4496 1.17765C25.0986 0.437318 22.1717 0 19.0011 0C15.8304 0 12.903 0.43745 10.5514 1.17765C4.29721 3.14669 0 7.2359 0 11.9617C0 18.6096 8.50646 24 19.0011 24C29.4931 24 38 18.6096 38 11.9617C38 7.23616 33.7027 3.14828 27.4496 1.17765ZM19.0011 18.8237C17.4349 18.8237 16.156 15.8084 16.0811 12.0193C17.0228 12.1022 17.9996 12.1467 19.0011 12.1467C20.0025 12.1467 20.9779 12.1022 21.9207 12.0193C21.845 15.8084 20.5666 18.8237 19.0011 18.8237ZM16.2783 9.05278C16.7053 6.39315 17.7628 4.50919 19.0011 4.50919C20.2394 4.50919 21.2954 6.39315 21.7219 9.05278C20.852 9.12979 19.9406 9.17187 19.0011 9.17187C18.0615 9.17187 17.1501 9.12926 16.2783 9.05278ZM23.386 8.85218C22.751 4.67763 21.0275 1.68509 19.0011 1.68509C16.9747 1.68509 15.2501 4.67763 14.6148 8.85218C10.7552 8.26204 8.05748 6.91913 8.05748 5.35471C8.05748 3.24659 12.9573 1.53755 19.0015 1.53755C25.0457 1.53755 29.944 3.24659 29.944 5.35471C29.944 6.91913 27.2462 8.26204 23.3864 8.85218H23.386ZM2.77316 11.5207C2.77316 9.48295 3.57396 7.57278 4.97141 5.92977C4.95538 6.04378 4.94721 6.15872 4.94696 6.2738C4.94696 8.83736 8.87869 11.0165 14.3611 11.818C14.3568 12.0116 14.3535 12.2056 14.3535 12.4017C14.3535 17.1683 15.7036 21.2058 17.5701 22.5978C9.27727 22.1015 2.77316 17.3327 2.77316 11.5207ZM20.4322 22.5983C22.2978 21.2063 23.6478 17.1691 23.6478 12.4022C23.6478 12.2061 23.6457 12.0121 23.6412 11.8185C29.1221 11.0173 33.0547 8.83816 33.0547 6.27433C33.0542 6.15923 33.0458 6.04429 33.0294 5.9303C34.4266 7.57331 35.2278 9.48321 35.2278 11.5212C35.2278 17.3332 28.7234 22.102 20.4331 22.5986" fill="#A7B9D0"/>
</svg>
