<svg width="41" height="40" viewBox="0 0 41 40" fill="none" xmlns="http://www.w3.org/2000/svg">
<circle cx="20.5" cy="20" r="20" fill="#F4F5F6"/>
<path d="M21.0001 12.65C16.2201 12.65 12.3301 16.54 12.3301 21.32C12.3301 26.1 16.2201 30 21.0001 30C25.7801 30 29.6701 26.11 29.6701 21.33C29.6701 16.55 25.7801 12.65 21.0001 12.65ZM21.7501 21C21.7501 21.41 21.4101 21.75 21.0001 21.75C20.5901 21.75 20.2501 21.41 20.2501 21V16C20.2501 15.59 20.5901 15.25 21.0001 15.25C21.4101 15.25 21.7501 15.59 21.7501 16V21Z" fill="#363F4D"/>
<path d="M23.8899 11.45H18.1099C17.7099 11.45 17.3899 11.13 17.3899 10.73C17.3899 10.33 17.7099 10 18.1099 10H23.8899C24.2899 10 24.6099 10.32 24.6099 10.72C24.6099 11.12 24.2899 11.45 23.8899 11.45Z" fill="#363F4D"/>
</svg>
