<svg width="40" height="40" viewBox="0 0 40 40" fill="none" xmlns="http://www.w3.org/2000/svg">
<circle cx="20" cy="20" r="20" fill="#F4F5F6"/>
<path fill-rule="evenodd" clip-rule="evenodd" d="M12 11C10.3431 11 9 12.3431 9 14V26C9 27.6569 10.3431 29 12 29H28C29.6569 29 31 27.6569 31 26V14C31 12.3431 29.6569 11 28 11H12ZM14.6402 15.2318C14.2159 14.8782 13.5854 14.9356 13.2318 15.3598C12.8782 15.7841 12.9356 16.4147 13.3598 16.7682L18.0795 20.7013C19.192 21.6284 20.808 21.6284 21.9206 20.7013L26.6402 16.7682C27.0645 16.4147 27.1218 15.7841 26.7682 15.3598C26.4147 14.9356 25.7841 14.8782 25.3598 15.2318L20.6402 19.1648C20.2694 19.4739 19.7307 19.4739 19.3598 19.1648L14.6402 15.2318Z" fill="#363F4D"/>
</svg>
