<svg width="40" height="40" viewBox="0 0 40 40" fill="none" xmlns="http://www.w3.org/2000/svg">
<circle cx="20" cy="20" r="20" fill="#F4F5F6"/>
<path d="M28.6201 16.45C27.5701 11.83 23.5401 9.75 20.0001 9.75C20.0001 9.75 20.0001 9.75 19.9901 9.75C16.4601 9.75 12.4201 11.82 11.3701 16.44C10.2001 21.6 13.3601 25.97 16.2201 28.72C17.2801 29.74 18.6401 30.25 20.0001 30.25C21.3601 30.25 22.7201 29.74 23.7701 28.72C26.6301 25.97 29.7901 21.61 28.6201 16.45ZM20.0001 21.46C18.2601 21.46 16.8501 20.05 16.8501 18.31C16.8501 16.57 18.2601 15.16 20.0001 15.16C21.7401 15.16 23.1501 16.57 23.1501 18.31C23.1501 20.05 21.7401 21.46 20.0001 21.46Z" fill="#363F4D"/>
</svg>
