<svg width="56" height="56" viewBox="0 0 56 56" fill="none" xmlns="http://www.w3.org/2000/svg">
<rect width="56" height="56" rx="28" fill="#ED3F3F"/>
<path d="M15.6664 36.8667C15.1198 36.8667 14.6664 36.4133 14.6664 35.8667V28.2667C14.5998 24.6533 15.9464 21.24 18.4531 18.68C20.9598 16.1333 24.3198 14.7333 27.9331 14.7333C35.3198 14.7333 41.3331 20.7467 41.3331 28.1333V35.7333C41.3331 36.28 40.8798 36.7333 40.3331 36.7333C39.7864 36.7333 39.3331 36.28 39.3331 35.7333V28.1333C39.3331 21.8533 34.2264 16.7333 27.9331 16.7333C24.8531 16.7333 21.9998 17.92 19.8798 20.08C17.7464 22.2533 16.6131 25.1467 16.6664 28.24V35.8533C16.6664 36.4133 16.2264 36.8667 15.6664 36.8667Z" fill="white"/>
<path d="M19.9203 28.6H19.747C16.947 28.6 14.667 30.88 14.667 33.68V36.1867C14.667 38.9867 16.947 41.2667 19.747 41.2667H19.9203C22.7203 41.2667 25.0003 38.9867 25.0003 36.1867V33.68C25.0003 30.88 22.7203 28.6 19.9203 28.6Z" fill="white"/>
<path d="M36.2533 28.6H36.08C33.28 28.6 31 30.88 31 33.68V36.1867C31 38.9867 33.28 41.2667 36.08 41.2667H36.2533C39.0533 41.2667 41.3333 38.9867 41.3333 36.1867V33.68C41.3333 30.88 39.0533 28.6 36.2533 28.6Z" fill="white"/>
</svg>
