<svg width="56" height="56" viewBox="0 0 56 56" fill="none" xmlns="http://www.w3.org/2000/svg">
<rect width="56" height="56" rx="28" fill="#FDCA45"/>
<path d="M28 33C34.2132 33 39.25 28.1497 39.25 22.1667C39.25 16.1836 34.2132 11.3333 28 11.3333C21.7868 11.3333 16.75 16.1836 16.75 22.1667C16.75 28.1497 21.7868 33 28 33Z" fill="white"/>
<path d="M34.3167 34.0167C34.8667 33.7333 35.5 34.15 35.5 34.7667V42.85C35.5 44.35 34.45 45.0833 33.15 44.4667L28.6833 42.35C28.3 42.1833 27.7 42.1833 27.3167 42.35L22.85 44.4667C21.55 45.0667 20.5 44.3333 20.5 42.8333L20.5333 34.7667C20.5333 34.15 21.1833 33.75 21.7167 34.0167C23.6 34.9667 25.7333 35.5 28 35.5C30.2667 35.5 32.4167 34.9667 34.3167 34.0167Z" fill="white"/>
</svg>
