<svg width="56" height="56" viewBox="0 0 56 56" fill="none" xmlns="http://www.w3.org/2000/svg">
<rect width="56" height="56" rx="28" fill="#2680EB"/>
<g clip-path="url(#clip0_151_2238)">
<path d="M19.7137 33.2374C20.013 33.3276 20.3179 33.4051 20.6274 33.4696C20.488 32.6955 20.4204 31.9074 20.4272 31.1099C20.4419 29.4048 20.7889 27.7513 21.4585 26.1954C22.1052 24.6926 23.0244 23.3442 24.1903 22.1877C25.3567 21.0307 26.7131 20.1224 28.2217 19.4879C29.6749 18.8769 31.2106 18.5463 32.7918 18.5028C31.1162 14.6749 27.2953 12.0001 22.8492 12C16.8377 11.9999 11.9563 16.9188 12.0003 22.9301C12.0215 25.8388 13.188 28.4748 15.0705 30.4109L14.6306 34.9199C14.5915 35.3207 14.9138 35.6276 15.272 35.6276C15.3762 35.6276 15.4833 35.6016 15.5855 35.5445L19.7137 33.2374Z" fill="white"/>
<path d="M33.1508 20.3725C27.1909 20.3726 22.3535 25.1782 22.3022 31.1261C22.2516 36.9886 26.9225 41.8747 32.7821 42.0646C34.0879 42.1069 35.2935 41.9092 36.2862 41.61L40.4144 43.917C40.5166 43.9741 40.6238 44.0001 40.7279 44.0001C41.0861 44.0001 41.4084 43.6932 41.3693 43.2924L40.9294 38.7834C42.8118 36.8472 43.9782 34.2113 43.9995 31.3026C44.0437 25.2912 39.1623 20.3724 33.1508 20.3725ZM28.4185 26.2599H32.0885C32.6063 26.2599 33.026 26.6797 33.026 27.1974C33.026 27.7152 32.6063 28.1349 32.0885 28.1349H28.4185C27.9007 28.1349 27.481 27.7152 27.481 27.1974C27.481 26.6797 27.9007 26.2599 28.4185 26.2599ZM37.8833 35.8613H28.4185C27.9007 35.8613 27.481 35.4416 27.481 34.9238C27.481 34.4061 27.9007 33.9863 28.4185 33.9863H37.8833C38.401 33.9863 38.8208 34.4061 38.8208 34.9238C38.8208 35.4416 38.401 35.8613 37.8833 35.8613ZM37.8833 31.9981H28.4185C27.9007 31.9981 27.481 31.5784 27.481 31.0606C27.481 30.5429 27.9007 30.1231 28.4185 30.1231H37.8833C38.401 30.1231 38.8208 30.5429 38.8208 31.0606C38.8208 31.5784 38.401 31.9981 37.8833 31.9981Z" fill="white"/>
</g>
<defs>
<clipPath id="clip0_151_2238">
<rect width="32" height="32" fill="white" transform="translate(12 12)"/>
</clipPath>
</defs>
</svg>
