<svg width="56" height="56" viewBox="0 0 56 56" fill="none" xmlns="http://www.w3.org/2000/svg">
<rect width="56" height="56" rx="28" fill="#2D9596"/>
<path fill-rule="evenodd" clip-rule="evenodd" d="M30 19.5C30 15.9102 32.9102 13 36.5 13C40.0898 13 43 15.9102 43 19.5C43 23.0898 40.0898 26 36.5 26C32.9102 26 30 23.0898 30 19.5ZM33.7929 20.7071C33.4024 20.3166 33.4024 19.6834 33.7929 19.2929C34.1834 18.9023 34.8166 18.9023 35.2071 19.2929L35.8183 19.904L37.652 16.97C37.9447 16.5017 38.5617 16.3593 39.03 16.652C39.4984 16.9447 39.6407 17.5617 39.348 18.03L36.848 22.03C36.6865 22.2884 36.4159 22.4591 36.1131 22.4936C35.8103 22.528 35.5084 22.4226 35.2929 22.2071L33.7929 20.7071Z" fill="white"/>
<path d="M13 22C13 18.134 16.134 15 20 15H28C28.5523 15 29 15.4477 29 16C29 16.5523 28.5523 17 28 17H20C17.2386 17 15 19.2386 15 22V28.5C15 29.0523 14.5523 29.5 14 29.5C13.4477 29.5 13 29.0523 13 28.5V22Z" fill="white"/>
<path d="M40 27C40.5523 27 41 27.4477 41 28V36C41 39.866 37.866 43 34 43H32.5C31.9477 43 31.5 42.5523 31.5 42C31.5 41.4477 31.9477 41 32.5 41H34C36.7614 41 39 38.7614 39 36V28C39 27.4477 39.4477 27 40 27Z" fill="white"/>
<path fill-rule="evenodd" clip-rule="evenodd" d="M15.6338 31.249C15.995 30.1918 16.9983 29.5 18.1048 29.5H24.8952C26.0017 29.5 27.005 30.1918 27.3662 31.249L27.9773 33.0377C28.4375 32.8484 28.9773 33.0275 29.2279 33.4722C29.4989 33.9534 29.3286 34.5633 28.8475 34.8344L28.7962 34.8632C29.5256 35.4252 30 36.2992 30 37.2955V40.4318C30 41.8732 28.8095 43 27.3928 43C26.2296 43 25.2189 42.2403 24.8945 41.1705H18.1055C17.7811 42.2403 16.7704 43 15.6071 43C14.1905 43 13 41.8732 13 40.4318V37.2955C13 36.3095 13.4646 35.4434 14.1812 34.8808L14.0987 34.8344C13.6175 34.5633 13.4472 33.9534 13.7183 33.4722C13.9774 33.0124 14.5458 32.8364 15.0157 33.0583L15.6338 31.249ZM16.7376 34.2045L17.5265 31.8955C17.6028 31.6721 17.8278 31.5 18.1048 31.5H24.8952C25.1722 31.5 25.3973 31.6721 25.4735 31.8955L26.2624 34.2045H16.7376ZM16.9464 36.8182C16.3941 36.8182 15.9464 37.2659 15.9464 37.8182C15.9464 38.3704 16.3941 38.8182 16.9464 38.8182H18.0178C18.5701 38.8182 19.0178 38.3704 19.0178 37.8182C19.0178 37.2659 18.5701 36.8182 18.0178 36.8182H16.9464ZM24.7142 36.8182C24.162 36.8182 23.7142 37.2659 23.7142 37.8182C23.7142 38.3704 24.162 38.8182 24.7142 38.8182H25.7857C26.338 38.8182 26.7857 38.3704 26.7857 37.8182C26.7857 37.2659 26.338 36.8182 25.7857 36.8182H24.7142Z" fill="white"/>
</svg>
