<?xml version="1.0" encoding="UTF-8"?>
<svg id="Layer_2" xmlns="http://www.w3.org/2000/svg" viewBox="0 0 32 32">
  <defs>
    <style>
      .cls-1 {
        fill: #2d9596;
      }

      .cls-2 {
        fill: #fff;
      }
    </style>
  </defs>
  <g id="Layer_1-2" data-name="Layer_1">
    <path class="cls-1" d="M29.79,24.11c-2.79,4.7-7.91,7.86-13.75,7.89C7.21,32.02.03,24.86,0,16.02-.02,7.19,7.14,0,15.96,0c8.83-.02,16.01,7.12,16.04,15.95,0,2.99-.82,5.77-2.21,8.16Z"/>
    <path class="cls-2" d="M29.91,23.89c.67-1.22.72-1.42,1.09-2.39.27-.65.42-1.12.5-1.62,0,0-2.64.5-4.65-.4-.3-.15-1.34-.47-2.19-1.39-.08-.08-.14-.15-.17-.2-.37-.47-.99-1.22-1.19-2.31-.1-.57-.05-1.02-.4-1.29-.4-.3-1.02-.1-1.12-.07-.65.2-.8.7-1.32,1.19-.94.95-2.21,1.09-2.44,1.12-1.14.12-2.04-.32-2.93-.77-.87-.42-1.39-.9-2.34-1.72-.94-.82-1.74-1.47-2.44-2.56-.52-.82-.57-1.22-1.34-2.36-1.07-1.62-1.72-1.94-1.94-2.04-.2-.07-.92-.25-1.79.2-.7.35-.97.87-1.04,1.32-.17,1.02.22,1.84.45,2.31.25.5.3.7,1.19,1.97.67,1,.75.87,1.24,1.49.67.77,1.07,1.07,1.19,1.14.5.32.57.5.75.75.37.45.15.65.27,1.77.1.85.37,1.52.45,1.52.05-.02-.05-.47.07-1.14.1-.4.17-.8.45-1.07.47-.47,1.44-.57,2.04-.15.77.52.72,1.62.72,1.79-.03.6-.27.82-.35,1.87-.05.52,0,.8.17.92.12.1.3.02.57-.05.35-.07.7-.1,1.42-.12.45-.02.9-.05,1.42.07.52.12.52.27,1.02.37.42.07.92.17,1.42-.05.47-.22.7-.67.87-1.02.45-.9.17-1.22.55-2.14.17-.42.45-1.12,1.14-1.47.62-.27,1.34.02,1.76.47.37.4.3.55.6,1.54.15.55.37.9.75,1.49.47.77,1.12,1.82,2.34,2.54.32.17.65.32.65.32.25.1.67.27,1.17.35.55.07,1.27.07,1.39-.17Z"/>
  </g>
</svg>