<svg width="147" height="32" viewBox="0 0 147 32" fill="none" xmlns="http://www.w3.org/2000/svg">
<path d="M144.787 24.1119C142.002 28.8149 136.88 31.9751 131.037 31.9999C122.211 32.0248 115.025 24.8584 115 16.0249C114.975 7.19132 122.136 6.48288e-05 130.963 6.48288e-05C139.789 -0.0248184 146.975 7.11668 147 15.9502C147 18.9362 146.179 21.7231 144.787 24.1119Z" fill="#2D9596"/>
<path d="M144.911 23.8881C145.583 22.6688 145.632 22.4697 146.005 21.4993C146.279 20.8523 146.428 20.3795 146.503 19.8819C146.503 19.8819 143.867 20.3795 141.853 19.4837C141.555 19.3344 140.51 19.011 139.665 18.0903C139.582 18.0073 139.524 17.941 139.491 17.8912C139.118 17.4184 138.496 16.6719 138.298 15.5771C138.198 15.0048 138.248 14.5569 137.9 14.2831C137.502 13.9845 136.88 14.1836 136.781 14.2085C136.134 14.4076 135.985 14.9052 135.463 15.4029C134.518 16.3484 133.25 16.4977 133.026 16.5226C131.883 16.647 130.988 16.1992 130.092 15.7513C129.222 15.3282 128.7 14.8555 127.755 14.0343C126.81 13.2132 126.015 12.5662 125.319 11.4713C124.796 10.6502 124.747 10.2521 123.976 9.10742C122.907 7.49001 122.26 7.16652 122.037 7.06699C121.838 6.99234 121.117 6.81816 120.246 7.26606C119.55 7.61443 119.277 8.13697 119.202 8.58487C119.028 9.60509 119.426 10.4262 119.65 10.899C119.898 11.3967 119.948 11.5957 120.843 12.8648C121.514 13.8601 121.589 13.7357 122.086 14.3578C122.758 15.1292 123.155 15.4278 123.28 15.5024C123.777 15.8259 123.852 16.0001 124.026 16.2489C124.399 16.6968 124.175 16.8959 124.299 18.0156C124.399 18.8617 124.672 19.5335 124.747 19.5335C124.796 19.5086 124.697 19.0607 124.821 18.3889C124.921 17.9907 124.995 17.5926 125.269 17.3189C125.741 16.8461 126.711 16.7466 127.308 17.1696C128.078 17.6921 128.029 18.787 128.029 18.9612C128.004 19.5584 127.755 19.7823 127.681 20.8274C127.631 21.35 127.681 21.6237 127.855 21.7481C127.979 21.8476 128.153 21.773 128.427 21.6984C128.775 21.6237 129.123 21.5988 129.844 21.5739C130.291 21.5491 130.739 21.5242 131.261 21.6486C131.783 21.773 131.783 21.9223 132.28 22.0218C132.703 22.0965 133.2 22.196 133.698 21.9721C134.17 21.7481 134.394 21.3002 134.568 20.9519C135.016 20.0561 134.742 19.7326 135.115 18.8119C135.289 18.3889 135.563 17.6921 136.259 17.3438C136.88 17.0701 137.601 17.3687 138.024 17.8166C138.397 18.2147 138.322 18.364 138.621 19.3593C138.77 19.9068 138.994 20.2551 139.367 20.8523C139.839 21.6237 140.486 22.6688 141.704 23.3904C142.027 23.5646 142.35 23.7139 142.35 23.7139C142.599 23.8134 143.022 23.9876 143.519 24.0623C144.066 24.1369 144.787 24.1369 144.911 23.8881Z" fill="white"/>
<path d="M6.68738 9.92C7.00738 9.92 7.27938 10.032 7.50338 10.256C7.72738 10.4693 7.83938 10.7307 7.83938 11.04C7.83938 11.36 7.72738 11.632 7.50338 11.856C7.27938 12.0693 7.00738 12.176 6.68738 12.176C6.37804 12.176 6.11138 12.0693 5.88738 11.856C5.67404 11.632 5.56738 11.36 5.56738 11.04C5.56738 10.7307 5.67938 10.4693 5.90338 10.256C6.12738 10.032 6.38871 9.92 6.68738 9.92ZM9.64738 9.92C9.95671 9.92 10.2234 10.032 10.4474 10.256C10.6714 10.4693 10.7834 10.7307 10.7834 11.04C10.7834 11.36 10.6714 11.632 10.4474 11.856C10.2234 12.0693 9.95671 12.176 9.64738 12.176C9.33804 12.176 9.07138 12.0693 8.84738 11.856C8.62338 11.632 8.51138 11.36 8.51138 11.04C8.51138 10.7307 8.62338 10.4693 8.84738 10.256C9.07138 10.032 9.33804 9.92 9.64738 9.92ZM14.2554 18.208C14.2554 18.6987 14.0794 19.12 13.7274 19.472C13.3754 19.824 12.9487 20 12.4474 20H5.37538C4.75671 20 4.18604 19.8507 3.66338 19.552C3.14071 19.2427 2.72471 18.832 2.41537 18.32C2.11671 17.7973 1.96738 17.232 1.96738 16.624V13.92H3.91938V16.624C3.91938 17.0293 4.05804 17.3707 4.33538 17.648C4.62338 17.9253 4.97004 18.064 5.37538 18.064H11.9354C12.042 18.064 12.1274 18.032 12.1914 17.968C12.266 17.8933 12.3034 17.8027 12.3034 17.696V12.272H14.2554V18.208ZM16.5475 8.8H18.4835V20H16.5475V8.8ZM24.2118 19.616C24.2118 20.8747 23.8704 21.8613 23.1878 22.576C22.5158 23.3013 21.5718 23.7013 20.3558 23.776L19.6517 21.952C20.5904 21.8667 21.2624 21.6533 21.6678 21.312C22.0838 20.9813 22.2918 20.416 22.2918 19.616V12.272H24.2118V19.616ZM29.1246 20C28.6553 20 28.218 19.8827 27.8126 19.648C27.4073 19.4133 27.0873 19.0933 26.8526 18.688C26.618 18.2827 26.5006 17.8453 26.5006 17.376V8.816H28.4366V17.376C28.4366 17.568 28.5006 17.7333 28.6286 17.872C28.7673 18 28.9326 18.064 29.1246 18.064H29.8446V20H29.1246ZM36.3595 18.064C36.6262 18.064 36.8502 18.16 37.0315 18.352C37.2235 18.5333 37.3195 18.7573 37.3195 19.024C37.3195 19.2907 37.2235 19.52 37.0315 19.712C36.8395 19.904 36.6102 20 36.3435 20H35.1435C34.7488 20 34.3702 19.9253 34.0075 19.776C33.6555 19.616 33.3408 19.4027 33.0635 19.136C32.8182 19.4027 32.5248 19.616 32.1835 19.776C31.8422 19.9253 31.4795 20 31.0955 20H29.7035C29.4048 20 29.1595 19.9093 28.9675 19.728C28.7755 19.536 28.6795 19.3013 28.6795 19.024C28.6795 18.7467 28.7755 18.5173 28.9675 18.336C29.1595 18.1547 29.4048 18.064 29.7035 18.064H30.8875C31.1862 18.064 31.4422 17.9573 31.6555 17.744C31.8688 17.52 31.9755 17.2587 31.9755 16.96V13.584H33.9275V16.976C33.9595 17.2853 34.0928 17.5467 34.3275 17.76C34.5622 17.9627 34.8342 18.064 35.1435 18.064H36.3595ZM31.3515 21.328C31.6715 21.328 31.9435 21.4347 32.1675 21.648C32.3915 21.872 32.5035 22.1387 32.5035 22.448C32.5035 22.768 32.3915 23.0347 32.1675 23.248C31.9435 23.472 31.6715 23.584 31.3515 23.584C31.0422 23.584 30.7755 23.472 30.5515 23.248C30.3382 23.0347 30.2315 22.768 30.2315 22.448C30.2315 22.1493 30.3435 21.888 30.5675 21.664C30.7915 21.44 31.0528 21.328 31.3515 21.328ZM34.3435 21.328C34.6528 21.328 34.9195 21.4347 35.1435 21.648C35.3675 21.872 35.4795 22.1387 35.4795 22.448C35.4795 22.768 35.3675 23.0347 35.1435 23.248C34.9195 23.472 34.6528 23.584 34.3435 23.584C34.0342 23.584 33.7675 23.472 33.5435 23.248C33.3195 23.0347 33.2075 22.768 33.2075 22.448C33.2075 22.1387 33.3195 21.872 33.5435 21.648C33.7675 21.4347 34.0342 21.328 34.3435 21.328ZM51.3041 18.08C51.5601 18.08 51.7841 18.176 51.9761 18.368C52.1788 18.56 52.2801 18.7787 52.2801 19.024C52.2801 19.2907 52.1788 19.52 51.9761 19.712C51.7841 19.904 51.5601 20 51.3041 20H50.3761C50.0028 20 49.6508 19.92 49.3201 19.76C48.9895 19.5893 48.7175 19.3653 48.5041 19.088C48.2161 19.376 47.8748 19.6 47.4801 19.76C47.0855 19.92 46.6695 20 46.2321 20C45.6988 20 45.2241 19.904 44.8081 19.712C44.4028 19.5093 44.0668 19.232 43.8001 18.88C43.4588 19.264 43.0748 19.5467 42.6481 19.728C42.2321 19.9093 41.7468 20 41.1921 20C40.7975 20 40.4081 19.9253 40.0241 19.776C39.6401 19.6267 39.3148 19.4027 39.0481 19.104C38.8348 19.3813 38.5681 19.6 38.2481 19.76C37.9281 19.92 37.5815 20 37.2081 20H36.2961C36.0295 20 35.8001 19.904 35.6081 19.712C35.4161 19.52 35.3201 19.2907 35.3201 19.024C35.3201 18.7787 35.4161 18.56 35.6081 18.368C35.8001 18.176 36.0295 18.08 36.2961 18.08H37.2081C37.4001 18.08 37.5655 18.016 37.7041 17.888C37.8428 17.7493 37.9121 17.5787 37.9121 17.376V13.824H39.8161V16.704C39.8161 17.0987 39.9548 17.4293 40.2321 17.696C40.5095 17.952 40.8668 18.08 41.3041 18.08C41.7735 18.08 42.1468 17.9467 42.4241 17.68C42.7015 17.4027 42.8401 17.056 42.8401 16.64V13.824H44.7601V16.704C44.7601 17.1093 44.8935 17.44 45.1601 17.696C45.4268 17.9413 45.7841 18.064 46.2321 18.064C46.7015 18.064 47.0695 17.9307 47.3361 17.664C47.6135 17.3973 47.7521 17.056 47.7521 16.64V12.256H49.6721L49.6881 17.376C49.6881 17.5787 49.7521 17.7493 49.8801 17.888C50.0081 18.016 50.1735 18.08 50.3761 18.08H51.3041ZM56.3056 18.064C56.5723 18.064 56.7963 18.16 56.9776 18.352C57.1696 18.5333 57.2656 18.7573 57.2656 19.024C57.2656 19.2907 57.1696 19.52 56.9776 19.712C56.7856 19.904 56.5563 20 56.2896 20H55.9216C55.527 20 55.1483 19.9253 54.7856 19.776C54.4336 19.616 54.119 19.4027 53.8416 19.136C53.5963 19.4027 53.303 19.616 52.9616 19.776C52.6203 19.9253 52.2576 20 51.8736 20H51.2816C50.983 20 50.7376 19.9093 50.5456 19.728C50.3536 19.536 50.2576 19.3013 50.2576 19.024C50.2576 18.7467 50.3536 18.5173 50.5456 18.336C50.7376 18.1547 50.983 18.064 51.2816 18.064H51.6656C51.9643 18.064 52.2203 17.9573 52.4336 17.744C52.647 17.52 52.7536 17.2587 52.7536 16.96V8.832H54.7056V16.976C54.7376 17.2853 54.871 17.5467 55.1056 17.76C55.3403 17.9627 55.6123 18.064 55.9216 18.064H56.3056ZM56.2492 20C55.9826 20 55.7532 19.9093 55.5612 19.728C55.3692 19.536 55.2732 19.3067 55.2732 19.04C55.2732 18.7627 55.3692 18.5333 55.5612 18.352C55.7426 18.16 55.9719 18.064 56.2492 18.064H57.0813C57.2733 18.064 57.4333 18 57.5613 17.872C57.6999 17.7333 57.7693 17.568 57.7693 17.376V8.832H59.7053V17.376C59.7053 17.8453 59.5879 18.2827 59.3533 18.688C59.1186 19.0933 58.7986 19.4133 58.3932 19.648C57.9986 19.8827 57.5666 20 57.0973 20H56.2492ZM68.8848 20C68.4048 20 67.9941 20.1707 67.6528 20.512C67.3114 20.8533 67.1408 21.2693 67.1408 21.76C67.1408 22.24 67.3114 22.6507 67.6528 22.992C67.9941 23.3333 68.4048 23.504 68.8848 23.504H72.1168V25.44H68.8688C68.2074 25.44 67.5941 25.2747 67.0288 24.944C66.4634 24.6133 66.0154 24.1653 65.6848 23.6C65.3541 23.0347 65.1888 22.4213 65.1888 21.76C65.1888 21.088 65.3541 20.4693 65.6848 19.904C66.0154 19.3387 66.4581 18.8907 67.0128 18.56C67.5781 18.2293 68.1968 18.064 68.8688 18.064H73.1888C73.1141 18.0213 73.0394 17.9253 72.9648 17.776C72.8901 17.6267 72.8528 17.4667 72.8528 17.296V16.896C72.8208 15.904 72.5221 15.2 71.9568 14.784C71.4554 14.3893 70.7834 14.192 69.9408 14.192C69.2261 14.192 68.5168 14.3147 67.8128 14.56L66.9808 12.832C68.0261 12.4373 69.0394 12.24 70.0208 12.24C71.2368 12.24 72.2714 12.56 73.1248 13.2C73.5834 13.5627 73.9621 14.048 74.2608 14.656C74.5701 15.264 74.7408 16.016 74.7728 16.912V17.296C74.7728 17.488 74.8208 17.664 74.9168 17.824C75.0128 17.984 75.1568 18.064 75.3488 18.064H76.8528V20H68.8848ZM69.3808 20.768C69.6794 20.768 69.9301 20.8693 70.1328 21.072C70.3354 21.2747 70.4368 21.52 70.4368 21.808C70.4368 22.096 70.3354 22.3413 70.1328 22.544C69.9301 22.7467 69.6794 22.848 69.3808 22.848C69.1034 22.848 68.8581 22.7467 68.6448 22.544C68.4421 22.3413 68.3408 22.096 68.3408 21.808C68.3408 21.52 68.4421 21.2747 68.6448 21.072C68.8581 20.8693 69.1034 20.768 69.3808 20.768ZM82.7033 18.064C82.9699 18.064 83.1939 18.16 83.3753 18.352C83.5673 18.5333 83.6633 18.7573 83.6633 19.024C83.6633 19.2907 83.5673 19.52 83.3753 19.712C83.1833 19.904 82.9539 20 82.6873 20H81.4873C81.0926 20 80.7139 19.9253 80.3513 19.776C79.9993 19.616 79.6846 19.4027 79.4073 19.136C79.1619 19.4027 78.8686 19.616 78.5273 19.776C78.1859 19.9253 77.8233 20 77.4393 20H76.0473C75.7486 20 75.5032 19.9093 75.3112 19.728C75.1192 19.536 75.0232 19.3013 75.0232 19.024C75.0232 18.7467 75.1192 18.5173 75.3112 18.336C75.5032 18.1547 75.7486 18.064 76.0473 18.064H77.2313C77.5299 18.064 77.7859 17.9573 77.9993 17.744C78.2126 17.52 78.3193 17.2587 78.3193 16.96V13.584H80.2713V16.976C80.3033 17.2853 80.4366 17.5467 80.6713 17.76C80.9059 17.9627 81.1779 18.064 81.4873 18.064H82.7033ZM77.6953 21.328C78.0153 21.328 78.2873 21.4347 78.5113 21.648C78.7353 21.872 78.8473 22.1387 78.8473 22.448C78.8473 22.768 78.7353 23.0347 78.5113 23.248C78.2873 23.472 78.0153 23.584 77.6953 23.584C77.3859 23.584 77.1193 23.472 76.8953 23.248C76.6819 23.0347 76.5753 22.768 76.5753 22.448C76.5753 22.1493 76.6873 21.888 76.9113 21.664C77.1353 21.44 77.3966 21.328 77.6953 21.328ZM80.6873 21.328C80.9966 21.328 81.2633 21.4347 81.4873 21.648C81.7113 21.872 81.8233 22.1387 81.8233 22.448C81.8233 22.768 81.7113 23.0347 81.4873 23.248C81.2633 23.472 80.9966 23.584 80.6873 23.584C80.3779 23.584 80.1113 23.472 79.8873 23.248C79.6633 23.0347 79.5513 22.768 79.5513 22.448C79.5513 22.1387 79.6633 21.872 79.8873 21.648C80.1113 21.4347 80.3779 21.328 80.6873 21.328ZM87.7119 18.064C87.9785 18.064 88.2025 18.16 88.3839 18.352C88.5759 18.5333 88.6719 18.7573 88.6719 19.024C88.6719 19.2907 88.5759 19.52 88.3839 19.712C88.1919 19.904 87.9625 20 87.6959 20H87.3279C86.9332 20 86.5545 19.9253 86.1919 19.776C85.8399 19.616 85.5252 19.4027 85.2479 19.136C85.0025 19.4027 84.7092 19.616 84.3679 19.776C84.0265 19.9253 83.6639 20 83.2799 20H82.6879C82.3892 20 82.1439 19.9093 81.9519 19.728C81.7599 19.536 81.6639 19.3013 81.6639 19.024C81.6639 18.7467 81.7599 18.5173 81.9519 18.336C82.1439 18.1547 82.3892 18.064 82.6879 18.064H83.0719C83.3705 18.064 83.6265 17.9573 83.8399 17.744C84.0532 17.52 84.1599 17.2587 84.1599 16.96V8.832H86.1119V16.976C86.1439 17.2853 86.2772 17.5467 86.5119 17.76C86.7465 17.9627 87.0185 18.064 87.3279 18.064H87.7119ZM90.5195 9.712C90.5195 9.40267 90.6315 9.14133 90.8555 8.928C91.0795 8.704 91.3462 8.592 91.6555 8.592C91.9648 8.592 92.2315 8.704 92.4555 8.928C92.6795 9.14133 92.7915 9.40267 92.7915 9.712C92.7915 10.0213 92.6795 10.288 92.4555 10.512C92.2315 10.736 91.9648 10.848 91.6555 10.848C91.3462 10.848 91.0795 10.736 90.8555 10.512C90.6315 10.288 90.5195 10.0213 90.5195 9.712ZM87.6715 20C87.4048 20 87.1755 19.904 86.9835 19.712C86.7808 19.52 86.6795 19.2907 86.6795 19.024C86.6795 18.7573 86.7808 18.5333 86.9835 18.352C87.1755 18.16 87.4048 18.064 87.6715 18.064H94.4555C94.3382 17.9893 94.2368 17.888 94.1515 17.76C94.0768 17.6213 94.0395 17.472 94.0395 17.312V16.96C94.0395 15.936 93.7355 15.1947 93.1275 14.736C92.6155 14.3413 91.9488 14.144 91.1275 14.144C90.4448 14.144 89.7462 14.272 89.0315 14.528L88.3275 12.784C89.1702 12.4107 90.0822 12.224 91.0635 12.224C92.3115 12.224 93.3835 12.5547 94.2795 13.216C94.7488 13.5573 95.1382 14.0267 95.4475 14.624C95.7675 15.2213 95.9275 15.9627 95.9275 16.848V17.296C95.9275 17.5307 95.9862 17.7173 96.1035 17.856C96.2315 17.9947 96.4022 18.064 96.6155 18.064H97.8635V20H87.6715ZM97.5305 20C97.2638 20 97.0345 19.9093 96.8425 19.728C96.6505 19.536 96.5545 19.3067 96.5545 19.04C96.5545 18.7627 96.6505 18.5333 96.8425 18.352C97.0238 18.16 97.2532 18.064 97.5305 18.064H98.3625C98.5545 18.064 98.7145 18 98.8425 17.872C98.9812 17.7333 99.0505 17.568 99.0505 17.376V8.832H100.987V17.376C100.987 17.8453 100.869 18.2827 100.635 18.688C100.4 19.0933 100.08 19.4133 99.6745 19.648C99.2798 19.8827 98.8478 20 98.3785 20H97.5305ZM103.704 8.8H105.64V20H103.704V8.8Z" fill="#363F4D"/>
</svg>
