<svg width="202" height="45" viewBox="0 0 202 45" fill="none" xmlns="http://www.w3.org/2000/svg">
<g id="Group 1000006779">
<path id="Vector" d="M37.5306 6.01597C41.3889 9.68591 43.6976 14.1239 44.4161 19.3736C44.8213 22.3346 44.6068 25.2598 43.8568 28.1523C43.7604 28.5241 43.5866 28.6291 43.2318 28.6411C41.71 28.6923 40.2112 28.5861 38.7552 28.099C35.9576 27.163 34.3076 25.2022 33.7817 22.3414C33.5582 21.1262 32.6343 20.6689 31.5414 21.3149C31.2557 21.4837 30.9798 21.6838 30.7391 21.9115C28.5544 23.9782 25.687 24.4514 22.9496 23.2296C20.804 22.272 19.0795 20.7789 17.5289 19.0626C16.8381 18.2981 16.1754 17.502 15.5679 16.6705C15.1515 16.1005 14.8545 15.4435 14.5005 14.8275C13.7949 13.5995 13.0133 12.4317 11.8989 11.5244C10.8061 10.6345 9.68615 10.4693 8.6786 11.058C7.6848 11.6386 7.08915 12.9353 7.3617 14.1959C7.5282 14.966 7.77468 15.753 8.15758 16.4357C9.30735 18.4859 10.733 20.3415 12.4506 21.9559C12.8285 22.3111 13.2667 22.6109 13.7085 22.8859C13.9365 23.0279 14.0073 23.1706 14.0357 23.4279C14.1923 24.8421 14.3708 26.254 14.5579 27.6645C14.5934 27.9323 14.7014 28.1904 14.8455 28.4422C14.8889 27.8218 14.9303 27.2012 14.9771 26.581C14.9869 26.4511 15.0102 26.3214 15.0377 26.1938C15.349 24.7451 15.7881 24.4213 17.2481 24.5607C18.6773 24.697 19.4436 25.4295 19.451 26.712C19.4532 27.0831 19.3617 27.4559 19.3008 27.8259C19.1834 28.5406 18.9806 29.251 18.9536 29.9685C18.9181 30.9101 19.3507 31.1969 20.2803 31.055C21.5611 30.8594 22.8512 30.7017 24.1432 30.9192C24.7844 31.0271 25.4039 31.264 26.045 31.3725C27.489 31.6167 28.2723 31.0121 28.6285 29.5893C28.8917 28.538 29.2304 27.4961 29.6421 26.4938C30.1205 25.3291 31.2149 25.0217 32.3341 24.8931C32.9151 24.8264 33.3855 25.1832 33.6369 25.6908C33.8786 26.1788 34.0519 26.7111 34.1824 27.2419C34.6533 29.1565 35.453 30.8862 36.8959 32.2715C38.016 33.3469 39.3619 33.8827 40.9081 33.9326C41.0224 33.9363 41.1365 33.9476 41.2593 33.9559C38.5037 38.97 31.4242 44.8092 21.8742 44.6192C12.0779 44.4242 3.55189 37.8805 0.872343 28.4568C-1.92465 18.62 2.18454 8.54935 10.514 3.4036C19.2244 -1.97751 30.1225 -0.883442 37.5306 6.01597Z" fill="#03A19C"/>
<g id="Group 1000006780">
<path id="Vector_2" d="M99.3261 12.2351C99.3261 11.1171 99.3261 10.0427 99.3261 8.93648C99.9641 8.93648 100.58 8.93648 101.201 8.93648C101.212 8.953 101.24 8.97609 101.24 8.99915C101.238 10.8026 101.246 12.6062 101.224 14.4095C101.215 15.2025 101.283 15.3977 102.069 15.5592C102.742 15.6974 103.441 15.7084 104.176 15.7803C104.176 12.6225 104.176 9.56111 104.176 6.47212C104.832 6.47212 105.449 6.47212 106.105 6.47212C106.105 9.53479 106.105 12.5972 106.105 15.6884C107.052 15.6884 107.96 15.6884 108.924 15.6884C108.924 12.6261 108.924 9.55423 108.924 6.46362C109.891 6.46362 110.804 6.46362 111.748 6.46362C111.748 7.08303 111.748 7.69963 111.748 8.36916C111.477 8.36916 111.197 8.36916 110.879 8.36916C110.879 11.4837 110.879 14.5461 110.879 17.5921C110.816 17.6206 110.791 17.6419 110.766 17.6419C108.119 17.6445 105.472 17.6557 102.825 17.6406C101.946 17.6356 101.169 17.3507 100.621 16.5288C99.8847 17.4871 98.8763 17.7717 97.7627 17.7855C96.635 17.7994 95.6307 17.5157 94.9314 16.4957C94.2991 17.0427 93.6222 17.4731 92.7946 17.5924C92.5797 17.6233 92.3613 17.6456 92.1444 17.6457C86.6026 17.6489 81.0608 17.6485 75.519 17.6484C75.462 17.6484 75.4051 17.6436 75.3184 17.6398C75.3184 13.92 75.3184 10.2076 75.3184 6.46968C75.9343 6.46968 76.5515 6.46968 77.2065 6.46968C77.2065 9.53737 77.2065 12.6001 77.2065 15.6901C78.6765 15.6901 80.1095 15.6901 81.5899 15.6901C81.5899 13.778 81.5899 11.8541 81.5899 9.9003C82.2537 9.9003 82.8713 9.9003 83.5365 9.9003C83.5365 11.8157 83.5365 13.7414 83.5365 15.6921C85.3203 15.6921 87.0571 15.6921 88.833 15.6921C88.833 13.985 88.833 12.291 88.833 10.5767C89.4893 10.5767 90.1065 10.5767 90.7646 10.5767C90.7646 12.2839 90.7646 13.9778 90.7646 15.7448C91.4398 15.7125 92.0815 15.7382 92.7029 15.6381C93.5395 15.5033 93.9792 14.9283 93.9897 14.0759C94.0023 13.0578 93.9942 12.0395 93.9951 11.0214C93.9952 10.8795 93.9951 10.7376 93.9951 10.5761C94.6505 10.5761 95.2681 10.5761 95.9288 10.5761C95.9288 11.5728 95.9239 12.5572 95.9317 13.5415C95.9342 13.8602 95.9451 14.1827 95.9956 14.4965C96.1202 15.2715 96.6654 15.7614 97.4408 15.8294C98.6299 15.9335 99.2958 15.3462 99.3213 14.1549C99.3346 13.5298 99.3252 12.9041 99.3261 12.2351Z" fill="#363F4D"/>
<path id="Vector_3" d="M122.746 10.4447C124.34 11.9143 124.393 13.743 124.047 15.6915C125.371 15.6915 126.671 15.6915 128.016 15.6915C128.016 13.7786 128.016 11.8539 128.016 9.89967C128.676 9.89967 129.293 9.89967 129.958 9.89967C129.958 11.8114 129.958 13.7357 129.958 15.6884C131.187 15.6884 132.369 15.6884 133.588 15.6884C133.588 12.6133 133.588 9.55046 133.588 6.46582C134.245 6.46582 134.864 6.46582 135.518 6.46582C135.518 9.54126 135.518 12.6031 135.518 15.6911C137.743 15.6911 139.933 15.6911 142.162 15.6911C142.344 14.852 142.502 13.9955 142.318 13.1278C142.142 12.2955 141.614 11.7837 140.767 11.6149C139.822 11.4267 138.948 11.6074 138.092 12.1366C137.822 11.5797 137.56 11.0387 137.277 10.4544C138.9 9.60639 140.569 9.13682 142.235 10.0702C144.471 11.3222 144.499 13.456 144.157 15.6875C145.009 15.6875 145.841 15.6875 146.71 15.6875C146.71 12.6281 146.71 9.56627 146.71 6.47419C147.683 6.47419 148.619 6.47419 149.561 6.47419C149.561 7.10298 149.561 7.72195 149.561 8.37803C149.271 8.37803 149.002 8.37803 148.695 8.37803C148.695 11.4764 148.695 14.5377 148.695 17.6379C138.716 17.6379 128.776 17.6379 118.807 17.6379C118.722 18.5069 119.041 19.2295 119.433 19.982C118.939 20.2135 118.458 20.4387 117.946 20.6782C116.842 19.1795 116.67 17.5147 116.944 15.7231C118.651 15.7231 120.334 15.7231 122.047 15.7231C122.245 14.8924 122.371 14.075 122.235 13.2513C122.058 12.1796 121.33 11.6018 120.184 11.5462C119.407 11.5085 118.688 11.6894 117.992 12.1448C117.72 11.581 117.458 11.0386 117.197 10.4986C118.734 9.46158 121.186 9.17475 122.746 10.4447Z" fill="#363F4D"/>
<path id="Vector_4" d="M160.508 11.5486C161.401 10.4131 162.612 10.0033 163.96 9.88875C164.217 9.86685 164.478 9.88561 164.767 9.88561C164.784 9.63645 164.799 9.4273 164.814 9.19781C165.452 9.19781 166.071 9.19781 166.724 9.19781C166.724 11.3534 166.724 13.5022 166.724 15.6841C169.945 15.6841 173.134 15.6841 176.408 15.6841C176.371 14.9848 176.392 14.272 176.282 13.5799C176.162 12.8211 175.569 12.4269 174.714 12.4239C172.954 12.4179 171.194 12.4132 169.435 12.4302C169.127 12.4332 168.923 12.3482 168.829 12.068C168.677 11.6183 168.529 11.1656 168.417 10.705C168.385 10.5719 168.453 10.3916 168.525 10.2595C169.161 9.08519 169.813 7.9191 170.449 6.74467C170.565 6.52875 170.698 6.42763 170.957 6.43769C171.507 6.45909 172.059 6.44423 172.696 6.44423C171.979 7.81082 171.292 9.12195 170.573 10.4924C171.909 10.4924 173.169 10.4829 174.43 10.4975C174.878 10.5027 175.336 10.5182 175.772 10.6121C177.412 10.9651 178.226 11.9764 178.292 13.797C178.337 15.0597 178.3 16.3254 178.3 17.6217C178.193 17.6305 178.083 17.6475 177.972 17.6475C173.464 17.6483 168.955 17.6661 164.447 17.6292C163.677 17.6229 162.871 17.49 162.148 17.23C159.843 16.4004 159.039 13.5619 160.508 11.5486ZM164.778 15.661C164.778 14.3789 164.778 13.0968 164.778 11.6904C164.103 11.8215 163.477 11.8707 162.903 12.0719C162.11 12.3506 161.694 13.0748 161.731 13.874C161.767 14.6456 162.247 15.3221 163.041 15.5306C163.577 15.6713 164.154 15.6574 164.778 15.661Z" fill="#363F4D"/>
<path id="Vector_5" d="M192.7 10.8455C192.779 10.7201 192.856 10.5698 192.938 10.5667C193.487 10.5455 194.037 10.5557 194.629 10.5557C194.629 11.4499 194.629 12.3184 194.63 13.1869C194.63 13.5214 194.615 13.8572 194.64 14.1901C194.734 15.4826 195.855 16.1887 197.076 15.7338C197.682 15.508 198.018 14.9558 198.022 14.1164C198.031 12.4013 198.025 10.686 198.025 8.9375C198.656 8.9375 199.273 8.9375 199.901 8.9375C199.908 8.94623 199.941 8.96896 199.94 8.99143C199.925 10.91 200.011 12.8367 199.862 14.7451C199.694 16.9039 198.322 17.926 196.143 17.7842C195.12 17.7177 194.238 17.4038 193.625 16.4891C192.993 17.0509 192.299 17.4832 191.453 17.5991C191.18 17.6364 190.902 17.6464 190.627 17.6468C188.214 17.6503 185.8 17.6489 183.356 17.6489C183.31 17.9576 183.276 18.256 183.219 18.5497C182.922 20.0688 182.127 20.7746 180.255 20.67C179.577 20.6321 179.578 20.6055 179.538 19.9371C179.514 19.52 179.49 19.1028 179.465 18.6763C179.838 18.6978 180.183 18.7506 180.523 18.7297C181.038 18.6981 181.281 18.4563 181.351 17.9436C181.39 17.6567 181.395 17.3635 181.396 17.0732C181.399 14.848 181.397 12.6228 181.397 10.3976C181.397 10.2396 181.397 10.0816 181.397 9.89721C182.059 9.89721 182.687 9.89721 183.344 9.89721C183.344 11.8303 183.344 13.7459 183.344 15.6893C184.743 15.6893 186.115 15.6893 187.528 15.6893C187.528 13.9869 187.528 12.2932 187.528 10.5777C188.185 10.5777 188.803 10.5777 189.461 10.5777C189.461 12.282 189.461 13.9762 189.461 15.6883C190.077 15.6883 190.661 15.7469 191.229 15.6753C192.213 15.5511 192.689 14.9538 192.697 13.9427C192.706 12.9248 192.7 11.9067 192.7 10.8455Z" fill="#363F4D"/>
<path id="Vector_6" d="M62.7999 12.8461C62.7999 14.4577 62.7999 16.0257 62.7999 17.6258C62.6793 17.6348 62.5832 17.6482 62.4872 17.6482C60.5243 17.6488 58.561 17.6689 56.5986 17.6349C55.9814 17.6243 55.3413 17.548 54.7558 17.3625C53.2955 16.8999 52.5191 15.8426 52.4537 14.3175C52.4077 13.2444 52.4448 12.1677 52.4448 11.0606C53.0572 11.0606 53.6736 11.0606 54.3557 11.0606C54.3557 11.315 54.3497 11.5844 54.3568 11.8535C54.3781 12.6513 54.3665 13.4525 54.4402 14.2456C54.507 14.9638 54.9913 15.3737 55.6688 15.5494C55.949 15.6221 56.2398 15.6916 56.5264 15.6946C57.9489 15.7093 59.3716 15.7013 60.8419 15.7013C60.8419 13.7672 60.8419 11.8431 60.8419 9.89453C61.5075 9.89453 62.1261 9.89453 62.7999 9.89453C62.7999 10.8633 62.7999 11.8328 62.7999 12.8461Z" fill="#363F4D"/>
<path id="Vector_7" d="M162.89 30.3803C162.258 30.6626 161.917 31.1406 161.884 31.7801C161.832 32.766 161.836 33.7548 161.823 34.7425C161.816 35.323 161.822 35.9037 161.822 36.5175C161.418 36.5175 161.036 36.5175 160.601 36.5175C160.601 36.1569 160.601 35.7989 160.601 35.441C160.601 34.2924 160.601 33.1437 160.601 31.995C160.601 31.9223 160.601 31.8496 160.6 31.7769C160.578 30.7906 160.262 30.3482 159.516 30.2627C158.676 30.1664 157.896 30.6758 157.716 31.501C157.615 31.9651 157.582 32.4507 157.574 32.9275C157.555 34.1168 157.568 35.3066 157.568 36.5234C157.164 36.5234 156.793 36.5234 156.388 36.5234C156.388 34.1551 156.388 31.78 156.388 29.3805C156.731 29.3805 157.07 29.3805 157.448 29.3805C157.448 29.6649 157.448 29.932 157.448 30.3014C158.061 29.5463 158.772 29.1808 159.649 29.1964C160.52 29.2119 161.246 29.5002 161.636 30.417C162.152 29.7294 162.764 29.297 163.594 29.2063C164.949 29.0582 165.882 29.7376 166.014 31.0918C166.099 31.9565 166.061 32.8336 166.068 33.7053C166.075 34.6341 166.069 35.563 166.069 36.5213C165.659 36.5213 165.275 36.5213 164.856 36.5213C164.856 35.2278 164.858 33.9511 164.855 32.6743C164.855 32.2819 164.869 31.8872 164.834 31.4975C164.748 30.5566 164.191 30.1367 163.26 30.2868C163.146 30.3052 163.035 30.3412 162.89 30.3803Z" fill="#363F4D"/>
<path id="Vector_8" d="M59.4648 36.5515C59.2434 36.4417 59.0009 36.3746 58.8865 36.2154C57.8444 34.7648 56.8248 33.298 55.798 31.8363C55.7413 31.7555 55.6799 31.6779 55.5936 31.5628C55.0669 32.0721 54.5505 32.5558 54.058 33.0627C53.976 33.1471 53.9756 33.332 53.9747 33.4707C53.9682 34.4732 53.9712 35.4758 53.9712 36.5148C53.5413 36.5148 53.13 36.5148 52.6895 36.5148C52.6895 33.2427 52.6895 29.965 52.6895 26.6687C53.1085 26.6687 53.5112 26.6687 53.9698 26.6687C53.9698 28.2581 53.9698 29.8458 53.9698 31.4335C54.0082 31.4533 54.0466 31.473 54.085 31.4927C54.6984 30.864 55.3078 30.2315 55.926 29.6076C56.7651 28.7609 57.6265 27.9356 58.4456 27.0702C58.7542 26.7442 59.0687 26.5983 59.5111 26.6432C59.8506 26.6777 60.1963 26.6501 60.664 26.6501C59.24 28.0293 57.9012 29.326 56.5194 30.6643C57.9433 32.6016 59.3659 34.5371 60.8464 36.5515C60.3525 36.5515 59.9278 36.5515 59.4648 36.5515Z" fill="#363F4D"/>
<path id="Vector_9" d="M109.142 34.255C109.454 35.0205 109.751 35.7558 110.073 36.5506C109.602 36.5506 109.185 36.5707 108.772 36.537C108.664 36.5282 108.523 36.3712 108.475 36.251C108.159 35.4714 107.854 34.6867 107.569 33.8956C107.482 33.6545 107.373 33.5552 107.104 33.5588C105.941 33.5747 104.778 33.5736 103.615 33.5593C103.365 33.5562 103.256 33.6474 103.178 33.8712C102.903 34.6663 102.604 35.4531 102.332 36.2493C102.254 36.478 102.148 36.5747 101.898 36.5567C101.567 36.5328 101.234 36.5508 100.837 36.5508C100.93 36.2793 101.001 36.0512 101.087 35.8288C102.22 32.876 103.358 29.9252 104.485 26.9699C104.577 26.7279 104.691 26.6257 104.956 26.6445C105.303 26.6691 105.652 26.6505 106.026 26.6505C107.061 29.1785 108.094 31.7016 109.142 34.255ZM103.867 32.4991C104.903 32.4991 105.939 32.4991 107.015 32.4991C106.428 30.9137 105.866 29.3956 105.309 27.8916C105.063 28.6251 104.825 29.365 104.565 30.0972C104.303 30.835 104.018 31.5642 103.751 32.3001C103.731 32.3532 103.777 32.43 103.867 32.4991Z" fill="#363F4D"/>
<path id="Vector_10" d="M170.073 29.6976C170.073 29.8613 170.073 29.9869 170.073 30.0348C170.555 29.7765 171.01 29.401 171.525 29.2813C173.062 28.9239 174.393 29.7315 174.907 31.2299C175.231 32.1756 175.245 33.1367 175.048 34.1086C174.59 36.3722 172.06 37.6022 170.185 35.9275C170.185 37.0496 170.185 38.1468 170.185 39.2782C169.776 39.2782 169.394 39.2782 168.984 39.2782C168.984 35.9967 168.984 32.7064 168.984 29.3571C169.28 29.3571 169.582 29.3371 169.877 29.3709C169.953 29.3795 170.008 29.5587 170.073 29.6976ZM171.566 30.2145C171.256 30.4434 170.865 30.6139 170.651 30.9115C169.853 32.0231 169.932 33.268 170.304 34.4961C170.533 35.2503 171.23 35.7046 171.947 35.7122C172.681 35.7201 173.38 35.2603 173.654 34.5107C174.036 33.4678 174.05 32.3981 173.667 31.3537C173.336 30.4507 172.519 30.014 171.566 30.2145Z" fill="#363F4D"/>
<path id="Vector_11" d="M75.9123 29.339C77.0358 29.719 77.3881 30.1836 77.4127 31.3312C77.4392 32.5666 77.4283 33.8031 77.4729 35.0378C77.4903 35.5212 77.6141 36.0008 77.7002 36.5504C77.4299 36.5504 77.0909 36.5733 76.7562 36.545C76.2566 36.5028 76.4729 35.991 76.2581 35.7355C76.0343 35.887 75.8156 36.0494 75.5833 36.1895C74.6893 36.7289 73.7252 36.8323 72.7263 36.5889C71.8766 36.3818 71.3186 35.7564 71.2294 34.9175C71.1367 34.0452 71.4583 33.3502 72.2145 32.8828C72.9068 32.4548 73.7049 32.4361 74.4769 32.3134C75.0464 32.2229 75.6117 32.1056 76.1591 32.0039C76.2915 30.787 75.8537 30.2625 74.7182 30.2106C74.5153 30.2013 74.311 30.2067 74.1079 30.217C73.2763 30.259 72.8164 30.7319 72.6376 31.5635C72.2364 31.5123 71.8558 31.4637 71.4386 31.4104C71.6042 30.507 72.0262 29.8435 72.8781 29.5126C73.8564 29.1326 74.8607 29.1105 75.9123 29.339ZM72.5488 34.9004C72.7225 35.1234 72.8524 35.4164 73.0774 35.5572C74.0546 36.1687 75.7605 35.5239 76.0664 34.4189C76.1949 33.9547 76.1827 33.4515 76.2349 32.9628C75.2773 33.1578 74.3834 33.3226 73.4982 33.5253C72.7523 33.696 72.4914 34.0757 72.5488 34.9004Z" fill="#363F4D"/>
<path id="Vector_12" d="M177.576 31.3418C177.767 30.2988 178.359 29.6506 179.354 29.382C180.226 29.1467 181.108 29.1157 181.985 29.3334C183.037 29.5945 183.51 30.1773 183.534 31.2554C183.559 32.4037 183.528 33.5536 183.568 34.7012C183.589 35.3009 183.709 35.897 183.792 36.5504C183.535 36.5504 183.193 36.5775 182.857 36.544C182.36 36.4944 182.602 35.9675 182.348 35.7161C181.488 36.4939 180.463 36.7986 179.304 36.6827C178.262 36.5785 177.517 35.9561 177.362 35.0403C177.187 34.0115 177.662 33.0679 178.691 32.723C179.48 32.4587 180.334 32.389 181.158 32.2268C181.539 32.1518 181.917 32.0628 182.28 31.9836C182.394 30.7567 181.948 30.2464 180.778 30.2061C179.541 30.1636 179.171 30.3993 178.701 31.5748C178.338 31.5095 177.96 31.4418 177.576 31.3418ZM180.808 35.6685C182.014 35.2469 182.505 34.3315 182.267 32.9802C181.362 33.164 180.452 33.3291 179.553 33.5381C178.886 33.6933 178.598 34.1011 178.642 34.7182C178.681 35.2669 179.067 35.6587 179.707 35.7253C180.047 35.7607 180.397 35.7066 180.808 35.6685Z" fill="#363F4D"/>
<path id="Vector_13" d="M84.5393 31.1615C85.2785 29.5486 86.8679 28.8412 88.5727 29.3407C90.0882 29.7847 91.033 31.4476 90.7797 33.271C89.0327 33.271 87.2801 33.271 85.5311 33.271C85.3896 34.8559 86.7388 36.0354 88.1858 35.6392C88.7665 35.4802 89.1405 35.0974 89.3629 34.5648C89.4773 34.2909 89.6074 34.1836 89.9145 34.2732C90.1743 34.349 90.455 34.3531 90.7679 34.3944C90.541 35.266 90.0905 35.9221 89.3176 36.3283C87.5232 37.2713 85.2793 36.5541 84.536 34.8121C84.1823 33.9833 84.1462 33.1178 84.2596 32.2439C84.3058 31.8879 84.4352 31.5428 84.5393 31.1615ZM88.6593 30.5128C87.9477 30.0867 87.2174 30.0667 86.5144 30.4951C85.864 30.8914 85.5819 31.5156 85.5568 32.2771C86.8964 32.2771 88.2005 32.2771 89.528 32.2771C89.4643 31.5846 89.2763 30.9802 88.6593 30.5128Z" fill="#363F4D"/>
<path id="Vector_14" d="M64.0727 32.1079C64.0694 33.5986 64.0694 35.0504 64.0694 36.5245C63.6363 36.5245 63.2516 36.5245 62.8555 36.5245C62.8555 33.2316 62.8555 29.9651 62.8555 26.6746C63.2461 26.6746 63.6178 26.6746 64.0295 26.6746C64.0295 27.7993 64.0295 28.9256 64.0295 30.1266C64.1533 30.0392 64.2212 30.0015 64.277 29.9504C65.1472 29.1533 66.4635 28.9638 67.5262 29.4789C68.3133 29.8604 68.6365 30.5467 68.6523 31.3575C68.6859 33.0719 68.6625 34.7873 68.6625 36.5265C68.2713 36.5265 67.8856 36.5265 67.4551 36.5265C67.4551 35.7062 67.4554 34.8965 67.455 34.0868C67.4547 33.3595 67.4613 32.6322 67.4508 31.905C67.436 30.8805 67.0466 30.3837 66.19 30.2706C65.2718 30.1493 64.4486 30.66 64.195 31.5159C64.1416 31.6962 64.115 31.8844 64.0727 32.1079Z" fill="#363F4D"/>
<path id="Vector_15" d="M72.6983 10.6669C72.6968 12.9325 72.7002 15.1548 72.689 17.3771C72.6871 17.7672 72.6572 18.1635 72.5831 18.546C72.2775 20.1244 71.2752 20.8374 69.6254 20.6771C68.9621 20.6127 68.9596 20.6129 68.9071 19.9587C68.8769 19.5824 68.8558 19.2053 68.8325 18.8285C68.8299 18.7869 68.8392 18.7446 68.8465 18.6641C69.1045 18.692 69.3553 18.7295 69.6073 18.7442C70.3011 18.7848 70.6041 18.5489 70.7156 17.8696C70.753 17.6421 70.7591 17.4074 70.7594 17.176C70.7624 14.9101 70.7612 12.6442 70.7612 10.3784C70.7612 10.2221 70.7612 10.0659 70.7612 9.89014C71.4138 9.89014 72.0309 9.89014 72.6983 9.89014C72.6983 10.1396 72.6983 10.3816 72.6983 10.6669Z" fill="#363F4D"/>
<path id="Vector_16" d="M153.582 31.2919C153.943 32.4089 153.932 33.5037 153.594 34.5789C153.161 35.9545 151.933 36.7344 150.351 36.7022C148.835 36.6713 147.703 35.8322 147.309 34.4335C147.043 33.4911 147.039 32.5356 147.275 31.5915C147.633 30.1542 148.72 29.3042 150.275 29.1981C151.781 29.0953 152.98 29.845 153.582 31.2919ZM149.026 35.0964C150.1 36.0981 151.705 35.8582 152.263 34.5649C152.711 33.5277 152.722 32.4335 152.282 31.3857C151.981 30.6686 151.402 30.2475 150.596 30.2062C149.761 30.1635 149.079 30.4893 148.738 31.2439C148.157 32.5335 148.157 33.8282 149.026 35.0964Z" fill="#363F4D"/>
<path id="Vector_17" d="M125.354 33.4951C125.294 32.5439 125.351 31.6461 125.79 30.8231C126.45 29.5831 127.814 29.0046 129.416 29.2583C130.658 29.4553 131.711 30.4813 131.948 31.7677C132.14 32.8124 132.146 33.8642 131.718 34.8548C131.129 36.2198 129.694 36.9054 128.057 36.6659C126.655 36.4609 125.639 35.408 125.411 33.924C125.391 33.7947 125.376 33.6647 125.354 33.4951ZM130.637 31.6975C130.232 30.6256 129.54 30.1412 128.508 30.2096C127.595 30.2702 126.87 30.9039 126.716 31.9815C126.614 32.6964 126.638 33.4599 126.772 34.1704C126.955 35.1435 127.775 35.7188 128.717 35.7121C129.635 35.7056 130.38 35.1192 130.636 34.1745C130.852 33.3764 130.861 32.5708 130.637 31.6975Z" fill="#363F4D"/>
<path id="Vector_18" d="M65.3779 10.8385C65.3779 9.35918 65.3779 7.9235 65.3779 6.46582C66.0296 6.46582 66.6485 6.46582 67.294 6.46582C67.294 10.1869 67.294 13.8986 67.294 17.6297C66.6666 17.6297 66.0477 17.6297 65.3779 17.6297C65.3779 15.3764 65.3779 13.1293 65.3779 10.8385Z" fill="#363F4D"/>
<path id="Vector_19" d="M197.086 37.2888C197.329 36.8364 197.303 36.4391 197.125 35.9815C196.312 33.9008 195.541 31.8042 194.755 29.713C194.715 29.6064 194.686 29.496 194.652 29.3903C194.683 29.3767 194.695 29.3675 194.707 29.3668C195.913 29.2929 195.914 29.2925 196.324 30.4386C196.861 31.9405 197.396 33.4434 197.941 34.9719C198.616 33.1026 199.29 31.2367 199.964 29.369C200.369 29.369 200.745 29.369 201.153 29.369C201.135 29.4571 201.131 29.538 201.104 29.6105C200.109 32.2739 199.119 34.9394 198.107 37.5966C197.949 38.012 197.73 38.4165 197.473 38.7792C197.033 39.4006 196.388 39.5609 195.657 39.4465C195.386 39.404 195.203 39.317 195.219 38.9842C195.231 38.745 195.17 38.5023 195.141 38.256C196.561 38.3164 196.696 38.2493 197.086 37.2888Z" fill="#363F4D"/>
<path id="Vector_20" d="M153.873 11.6242C153.873 13.6428 153.873 15.6177 153.873 17.6207C153.226 17.6207 152.597 17.6207 151.95 17.6207C151.95 13.909 151.95 10.2088 151.95 6.47656C152.57 6.47656 153.187 6.47656 153.873 6.47656C153.873 8.16721 153.873 9.87387 153.873 11.6242Z" fill="#363F4D"/>
<path id="Vector_21" d="M116.548 34.3128C116.592 33.0012 116.626 31.7245 116.656 30.4478C116.664 30.1008 116.657 29.7535 116.657 29.3816C117.057 29.3816 117.428 29.3816 117.836 29.3816C117.836 31.746 117.836 34.1184 117.836 36.521C117.501 36.521 117.162 36.521 116.784 36.521C116.784 36.23 116.784 35.9471 116.784 35.7398C116.26 36.0352 115.765 36.4285 115.202 36.6074C113.985 36.9938 112.671 36.4143 112.262 35.3933C112.157 35.1283 112.08 34.8316 112.077 34.5486C112.06 32.8357 112.069 31.1226 112.069 29.3829C112.46 29.3829 112.843 29.3829 113.279 29.3829C113.279 29.7972 113.279 30.2133 113.28 30.6294C113.281 31.7193 113.273 32.8093 113.288 33.899C113.302 34.9914 113.66 35.5124 114.441 35.629C115.429 35.7765 116.198 35.3058 116.548 34.3128Z" fill="#363F4D"/>
<path id="Vector_22" d="M186.518 31.5251C186.518 30.7875 186.518 30.0935 186.518 29.3783C186.902 29.3783 187.244 29.3783 187.623 29.3783C187.623 29.6604 187.623 29.9292 187.623 30.2307C187.7 30.2014 187.746 30.1987 187.766 30.1746C188.614 29.1629 189.7 29.0173 190.89 29.3557C191.693 29.5836 192.162 30.1508 192.28 30.9751C192.338 31.3759 192.35 31.7858 192.352 32.1917C192.36 33.6289 192.355 35.0663 192.355 36.5272C191.941 36.5272 191.556 36.5272 191.135 36.5272C191.135 35.3464 191.136 34.1863 191.135 33.0262C191.134 32.6191 191.142 32.2114 191.123 31.8049C191.067 30.5674 190.178 29.9659 188.994 30.3534C188.301 30.5799 187.88 31.0603 187.828 31.7772C187.761 32.6889 187.763 33.6058 187.747 34.5207C187.736 35.1739 187.745 35.8275 187.745 36.5158C187.343 36.5158 186.961 36.5158 186.518 36.5158C186.518 34.8693 186.518 33.219 186.518 31.5251Z" fill="#363F4D"/>
<path id="Vector_23" d="M142.662 30.2095C141.485 30.2105 140.75 30.7094 140.577 31.8079C140.456 32.5797 140.468 33.404 140.595 34.1759C140.763 35.1944 141.513 35.7288 142.465 35.7119C143.378 35.6956 143.952 35.1605 144.18 34.1154C144.195 34.0473 144.218 33.981 144.243 33.8924C144.631 33.947 145.001 33.999 145.368 34.0506C145.409 35.3056 144.22 36.5504 142.871 36.6838C140.97 36.8717 139.661 35.9274 139.28 34.0537C139.082 33.0844 139.136 32.1144 139.474 31.1762C139.97 29.7985 141.289 29.0392 142.842 29.2223C144.231 29.3862 145.061 30.132 145.286 31.4597C144.905 31.5142 144.525 31.5685 144.13 31.6249C143.917 30.859 143.523 30.311 142.662 30.2095Z" fill="#363F4D"/>
<path id="Vector_24" d="M120.632 29.3571C120.802 29.3571 120.929 29.3571 121.099 29.3571C121.099 28.8754 121.122 28.428 121.091 27.9842C121.07 27.6772 121.181 27.4989 121.442 27.3647C121.71 27.2271 121.965 27.0631 122.28 26.8784C122.28 27.7168 122.28 28.5047 122.28 29.3408C122.703 29.3408 123.086 29.3408 123.494 29.3408C123.494 29.6733 123.494 29.9585 123.494 30.2833C123.128 30.2833 122.743 30.2833 122.299 30.2833C122.299 30.4903 122.299 30.6587 122.299 30.8271C122.299 32.0486 122.297 33.27 122.299 34.4915C122.301 35.4408 122.386 35.5238 123.343 35.5394C123.398 35.5403 123.453 35.5536 123.532 35.5644C123.585 35.8985 123.637 36.2234 123.695 36.5859C123.068 36.7361 122.468 36.7847 121.883 36.556C121.345 36.3454 121.135 35.8962 121.13 35.3419C121.117 33.9026 121.109 32.4632 121.099 31.0239C121.098 30.8061 121.099 30.5883 121.099 30.3244C120.808 30.3244 120.527 30.3244 120.223 30.3244C120.223 29.9946 120.223 29.7102 120.223 29.3835C120.342 29.3749 120.466 29.366 120.632 29.3571Z" fill="#363F4D"/>
<path id="Vector_25" d="M94.1563 29.3564C94.3248 29.3622 94.4516 29.368 94.5965 29.3746C94.603 29.497 94.6128 29.5956 94.6128 29.6942C94.6127 32.1489 94.6191 34.6036 94.6037 37.0582C94.601 37.4888 94.5377 37.9257 94.4467 38.3476C94.3001 39.0269 93.82 39.3806 93.1549 39.4535C92.7456 39.4984 92.3274 39.4619 91.834 39.4619C91.935 39.0158 92.0072 38.6975 92.0769 38.3896C92.1221 38.3709 92.1498 38.3475 92.1729 38.3515C93.1086 38.5122 93.3699 38.3164 93.3757 37.36C93.3908 34.8618 93.3846 32.3635 93.3869 29.8653C93.3871 29.7097 93.3869 29.554 93.3869 29.3564C93.6578 29.3564 93.8863 29.3564 94.1563 29.3564Z" fill="#363F4D"/>
<path id="Vector_26" d="M80.3828 27.0917C80.3828 26.9362 80.3828 26.8222 80.3828 26.6506C80.6086 26.6506 80.8059 26.6506 81.0032 26.6506C81.1884 26.6506 81.3737 26.6506 81.5794 26.6506C81.5794 29.9616 81.5794 33.2361 81.5794 36.5306C81.1909 36.5306 80.8186 36.5306 80.3828 36.5306C80.3828 33.392 80.3828 30.2626 80.3828 27.0917Z" fill="#363F4D"/>
<path id="Vector_27" d="M141.106 7.90906C140.65 8.46318 139.978 8.59811 139.419 8.27539C138.818 7.92803 138.77 7.03664 139.331 6.62429C139.756 6.31114 140.374 6.30119 140.799 6.60066C141.212 6.89171 141.31 7.2783 141.106 7.90906Z" fill="#363F4D"/>
<path id="Vector_28" d="M121.318 20.539C120.641 20.2574 120.403 19.8177 120.586 19.2422C120.752 18.7161 121.363 18.413 121.968 18.5562C122.585 18.7022 122.896 19.1667 122.79 19.784C122.691 20.3649 122.12 20.6674 121.318 20.539Z" fill="#363F4D"/>
<path id="Vector_29" d="M126.704 20.3748C126.289 19.976 126.217 19.4232 126.505 19.0283C126.802 18.6199 127.482 18.4835 127.964 18.7357C128.405 18.9665 128.605 19.4822 128.441 19.966C128.242 20.5543 127.446 20.7531 126.704 20.3748Z" fill="#363F4D"/>
<path id="Vector_30" d="M55.2423 7.89535C55.6385 7.42261 56.1159 7.35365 56.6385 7.53378C57.0446 7.67377 57.2616 8.0412 57.2427 8.4892C57.224 8.93089 57.0025 9.22568 56.5836 9.357C56.1231 9.50137 55.6781 9.45554 55.3378 9.09362C55.0147 8.74987 55.0221 8.33698 55.2423 7.89535Z" fill="#363F4D"/>
<path id="Vector_31" d="M85.0654 19.5762C85.049 20.0864 84.8246 20.4067 84.3575 20.5316C83.8925 20.6558 83.4506 20.6045 83.1177 20.2322C82.8402 19.9216 82.8406 19.5415 83.003 19.171C83.1745 18.7798 83.6406 18.5591 84.1335 18.6147C84.6588 18.674 84.9306 18.9445 85.0654 19.5762Z" fill="#363F4D"/>
<path id="Vector_32" d="M131.467 19.7791C131.381 20.3113 131.031 20.513 130.583 20.5722C130.144 20.6304 129.727 20.539 129.474 20.1398C129.247 19.7806 129.271 19.3908 129.509 19.034C129.761 18.6582 130.301 18.514 130.798 18.673C131.28 18.8273 131.476 19.1378 131.467 19.7791Z" fill="#363F4D"/>
<path id="Vector_33" d="M162.589 8.14979C161.945 8.09694 161.622 7.86128 161.523 7.40019C161.426 6.94521 161.593 6.54468 161.973 6.32001C162.38 6.07977 163.007 6.14601 163.349 6.4604C163.664 6.75032 163.719 7.11639 163.597 7.49308C163.45 7.94448 163.086 8.13049 162.589 8.14979Z" fill="#363F4D"/>
<path id="Vector_34" d="M58.816 9.373C58.1735 9.09623 57.9416 8.63736 58.1361 8.08694C58.3081 7.60001 58.944 7.32924 59.5224 7.49668C60.087 7.66017 60.3494 8.12086 60.2138 8.71103C60.0923 9.24011 59.5573 9.50293 58.816 9.373Z" fill="#363F4D"/>
<path id="Vector_35" d="M81.4603 20.5049C81.1997 20.5327 80.9648 20.5893 80.7433 20.5562C80.161 20.4691 79.8768 20.098 79.9109 19.5321C79.941 19.0337 80.3101 18.6719 80.8463 18.6153C81.4091 18.556 81.9198 18.8695 82.0335 19.3442C82.1566 19.8578 82.0016 20.1867 81.4603 20.5049Z" fill="#363F4D"/>
<path id="Vector_36" d="M166.18 7.99174C165.313 8.37456 164.516 7.98557 164.496 7.203C164.485 6.72213 164.782 6.32478 165.238 6.21252C165.782 6.07834 166.346 6.29402 166.556 6.71694C166.769 7.14623 166.629 7.65347 166.18 7.99174Z" fill="#363F4D"/>
<path id="Vector_37" d="M192.886 6.90086C193.29 7.33707 193.346 7.89962 193.048 8.25691C192.746 8.61867 192.053 8.71558 191.601 8.45922C191.208 8.23659 191.049 7.73889 191.224 7.28155C191.446 6.70251 192.172 6.52532 192.886 6.90086Z" fill="#363F4D"/>
<path id="Vector_38" d="M194.397 8.3632C194.017 7.91242 193.986 7.40606 194.293 7.04483C194.618 6.66267 195.262 6.56956 195.723 6.83792C196.135 7.07691 196.295 7.57899 196.109 8.04613C195.884 8.61002 195.101 8.76764 194.397 8.3632Z" fill="#363F4D"/>
<path id="Vector_39" d="M193.222 6.31885C192.713 6.12883 192.639 5.50847 192.833 5.15972C193.048 4.77495 193.598 4.61663 194.061 4.80552C194.492 4.98101 194.682 5.38021 194.552 5.83348C194.415 6.30961 193.901 6.50705 193.222 6.31885Z" fill="#363F4D"/>
<path id="Vector_40" d="M94.6134 27.9222C94.407 28.0093 94.2035 28.0705 93.9957 28.0959C93.8128 28.1183 93.6249 28.1006 93.4121 28.1006C93.4121 27.6128 93.4121 27.1581 93.4121 26.676C93.7983 26.676 94.1806 26.676 94.6143 26.676C94.6143 27.0798 94.6143 27.4803 94.6134 27.9222Z" fill="#363F4D"/>
</g>
</g>
</svg>
