<svg width="156" height="47" viewBox="0 0 156 47" fill="none" xmlns="http://www.w3.org/2000/svg">
<g id="Group 1321314731">
<g id="Group 1321314732">
<circle id="Ellipse 10322" cx="23.4981" cy="23.4981" r="23.4981" fill="white"/>
<path id="Vector" d="M39.5302 6.33634C43.594 10.2017 46.0256 14.876 46.7823 20.4053C47.2092 23.524 46.9832 26.6049 46.1934 29.6515C46.0918 30.0431 45.9087 30.1537 45.5351 30.1663C43.9321 30.2203 42.3535 30.1084 40.82 29.5954C37.8734 28.6095 36.1356 26.5443 35.5816 23.5312C35.3463 22.2512 34.3731 21.7696 33.2221 22.4499C32.9212 22.6277 32.6306 22.8385 32.3771 23.0784C30.076 25.2551 27.0559 25.7534 24.1727 24.4666C21.9129 23.458 20.0966 21.8854 18.4634 20.0778C17.7358 19.2725 17.0378 18.434 16.398 17.5582C15.9594 16.9578 15.6466 16.2659 15.2737 15.6171C14.5305 14.3237 13.7073 13.0937 12.5336 12.1381C11.3825 11.2008 10.203 11.0269 9.14179 11.6468C8.09506 12.2583 7.46769 13.6241 7.75476 14.9519C7.93013 15.763 8.18973 16.5918 8.59302 17.3109C9.80402 19.4703 11.3056 21.4248 13.1147 23.1251C13.5127 23.4992 13.9743 23.815 14.4395 24.1047C14.6796 24.2542 14.7542 24.4045 14.7842 24.6755C14.9491 26.165 15.1372 27.6521 15.3342 29.1377C15.3716 29.4197 15.4853 29.6916 15.6371 29.9568C15.6828 29.3034 15.7264 28.6497 15.7757 27.9965C15.786 27.8597 15.8106 27.7231 15.8395 27.5887C16.1674 26.0628 16.6298 25.7218 18.1676 25.8686C19.6729 26.0122 20.4801 26.7837 20.4879 28.1345C20.4902 28.5253 20.3938 28.918 20.3297 29.3077C20.206 30.0605 19.9924 30.8087 19.9639 31.5644C19.9266 32.5562 20.3822 32.8582 21.3613 32.7087C22.7103 32.5027 24.0691 32.3366 25.4299 32.5657C26.1053 32.6794 26.7577 32.9289 27.433 33.0431C28.9539 33.3004 29.7789 32.6636 30.154 31.165C30.4313 30.0577 30.788 28.9603 31.2216 27.9046C31.7255 26.678 32.8782 26.3542 34.057 26.2187C34.6689 26.1484 35.1644 26.5242 35.4292 27.0589C35.6838 27.5729 35.8663 28.1336 36.0038 28.6926C36.4997 30.7092 37.3419 32.531 38.8617 33.9901C40.0414 35.1227 41.4591 35.6871 43.0876 35.7396C43.208 35.7435 43.3282 35.7553 43.4575 35.7641C40.5551 41.0452 33.0987 47.1954 23.04 46.9952C12.7221 46.7899 3.74207 39.8977 0.919826 29.9722C-2.02612 19.6115 2.3019 9.00462 11.0749 3.58485C20.2492 -2.08282 31.7276 -0.930487 39.5302 6.33634Z" fill="#03A19C"/>
</g>
<path id="Vector_2" d="M120.345 10.5142C121.58 10.7334 122.732 11.2221 124.046 10.4416C123.959 11.4131 123.886 12.2341 123.81 13.087C123.149 13.2 122.516 13.3084 121.882 13.4169C121.89 13.4748 121.897 13.5327 121.905 13.5906C123.944 13.5906 125.983 13.6272 128.02 13.5711C128.753 13.551 129.286 13.1519 129.519 12.3376C129.626 11.9656 130.109 11.7014 130.421 11.3884C130.485 11.4304 130.548 11.4725 130.611 11.5145C130.593 11.7318 130.577 11.9493 130.555 12.1663C130.472 12.9986 130.932 13.4922 131.676 13.5476C132.849 13.6349 134.034 13.5708 135.329 13.5708C135.163 12.4161 135.088 11.3263 134.835 10.2798C134.575 9.20603 134.707 8.41133 135.797 7.93178C136.063 7.81471 136.29 7.60888 136.513 7.4585C137.487 9.43038 136.595 11.5311 137.082 13.5746C138.961 13.5746 140.855 13.5746 142.771 13.5746C141.538 12.4419 140.243 11.929 139.013 12.771C138.837 11.8225 139.213 10.8542 139.92 10.4356C140.645 10.0068 141.617 10.0969 142.376 10.7616C142.97 11.2812 143.491 11.8845 144.034 12.4606C145.024 13.5109 145.71 13.7537 147.294 13.5515C147.123 12.3322 147.037 11.0924 146.752 9.8998C146.556 9.07635 146.702 8.57889 147.444 8.19953C147.817 8.00881 148.143 7.72679 148.472 7.49862C149.347 9.13029 148.757 10.8467 148.876 12.5104C149 14.2371 149.066 15.9678 149.165 17.8339C148.692 17.8339 148.373 17.8351 148.054 17.8337C143.453 17.8142 138.853 17.791 134.253 17.7777C133.401 17.7752 132.545 17.8664 131.697 17.8136C131.067 17.7743 130.447 17.5722 130.101 17.5006C128.942 17.6301 128.001 17.693 127.076 17.8477C125.311 18.1429 124.127 17.4563 123.315 15.8891C123.031 15.342 122.546 14.8579 122.052 14.4751C121.694 14.1979 121.088 13.9011 120.737 14.0247C119.983 14.2911 119.425 14.8965 119.402 15.807C119.374 16.9333 120.337 17.8254 121.623 17.846C122.439 17.8591 123.256 17.8484 124.301 17.8484C122.92 19.153 122.247 21.079 120.02 20.8592C118.227 20.6822 117.169 19.8397 116.749 18.2998C116.185 16.236 117.038 14.6504 119.765 12.6912C118.377 12.1104 117.78 12.2546 116.837 13.3982C116.53 10.5548 118.128 9.94542 120.345 10.5142Z" fill="#363F4D"/>
<path id="Vector_3" d="M110.396 17.7757C107.021 17.7945 103.731 17.8387 100.442 17.8184C99.2674 17.8111 98.1112 17.6533 96.9141 17.7023C95.8569 17.7455 94.7543 17.7763 93.668 17.8271C92.5432 17.8796 91.4117 17.8798 90.2876 17.8193C89.7161 17.7885 89.1545 17.574 88.5699 17.4382C87.9724 17.5596 87.2913 17.7748 86.599 17.8206C85.5677 17.889 84.5283 17.8481 83.4925 17.8346C82.5248 17.8219 81.8909 17.3293 81.8395 16.3781C81.703 13.8544 81.6335 11.3269 81.5636 8.80011C81.5583 8.6089 81.7162 8.35668 81.8754 8.22874C82.2491 7.92836 82.6695 7.68614 83.2307 7.3147C83.2855 9.10114 83.3409 10.7506 83.385 12.4003C83.4142 13.492 83.5183 13.6244 84.5886 13.6243C85.3776 13.6242 86.1692 13.5987 86.9547 13.5287C87.6298 13.4685 88.005 13.0331 88.2556 12.4076C88.3924 12.0662 88.7189 11.8007 89.0942 11.3339C89.506 13.4908 89.6802 13.6302 91.6116 13.6311C92.0077 13.6313 92.4057 13.6059 92.7994 13.6367C93.7271 13.7093 94.4946 13.4835 94.8888 12.6249C95.4452 12.9833 95.9759 13.5916 96.5098 13.5944C97.0461 13.5972 97.5856 12.997 98.0658 12.6972C98.6158 13.0766 99.2594 13.5207 99.903 13.9647C99.9879 13.8715 100.073 13.7782 100.158 13.685C99.9325 13.2447 99.7072 12.8043 99.4524 12.3063C99.942 11.8988 100.449 11.477 101.128 10.9121C101.334 11.717 101.476 12.4056 101.699 13.0669C101.771 13.2784 102.048 13.5519 102.247 13.5659C103.057 13.6225 103.874 13.5894 104.818 13.5894C104.62 12.2985 104.481 11.0997 104.239 9.92195C104.067 9.08189 104.188 8.47346 105.032 8.09388C105.379 7.93785 105.673 7.66455 105.977 7.45401C106.94 9.40105 106.064 11.472 106.541 13.5095C107.497 13.5095 108.479 13.5095 109.599 13.5095C109.435 12.3286 109.347 11.1188 109.079 9.95054C108.876 9.06869 109.057 8.50647 109.854 8.09582C110.219 7.90766 110.54 7.63222 110.835 7.42785C111.615 9.11925 111.13 10.8425 111.225 12.5283C111.322 14.2497 111.246 15.9808 111.246 17.7757C111.024 17.7757 110.753 17.7757 110.396 17.7757Z" fill="#363F4D"/>
<path id="Vector_4" d="M61.9724 39.2793C60.667 39.2792 59.4514 39.2792 58.0506 39.2792C58.1699 38.9614 58.2038 38.5744 58.3547 38.5214C58.9509 38.3125 58.8862 37.869 58.8853 37.4104C58.8809 35.0963 58.8835 32.7823 58.8851 30.4682C58.8855 29.9857 58.9674 29.4969 58.3386 29.2622C58.1844 29.2047 58.1466 28.8351 58.0166 28.5131C60.064 28.5131 61.9688 28.5131 64.1597 28.5131C63.8995 28.883 63.7269 29.139 63.5427 29.3863C63.4072 29.5684 63.1386 29.7347 63.1317 29.9157C63.0919 30.9614 63.1123 32.0093 63.3118 33.1159C64.1682 31.9627 65.0246 30.8094 65.9224 29.6002C65.6875 29.4437 65.4924 29.3577 65.3621 29.2132C65.2536 29.0928 65.125 28.848 65.1772 28.758C65.2601 28.615 65.484 28.4779 65.6522 28.473C66.5648 28.4462 67.4792 28.4461 68.3917 28.4751C68.5479 28.4801 68.8129 28.66 68.823 28.7768C68.8366 28.9341 68.6842 29.1442 68.5466 29.2698C67.8458 29.9095 67.1043 30.5064 66.4322 31.1739C66.2867 31.3184 66.2664 31.7362 66.3612 31.9523C67.2142 33.897 68.0964 35.8291 68.997 37.7523C69.1161 38.0065 69.4001 38.1792 69.5827 38.4094C69.718 38.5801 69.8128 38.7829 69.9257 38.9713C69.7415 39.0739 69.5585 39.2628 69.3728 39.2656C67.7932 39.2893 66.2132 39.2791 64.3726 39.2791C64.6468 38.7951 64.834 38.4646 65.0954 38.0029C64.6431 37.0408 64.1185 35.925 63.594 34.8092C63.521 34.8043 63.4481 34.7993 63.3752 34.7944C63.2863 35.0736 63.1381 35.3491 63.1206 35.6327C63.0815 36.2698 63.0666 36.9145 63.125 37.5485C63.1513 37.8338 63.3828 38.098 63.51 38.3769C63.6123 38.6013 63.6978 38.8334 63.7907 39.0621C63.5799 39.1342 63.3731 39.2483 63.1574 39.269C62.7953 39.3037 62.4275 39.279 61.9724 39.2793Z" fill="#363F4D"/>
<path id="Vector_5" d="M71.2216 38.3619C71.3095 36.1464 71.3396 33.9894 71.3663 31.8324C71.3723 31.3453 71.3596 30.8581 71.3679 30.3711C71.3763 29.8805 71.4361 29.3957 70.8 29.1846C70.6712 29.1419 70.6416 28.8004 70.5156 28.4599C71.9966 28.4599 73.3296 28.4389 74.6602 28.4869C74.8232 28.4928 75.0843 28.8565 75.1074 29.0748C75.1699 29.6662 75.1288 30.2686 75.1288 30.969C75.6786 30.7441 76.1042 30.4952 76.5619 30.3997C77.2961 30.2466 78.0591 30.0778 78.796 30.1262C80.1452 30.2147 80.643 30.8461 80.6455 32.2009C80.6484 33.784 80.6414 35.3671 80.6482 36.9501C80.651 37.5943 80.4775 38.291 81.1683 38.7527C81.2405 38.8009 81.1906 39.0318 81.2017 39.2731C80.0464 39.2731 78.9265 39.3096 77.8106 39.2596C77.1336 39.2292 76.9296 38.7291 76.9327 38.1036C76.9415 36.277 76.9237 34.4502 76.9408 32.6237C76.9465 32.0133 76.8864 31.4927 76.1073 31.5143C75.3739 31.5347 75.0689 31.8725 75.1111 32.6649C75.1822 34.0007 75.1242 35.343 75.131 36.6825C75.1349 37.4455 74.9394 38.2636 75.6987 38.8382C75.7559 38.8816 75.7062 39.0662 75.7062 39.2326C74.0465 39.2326 72.4167 39.2326 70.526 39.2326C70.8141 38.865 70.9883 38.6426 71.2216 38.3619Z" fill="#363F4D"/>
<path id="Vector_6" d="M136.552 30.1409C137.293 30.0659 137.191 30.5285 137.191 30.9164C137.192 33.0495 137.193 35.1826 137.191 37.3157C137.19 37.8556 137.085 38.4235 137.764 38.6993C137.853 38.7353 137.842 39.0168 137.888 39.2375C136.438 39.2375 135.043 39.2375 133.571 39.2375C133.51 39.0322 133.441 38.7978 133.443 38.8043C132.091 38.9754 130.822 39.2669 129.556 39.2576C128.401 39.2491 127.959 38.6558 127.933 37.4793C127.894 35.7433 127.919 34.0058 127.91 32.269C127.908 31.748 128.073 31.1669 127.36 30.8961C127.253 30.8554 127.274 30.4786 127.224 30.1906C128.723 30.1906 130.115 30.1906 131.621 30.1906C131.634 30.475 131.658 30.7636 131.658 31.0522C131.662 33.0025 131.673 34.9528 131.654 36.9029C131.647 37.5717 131.886 37.9652 132.59 37.951C133.279 37.9371 133.502 37.5793 133.477 36.8879C133.425 35.4271 133.473 33.963 133.456 32.5005C133.449 31.8979 133.689 31.198 132.89 30.8371C132.801 30.7969 132.74 30.4364 132.812 30.3588C132.931 30.2294 133.167 30.1546 133.356 30.151C134.392 30.1317 135.428 30.1411 136.552 30.1409Z" fill="#363F4D"/>
<path id="Vector_7" d="M121.405 30.0712C122.393 30.2057 123.314 30.2553 124.183 30.4951C125.388 30.8273 125.769 31.448 125.769 32.7043C125.77 34.1973 125.759 35.6905 125.773 37.1834C125.777 37.6696 125.584 38.2374 126.214 38.5495C126.238 38.5618 126.083 39.1852 125.964 39.2028C124.588 39.4061 123.179 39.6818 121.94 38.5245C120.812 39.205 119.559 39.5594 118.172 39.2926C117.027 39.0725 116.292 38.379 116.117 37.2742C115.868 35.7074 116.279 34.5615 117.45 34.1212C118.694 33.6535 119.991 33.3005 121.292 33.0215C122.257 32.8146 122.078 32.1429 121.99 31.5693C121.949 31.3006 121.561 30.9358 121.279 30.8828C120.578 30.7507 120.268 31.1676 120.152 31.8673C120.102 32.1714 119.765 32.587 119.482 32.6616C118.846 32.829 118.155 32.8981 117.502 32.8405C117.154 32.8098 116.639 32.4867 116.558 32.1958C116.471 31.8842 116.704 31.2492 116.975 31.1156C117.829 30.6943 118.753 30.3879 119.678 30.1453C120.195 30.0097 120.768 30.0887 121.405 30.0712ZM121.45 37.9817C121.635 37.7323 121.967 37.4901 121.98 37.232C122.038 36.0663 122.005 34.8961 122.005 33.7173C120.574 33.9408 120.244 34.2784 120.176 35.5741C120.151 36.0574 120.16 36.5445 120.187 37.0281C120.224 37.715 120.553 38.104 121.45 37.9817Z" fill="#363F4D"/>
<path id="Vector_8" d="M86.4552 33.2061C87.026 33.0627 87.5222 32.9301 88.1102 32.7729C88.1102 32.4133 88.1103 32.056 88.1102 31.6987C88.11 31.2172 87.9712 30.8555 87.3982 30.8516C86.8378 30.8477 86.3044 30.9344 86.3098 31.6395C86.3155 32.3865 85.8962 32.6832 85.2613 32.7637C84.6911 32.8361 84.1024 32.9139 83.5407 32.8423C83.2082 32.8 82.7152 32.5221 82.6493 32.2606C82.5662 31.9311 82.7542 31.4341 82.9926 31.1495C83.248 30.8446 83.6735 30.6221 84.067 30.5032C86.0921 29.8911 88.1443 29.8697 90.1695 30.4719C91.3564 30.8248 91.9047 31.4128 91.832 32.7147C91.7506 34.1708 91.8007 35.6351 91.8201 37.0955C91.8269 37.6054 91.603 38.21 92.2672 38.5472C92.2919 38.5597 92.1266 39.1916 92.0061 39.2078C90.6327 39.3919 89.2174 39.7055 88.0086 38.5074C86.8627 39.2215 85.6072 39.5508 84.2262 39.2898C83.0242 39.0626 82.383 38.4127 82.2055 37.17C81.9777 35.5759 82.3575 34.5792 83.5219 34.106C84.4431 33.7316 85.4255 33.5076 86.4552 33.2061ZM88.115 34.1582C88.1053 34.0091 88.0957 33.86 88.0859 33.709C86.5952 33.9206 86.3072 34.2345 86.2846 35.6619C86.2779 36.0855 86.2896 36.5094 86.282 36.9329C86.2709 37.552 86.4347 38.0167 87.1734 38.0206C87.8998 38.0245 88.1016 37.5633 88.1098 36.9519C88.1215 36.0744 88.114 35.1966 88.115 34.1582Z" fill="#363F4D"/>
<path id="Vector_9" d="M153.004 30.6775C154.946 31.8963 155.608 33.6543 155.06 35.9952C154.646 37.7636 153.114 39.0986 151.14 39.2723C150.245 39.351 149.294 39.3723 148.434 39.1584C146.109 38.5803 145.034 36.8501 145.217 34.2474C145.379 31.9367 146.841 30.406 149.204 30.1227C150.489 29.9687 151.754 30.0598 153.004 30.6775ZM149.284 37.7296C149.358 38.3358 149.692 38.7804 150.294 38.5407C150.628 38.4078 150.997 37.8749 151.011 37.5096C151.082 35.6007 151.04 33.6877 151.046 31.7762C151.048 31.2495 150.873 30.892 150.292 30.8488C149.7 30.8048 149.374 31.0813 149.303 31.6623C149.277 31.8722 149.254 32.0843 149.254 32.2953C149.254 34.0551 149.259 35.8149 149.284 37.7296Z" fill="#363F4D"/>
<path id="Vector_10" d="M70.268 12.8641C70.2778 14.5242 70.2778 16.1032 70.2778 17.764C70.0895 17.7841 69.8609 17.8292 69.6321 17.8297C67.2893 17.8352 64.9464 17.8384 62.6036 17.8319C61.0586 17.8276 59.9265 17.1163 59.4159 15.852C58.9153 14.6126 59.319 12.3833 60.2102 11.5606C60.3269 11.4529 60.5193 11.4273 60.8614 11.289C60.8108 11.6799 60.7909 11.9221 60.7466 12.1599C60.585 13.0275 60.9958 13.6107 61.8814 13.6212C64.1587 13.648 66.4365 13.6301 69.0015 13.6301C68.51 12.9513 68.1374 12.4365 67.7263 11.8687C68.3111 11.4137 68.9042 10.9523 69.682 10.3472C69.8949 11.2468 70.0766 12.0149 70.268 12.8641Z" fill="#363F4D"/>
<path id="Vector_11" d="M103.687 36.9987C103.65 37.9346 103.974 38.5049 104.891 38.5884C105.955 38.6851 106.762 38.1411 106.954 37.211C107.112 36.4484 107.82 36.0557 108.511 36.4325C108.698 36.5341 108.834 37.0047 108.767 37.2429C108.51 38.1669 107.784 38.7061 106.931 39.0063C105.327 39.5712 103.697 39.5477 102.127 38.8807C100.219 38.0703 99.3644 36.5025 99.5477 34.3147C99.7289 32.1526 100.849 30.7272 102.876 30.2867C103.723 30.1027 104.637 30.048 105.498 30.144C107.797 30.4008 108.961 31.9657 108.804 34.5492C107.977 34.5492 107.138 34.5492 106.299 34.5492C105.456 34.5492 104.612 34.5492 103.686 34.5492C103.686 35.4074 103.686 36.1612 103.687 36.9987ZM103.684 31.9149C103.684 32.5143 103.684 33.1138 103.684 33.7493C104.257 33.7493 104.751 33.7493 105.317 33.7493C105.317 33.0723 105.306 32.4418 105.32 31.812C105.332 31.3063 105.242 30.8965 104.629 30.8509C103.982 30.8028 103.654 31.0876 103.684 31.9149Z" fill="#363F4D"/>
<path id="Vector_12" d="M97.8284 31.3917C97.8285 33.0064 97.7911 34.5311 97.8414 36.053C97.876 37.1015 98.0321 38.1461 98.1376 39.2313C96.74 39.2313 95.1353 39.2313 93.4301 39.2313C93.4512 39.0108 93.4131 38.6324 93.5024 38.5995C94.3185 38.2987 94.0883 37.6222 94.092 37.0499C94.1059 34.8866 94.101 32.7233 94.0958 30.56C94.0944 30.0031 94.2626 29.3768 93.5101 29.0963C93.4275 29.0656 93.4414 28.7759 93.3965 28.5288C94.8712 28.5288 96.2838 28.5288 97.8284 28.5288C97.8284 29.4383 97.8284 30.3694 97.8284 31.3917Z" fill="#363F4D"/>
<path id="Vector_13" d="M143.137 35.231C143.136 35.8698 143.135 36.4174 143.137 36.965C143.139 37.646 142.963 38.3992 143.918 38.6646C144.027 38.6949 144.06 39.0006 144.167 39.2802C142.834 39.2802 141.62 39.3181 140.409 39.2677C139.519 39.2306 139.383 38.5139 139.375 37.8211C139.352 35.7831 139.373 33.7446 139.36 31.7064C139.358 31.3599 139.552 30.8527 138.874 30.8492C138.862 30.8492 138.823 30.2036 138.846 30.2002C140.091 30.0182 141.14 29.5437 141.934 28.5032C142.068 28.3287 142.625 28.4786 143.091 28.4786C143.115 29.0033 143.138 29.5036 143.153 29.8509C143.587 30.1153 143.924 30.3209 144.262 30.5265C143.936 30.7054 143.611 30.8844 143.137 31.145C143.137 32.3611 143.137 33.7504 143.137 35.231Z" fill="#363F4D"/>
<path id="Vector_14" d="M114.474 36.3255C114.474 36.477 114.474 36.5378 114.474 36.5986C114.475 39.6391 113.364 40.7903 110.306 40.9134C110.006 40.9255 109.706 40.915 109.227 40.7324C109.415 40.5403 109.573 40.2409 109.799 40.1756C110.543 39.9602 110.797 39.4821 110.793 38.7549C110.78 36.4757 110.806 34.1961 110.767 31.9175C110.762 31.5802 110.491 31.2455 110.335 30.9135C110.237 30.704 110.123 30.5017 109.964 30.1948C111.546 30.1948 112.957 30.1948 114.474 30.1948C114.474 32.2435 114.474 34.2392 114.474 36.3255Z" fill="#363F4D"/>
<path id="Vector_15" d="M78.2662 12.7404C78.46 12.509 78.6146 12.3318 78.7698 12.1541C80.7204 13.9391 81.0517 17.5225 79.4375 19.5C78.6326 20.486 77.7488 21.1635 76.1752 20.4261C75.4263 20.0752 74.6851 19.7078 73.9404 19.3479C73.9672 19.2476 73.9939 19.1473 74.0206 19.047C74.2678 19.0277 74.5147 19.0028 74.7623 18.99C76.4903 18.9008 77.7967 18.0131 78.883 16.758C79.0141 16.6065 79.0137 16.1658 78.8883 15.9987C78.3986 15.3463 77.8341 14.7501 77.236 14.0623C77.5374 13.6767 77.8823 13.2356 78.2662 12.7404Z" fill="#363F4D"/>
<path id="Vector_16" d="M152.534 7.67255C152.652 10.055 152.743 12.3662 152.889 14.674C152.987 16.2334 152.461 17.4617 151.07 18.4155C150.952 16.8115 150.829 15.2618 150.724 13.7108C150.632 12.3446 150.595 10.9735 150.462 9.61166C150.391 8.88556 150.589 8.40738 151.247 8.07722C151.623 7.88807 151.95 7.60015 152.31 7.3749C152.329 7.36298 152.454 7.52097 152.534 7.67255Z" fill="#363F4D"/>
<path id="Vector_17" d="M72.4057 15.5055C72.2764 13.5064 72.1884 11.5898 72.0068 9.68208C71.9337 8.91449 72.1243 8.41665 72.8132 8.0659C73.2136 7.86206 73.566 7.56397 74.0317 7.24561C74.0939 7.76922 74.1775 8.22832 74.1982 8.69024C74.291 10.7583 74.3543 12.8278 74.4508 14.8957C74.5206 16.3912 73.9196 17.5252 72.613 18.4285C72.5416 17.4341 72.4755 16.5128 72.4057 15.5055Z" fill="#363F4D"/>
<path id="Vector_18" d="M113.011 29.5896C112.267 29.5845 111.597 29.6031 110.934 29.5405C110.746 29.5226 110.555 29.2878 110.418 29.1117C110.381 29.0642 110.507 28.8354 110.607 28.7437C111.321 28.091 113.824 28.0896 114.889 28.9125C114.194 29.1709 113.641 29.3766 113.011 29.5896Z" fill="#363F4D"/>
<path id="Vector_19" d="M127.969 19.4792C128.192 19.2702 128.367 19.1073 128.565 18.9231C128.926 19.1922 129.258 19.4403 129.624 19.7132C129.911 19.4449 130.174 19.2002 130.51 18.8867C130.847 19.154 131.19 19.426 131.591 19.7445C131.231 20.0873 130.927 20.3753 130.566 20.7186C130.223 20.4758 129.886 20.2379 129.504 19.9679C129.228 20.1967 128.952 20.4248 128.59 20.7241C128.49 20.2329 127.222 20.5376 127.969 19.4792Z" fill="#363F4D"/>
<path id="Vector_20" d="M87.2598 20.6526C86.9178 20.4026 86.6388 20.1819 86.2637 19.8854C86.645 19.5559 86.9835 19.2635 87.3464 18.95C87.6611 19.1878 87.9948 19.44 88.3552 19.7123C88.6617 19.4322 88.9438 19.1744 89.2562 18.8889C89.6152 19.1731 89.9407 19.4307 90.2527 19.6778C89.9326 20.0451 89.6453 20.375 89.3301 20.7367C88.9525 20.4682 88.6136 20.2272 88.254 19.9715C87.9348 20.2151 87.6288 20.4486 87.2598 20.6526Z" fill="#363F4D"/>
<path id="Vector_21" d="M66.5079 10.0256C66.673 10.1655 66.7858 10.2638 66.8691 10.3364C66.5805 10.6851 66.3043 11.0188 65.9976 11.3894C65.6046 11.1176 65.2664 10.8837 64.8909 10.624C64.6104 10.8677 64.3429 11.1001 64.0137 11.386C63.6782 11.1354 63.3514 10.8912 62.9062 10.5587C63.3039 10.215 63.6368 9.92722 63.9939 9.61865C64.3281 9.8576 64.6672 10.1 64.9948 10.3341C65.4886 10.1657 65.7517 9.13999 66.5079 10.0256Z" fill="#363F4D"/>
<path id="Vector_22" d="M141.237 7.37461C141.541 7.62738 141.797 7.83817 142.126 8.10901C141.713 8.49005 141.323 8.85108 140.912 9.23058C140.51 8.91735 140.109 8.60543 139.575 8.18929C140.245 8.01378 140.219 6.89791 141.237 7.37461Z" fill="#363F4D"/>
<path id="Vector_23" d="M121.816 16.8085C121.526 16.8724 121.236 16.9795 121.047 16.8847C120.708 16.7143 120.429 16.4229 120.082 16.1474C120.513 15.7487 120.902 15.3894 121.321 15.0024C121.751 15.3571 122.138 15.6759 122.709 16.1463C122.388 16.3792 122.125 16.57 121.816 16.8085Z" fill="#363F4D"/>
<path id="Vector_24" d="M46.7988 27.3068C46.7877 26.2785 46.8146 25.1782 46.8155 24.0778C46.8165 22.7816 46.795 21.4854 46.7959 20.0996C47.3408 22.4171 47.199 24.8257 46.7988 27.3068Z" fill="#04A79D"/>
<path id="Vector_25" d="M46.2959 28.9779C46.3431 28.5755 46.4578 28.1719 46.6254 27.7405C46.5734 28.134 46.4684 28.5553 46.2959 28.9779Z" fill="#04A79D"/>
</g>
</svg>
