<svg width="156" height="47" viewBox="0 0 156 47" fill="none" xmlns="http://www.w3.org/2000/svg">
<g id="Group 1321314732">
<g id="Group 1321314732_2">
<circle id="Ellipse 10322" cx="23.4981" cy="23.4981" r="23.4981" transform="matrix(-1 0 0 1 155.245 0)" fill="white"/>
<path id="Vector" d="M115.715 6.33634C111.651 10.2017 109.219 14.876 108.463 20.4053C108.036 23.524 108.262 26.6049 109.052 29.6515C109.153 30.0431 109.336 30.1537 109.71 30.1663C111.313 30.2203 112.892 30.1084 114.425 29.5954C117.372 28.6095 119.109 26.5443 119.663 23.5312C119.899 22.2512 120.872 21.7696 122.023 22.4499C122.324 22.6277 122.614 22.8385 122.868 23.0784C125.169 25.2551 128.189 25.7534 131.072 24.4666C133.332 23.458 135.149 21.8854 136.782 20.0778C137.509 19.2725 138.207 18.434 138.847 17.5582C139.286 16.9578 139.599 16.2659 139.971 15.6171C140.715 14.3237 141.538 13.0937 142.712 12.1381C143.863 11.2008 145.042 11.0269 146.103 11.6468C147.15 12.2583 147.777 13.6241 147.49 14.9519C147.315 15.763 147.055 16.5918 146.652 17.3109C145.441 19.4703 143.94 21.4248 142.13 23.1251C141.732 23.4992 141.271 23.815 140.806 24.1047C140.565 24.2542 140.491 24.4045 140.461 24.6755C140.296 26.165 140.108 27.6521 139.911 29.1377C139.874 29.4197 139.76 29.6916 139.608 29.9568C139.562 29.3034 139.519 28.6497 139.469 27.9965C139.459 27.8597 139.435 27.7231 139.406 27.5887C139.078 26.0628 138.615 25.7218 137.078 25.8686C135.572 26.0122 134.765 26.7837 134.757 28.1345C134.755 28.5253 134.851 28.918 134.915 29.3077C135.039 30.0605 135.253 30.8087 135.281 31.5644C135.319 32.5562 134.863 32.8582 133.884 32.7087C132.535 32.5027 131.176 32.3366 129.815 32.5657C129.14 32.6794 128.487 32.9289 127.812 33.0431C126.291 33.3004 125.466 32.6636 125.091 31.165C124.814 30.0577 124.457 28.9603 124.024 27.9046C123.52 26.678 122.367 26.3542 121.188 26.2187C120.576 26.1484 120.081 26.5242 119.816 27.0589C119.561 27.5729 119.379 28.1336 119.241 28.6926C118.745 30.7092 117.903 32.531 116.383 33.9901C115.204 35.1227 113.786 35.6871 112.158 35.7396C112.037 35.7435 111.917 35.7553 111.788 35.7641C114.69 41.0452 122.146 47.1954 132.205 46.9952C142.523 46.7899 151.503 39.8977 154.325 29.9722C157.271 19.6115 152.943 9.00462 144.17 3.58485C134.996 -2.08282 123.518 -0.930487 115.715 6.33634Z" fill="#03A19C"/>
</g>
<g id="Group 1321314733">
<path id="Vector_2" d="M62.3287 10.5142C63.5635 10.7334 64.7156 11.2221 66.0291 10.4416C65.9425 11.4131 65.8693 12.2341 65.7933 13.087C65.1329 13.2 64.4991 13.3084 63.8653 13.4169C63.873 13.4748 63.8808 13.5327 63.8885 13.5906C65.9271 13.5906 67.9668 13.6272 70.0039 13.5711C70.7363 13.551 71.2693 13.1519 71.5026 12.3376C71.6091 11.9656 72.0923 11.7014 72.4046 11.3884C72.468 11.4304 72.5314 11.4725 72.5948 11.5145C72.5763 11.7318 72.5604 11.9493 72.5387 12.1663C72.4556 12.9986 72.9151 13.4922 73.6595 13.5476C74.8326 13.6349 76.017 13.5708 77.3122 13.5708C77.1468 12.4161 77.0718 11.3263 76.8184 10.2798C76.5585 9.20603 76.6906 8.41133 77.7802 7.93178C78.0462 7.81471 78.2731 7.60888 78.4963 7.4585C79.4704 9.43038 78.5779 11.5311 79.0654 13.5746C80.9444 13.5746 82.8385 13.5746 84.7539 13.5746C83.5211 12.4419 82.2267 11.929 80.9963 12.771C80.82 11.8225 81.196 10.8542 81.9033 10.4356C82.628 10.0068 83.6005 10.0969 84.3598 10.7616C84.9534 11.2812 85.4748 11.8845 86.0177 12.4606C87.0075 13.5109 87.6933 13.7537 89.2777 13.5515C89.1067 12.3322 89.0202 11.0924 88.7357 9.8998C88.5393 9.07635 88.6857 8.57889 89.4275 8.19953C89.8004 8.00881 90.1266 7.72679 90.4558 7.49862C91.3299 9.13029 90.7403 10.8467 90.8596 12.5104C90.9833 14.2371 91.0498 15.9678 91.1487 17.8339C90.6754 17.8339 90.3562 17.8351 90.037 17.8337C85.4369 17.8142 80.8368 17.791 76.2366 17.7777C75.3844 17.7752 74.5286 17.8664 73.6808 17.8136C73.0503 17.7743 72.4299 17.5722 72.0845 17.5006C70.9251 17.6301 69.9848 17.693 69.0599 17.8477C67.2947 18.1429 66.1106 17.4563 65.298 15.8891C65.0143 15.342 64.5292 14.8579 64.0352 14.4751C63.6775 14.1979 63.0709 13.9011 62.7207 14.0247C61.9662 14.2911 61.408 14.8965 61.3855 15.807C61.3577 16.9333 62.3205 17.8254 63.6063 17.846C64.4225 17.8591 65.2392 17.8484 66.2848 17.8484C64.9037 19.153 64.2307 21.079 62.0035 20.8592C60.2108 20.6822 59.1524 19.8397 58.732 18.2998C58.1686 16.236 59.0215 14.6504 61.7489 12.6912C60.3606 12.1104 59.7634 12.2546 58.8202 13.3982C58.5133 10.5548 60.1116 9.94542 62.3287 10.5142Z" fill="#363F4D"/>
<path id="Vector_3" d="M52.3798 17.7757C49.004 17.7945 45.7146 17.8387 42.4256 17.8184C41.2508 17.8111 40.0946 17.6533 38.8974 17.7023C37.8403 17.7455 36.7377 17.7763 35.6514 17.8271C34.5266 17.8796 33.3951 17.8798 32.271 17.8193C31.6995 17.7885 31.1379 17.574 30.5533 17.4382C29.9558 17.5596 29.2747 17.7748 28.5824 17.8206C27.5511 17.889 26.5117 17.8481 25.4759 17.8346C24.5082 17.8219 23.8743 17.3293 23.8229 16.3781C23.6864 13.8544 23.6169 11.3269 23.547 8.80011C23.5417 8.6089 23.6996 8.35668 23.8588 8.22874C24.2325 7.92836 24.6529 7.68614 25.2141 7.3147C25.2689 9.10114 25.3243 10.7506 25.3684 12.4003C25.3976 13.492 25.5017 13.6244 26.572 13.6243C27.361 13.6242 28.1526 13.5987 28.9381 13.5287C29.6132 13.4685 29.9884 13.0331 30.239 12.4076C30.3758 12.0662 30.7023 11.8007 31.0776 11.3339C31.4894 13.4908 31.6636 13.6302 33.595 13.6311C33.9911 13.6313 34.3891 13.6059 34.7828 13.6367C35.7105 13.7093 36.478 13.4835 36.8722 12.6249C37.4286 12.9833 37.9593 13.5916 38.4932 13.5944C39.0295 13.5972 39.569 12.997 40.0492 12.6972C40.5992 13.0766 41.2428 13.5207 41.8864 13.9647C41.9713 13.8715 42.0562 13.7782 42.1412 13.685C41.9159 13.2447 41.6906 12.8043 41.4358 12.3063C41.9254 11.8988 42.4323 11.477 43.1112 10.9121C43.3173 11.717 43.4593 12.4056 43.6826 13.0669C43.754 13.2784 44.0309 13.5519 44.23 13.5659C45.0406 13.6225 45.8575 13.5894 46.8011 13.5894C46.603 12.2985 46.4642 11.0997 46.2229 9.92195C46.0507 9.08189 46.1714 8.47346 47.0153 8.09388C47.3622 7.93785 47.6563 7.66455 47.9608 7.45401C48.9231 9.40105 48.0471 11.472 48.5241 13.5095C49.4802 13.5095 50.462 13.5095 51.5827 13.5095C51.4187 12.3286 51.3308 11.1188 51.062 9.95054C50.8592 9.06869 51.0402 8.50647 51.8374 8.09582C52.2027 7.90766 52.5231 7.63222 52.8183 7.42785C53.5986 9.11925 53.1134 10.8425 53.2083 12.5283C53.3051 14.2497 53.2297 15.9808 53.2297 17.7757C53.007 17.7757 52.7366 17.7757 52.3798 17.7757Z" fill="#363F4D"/>
<path id="Vector_4" d="M3.95576 39.2793C2.65039 39.2792 1.43484 39.2792 0.0339982 39.2792C0.153315 38.9614 0.187163 38.5744 0.338129 38.5214C0.934313 38.3125 0.869592 37.869 0.868711 37.4104C0.864252 35.0963 0.866914 32.7823 0.868543 30.4682C0.868884 29.9857 0.950776 29.4969 0.321956 29.2622C0.167781 29.2047 0.130021 28.8351 0 28.5131C2.04738 28.5131 3.95222 28.5131 6.14311 28.5131C5.88285 28.883 5.71032 29.139 5.52614 29.3863C5.39056 29.5684 5.12202 29.7347 5.11514 29.9157C5.07533 30.9614 5.09572 32.0093 5.29518 33.1159C6.15158 31.9627 7.00797 30.8094 7.90585 29.6002C7.67095 29.4437 7.47579 29.3577 7.34551 29.2132C7.23699 29.0928 7.10838 28.848 7.16057 28.758C7.24354 28.615 7.46739 28.4779 7.6356 28.473C8.54824 28.4462 9.46257 28.4461 10.3751 28.4751C10.5313 28.4801 10.7963 28.66 10.8064 28.7768C10.82 28.9341 10.6676 29.1442 10.53 29.2698C9.82923 29.9095 9.08766 30.5064 8.41562 31.1739C8.27015 31.3184 8.24985 31.7362 8.34465 31.9523C9.19758 33.897 10.0798 35.8291 10.9804 37.7523C11.0995 38.0065 11.3835 38.1792 11.5661 38.4094C11.7014 38.5801 11.7962 38.7829 11.9091 38.9713C11.7249 39.0739 11.5419 39.2628 11.3562 39.2656C9.77663 39.2893 8.19656 39.2791 6.35603 39.2791C6.63018 38.7951 6.81735 38.4646 7.07884 38.0029C6.62651 37.0408 6.10193 35.925 5.57736 34.8092C5.50444 34.8043 5.43152 34.7993 5.35859 34.7944C5.26972 35.0736 5.12147 35.3491 5.10404 35.6327C5.06488 36.2698 5.04998 36.9145 5.10842 37.5485C5.13473 37.8338 5.36624 38.098 5.49342 38.3769C5.59574 38.6013 5.68117 38.8334 5.77408 39.0621C5.56328 39.1342 5.35651 39.2483 5.14077 39.269C4.7787 39.3037 4.41094 39.279 3.95576 39.2793Z" fill="#363F4D"/>
<path id="Vector_5" d="M13.205 38.3619C13.2929 36.1464 13.323 33.9894 13.3497 31.8324C13.3557 31.3453 13.343 30.8581 13.3513 30.3711C13.3597 29.8805 13.4195 29.3957 12.7834 29.1846C12.6546 29.1419 12.625 28.8004 12.499 28.4599C13.98 28.4599 15.313 28.4389 16.6436 28.4869C16.8066 28.4928 17.0677 28.8565 17.0908 29.0748C17.1533 29.6662 17.1122 30.2686 17.1122 30.969C17.662 30.7441 18.0876 30.4952 18.5453 30.3997C19.2794 30.2466 20.0425 30.0778 20.7794 30.1262C22.1286 30.2147 22.6264 30.8461 22.6289 32.2009C22.6318 33.784 22.6248 35.3671 22.6316 36.9501C22.6344 37.5943 22.4609 38.291 23.1517 38.7527C23.2239 38.8009 23.174 39.0318 23.1851 39.2731C22.0298 39.2731 20.9099 39.3096 19.794 39.2596C19.117 39.2292 18.913 38.7291 18.9161 38.1036C18.9249 36.277 18.907 34.4502 18.9242 32.6237C18.9299 32.0133 18.8698 31.4927 18.0907 31.5143C17.3573 31.5347 17.0523 31.8725 17.0945 32.6649C17.1656 34.0007 17.1076 35.343 17.1144 36.6825C17.1183 37.4455 16.9228 38.2636 17.6821 38.8382C17.7393 38.8816 17.6896 39.0662 17.6896 39.2326C16.0299 39.2326 14.4001 39.2326 12.5094 39.2326C12.7975 38.865 12.9717 38.6426 13.205 38.3619Z" fill="#363F4D"/>
<path id="Vector_6" d="M78.5355 30.1409C79.2763 30.0659 79.1747 30.5285 79.1748 30.9164C79.1754 33.0495 79.1764 35.1826 79.1743 37.3157C79.1738 37.8556 79.0681 38.4235 79.7478 38.6993C79.8365 38.7353 79.8255 39.0168 79.8717 39.2375C78.4212 39.2375 77.0267 39.2375 75.5545 39.2375C75.4939 39.0322 75.4247 38.7978 75.4266 38.8043C74.0744 38.9754 72.8058 39.2669 71.5394 39.2576C70.3848 39.2491 69.9427 38.6558 69.9163 37.4793C69.8773 35.7433 69.9028 34.0058 69.8939 32.269C69.8912 31.748 70.0569 31.1669 69.3436 30.8961C69.2365 30.8554 69.2571 30.4786 69.207 30.1906C70.7065 30.1906 72.0984 30.1906 73.6043 30.1906C73.6172 30.475 73.6412 30.7636 73.6417 31.0522C73.6452 33.0025 73.6561 34.9528 73.637 36.9029C73.6305 37.5717 73.8693 37.9652 74.5736 37.951C75.2626 37.9371 75.4852 37.5793 75.4605 36.8879C75.4086 35.4271 75.4564 33.963 75.4392 32.5005C75.4322 31.8979 75.672 31.198 74.8735 30.8371C74.7846 30.7969 74.7235 30.4364 74.7951 30.3588C74.9146 30.2294 75.1507 30.1546 75.3394 30.151C76.3752 30.1317 77.4114 30.1411 78.5355 30.1409Z" fill="#363F4D"/>
<path id="Vector_7" d="M63.3887 30.0712C64.376 30.2057 65.2975 30.2553 66.1666 30.4951C67.3711 30.8273 67.7522 31.448 67.7528 32.7043C67.7534 34.1973 67.7428 35.6905 67.7562 37.1834C67.7605 37.6696 67.5672 38.2374 68.1969 38.5495C68.2218 38.5618 68.0663 39.1852 67.9474 39.2028C66.571 39.4061 65.1624 39.6818 63.9235 38.5245C62.7952 39.205 61.5422 39.5594 60.1551 39.2926C59.0105 39.0725 58.2757 38.379 58.1001 37.2742C57.8509 35.7074 58.2627 34.5615 59.4336 34.1212C60.6773 33.6535 61.9747 33.3005 63.2752 33.0215C64.24 32.8146 64.0617 32.1429 63.9738 31.5693C63.9326 31.3006 63.5443 30.9358 63.2628 30.8828C62.5611 30.7507 62.2515 31.1676 62.1358 31.8673C62.0856 32.1714 61.7484 32.587 61.4652 32.6616C60.8296 32.829 60.1388 32.8981 59.4852 32.8405C59.1369 32.8098 58.6224 32.4867 58.5414 32.1958C58.4546 31.8842 58.6874 31.2492 58.9583 31.1156C59.8127 30.6943 60.7362 30.3879 61.6614 30.1453C62.1784 30.0097 62.7516 30.0887 63.3887 30.0712ZM63.4334 37.9817C63.6184 37.7323 63.9504 37.4901 63.9631 37.232C64.0209 36.0663 63.9884 34.8961 63.9884 33.7173C62.5578 33.9408 62.2273 34.2784 62.1598 35.5741C62.1346 36.0574 62.1438 36.5445 62.17 37.0281C62.2073 37.715 62.536 38.104 63.4334 37.9817Z" fill="#363F4D"/>
<path id="Vector_8" d="M28.4386 33.2061C29.0094 33.0627 29.5056 32.9301 30.0936 32.7729C30.0936 32.4133 30.0937 32.056 30.0936 31.6987C30.0933 31.2172 29.9546 30.8555 29.3816 30.8516C28.8212 30.8477 28.2878 30.9344 28.2932 31.6395C28.2989 32.3865 27.8796 32.6832 27.2447 32.7637C26.6745 32.8361 26.0858 32.9139 25.5241 32.8423C25.1916 32.8 24.6986 32.5221 24.6327 32.2606C24.5496 31.9311 24.7376 31.4341 24.976 31.1495C25.2314 30.8446 25.6569 30.6221 26.0504 30.5032C28.0755 29.8911 30.1277 29.8697 32.1529 30.4719C33.3398 30.8248 33.8881 31.4128 33.8154 32.7147C33.734 34.1708 33.7841 35.6351 33.8035 37.0955C33.8103 37.6054 33.5864 38.21 34.2506 38.5472C34.2753 38.5597 34.11 39.1916 33.9895 39.2078C32.6161 39.3919 31.2008 39.7055 29.992 38.5074C28.8461 39.2215 27.5906 39.5508 26.2096 39.2898C25.0076 39.0626 24.3664 38.4127 24.1889 37.17C23.9611 35.5759 24.3409 34.5792 25.5053 34.106C26.4265 33.7316 27.4089 33.5076 28.4386 33.2061ZM30.0984 34.1582C30.0887 34.0091 30.0791 33.86 30.0693 33.709C28.5786 33.9206 28.2906 34.2345 28.268 35.6619C28.2613 36.0855 28.273 36.5094 28.2654 36.9329C28.2543 37.552 28.4181 38.0167 29.1568 38.0206C29.8832 38.0245 30.085 37.5633 30.0932 36.9519C30.1049 36.0744 30.0974 35.1966 30.0984 34.1582Z" fill="#363F4D"/>
<path id="Vector_9" d="M94.9878 30.6775C96.929 31.8963 97.5916 33.6543 97.0437 35.9952C96.6298 37.7636 95.0974 39.0986 93.1236 39.2723C92.2285 39.351 91.2778 39.3723 90.4173 39.1584C88.092 38.5803 87.0179 36.8501 87.2006 34.2474C87.3628 31.9367 88.8244 30.406 91.1875 30.1227C92.4723 29.9687 93.7378 30.0598 94.9878 30.6775ZM91.2671 37.7296C91.3419 38.3358 91.6756 38.7804 92.2777 38.5407C92.6113 38.4078 92.9805 37.8749 92.9941 37.5096C93.0651 35.6007 93.0237 33.6877 93.0299 31.7762C93.0315 31.2495 92.8568 30.892 92.275 30.8488C91.6837 30.8048 91.3579 31.0813 91.2862 31.6623C91.2603 31.8722 91.2377 32.0843 91.2377 32.2953C91.237 34.0551 91.242 35.8149 91.2671 37.7296Z" fill="#363F4D"/>
<path id="Vector_10" d="M12.2514 12.8641C12.2612 14.5242 12.2612 16.1032 12.2612 17.764C12.0729 17.7841 11.8443 17.8292 11.6155 17.8297C9.2727 17.8352 6.92982 17.8384 4.58699 17.8319C3.04195 17.8276 1.90992 17.1163 1.39929 15.852C0.898708 14.6126 1.30236 12.3833 2.19363 11.5606C2.31027 11.4529 2.50267 11.4273 2.84481 11.289C2.79419 11.6799 2.77425 11.9221 2.72998 12.1599C2.56836 13.0275 2.97921 13.6107 3.86481 13.6212C6.14206 13.648 8.41985 13.6301 10.9849 13.6301C10.4934 12.9513 10.1208 12.4365 9.70968 11.8687C10.2945 11.4137 10.8876 10.9523 11.6654 10.3472C11.8783 11.2468 12.0599 12.0149 12.2514 12.8641Z" fill="#363F4D"/>
<path id="Vector_11" d="M45.6702 36.9987C45.6339 37.9346 45.957 38.5049 46.8747 38.5884C47.9381 38.6851 48.7451 38.1411 48.9377 37.211C49.0957 36.4484 49.8038 36.0557 50.4947 36.4325C50.6809 36.5341 50.8173 37.0047 50.7508 37.2429C50.4931 38.1669 49.767 38.7061 48.9146 39.0063C47.3106 39.5712 45.6807 39.5477 44.1106 38.8807C42.2026 38.0703 41.3478 36.5025 41.5311 34.3147C41.7123 32.1526 42.8326 30.7272 44.8596 30.2867C45.7064 30.1027 46.6208 30.048 47.4811 30.144C49.7804 30.4008 50.944 31.9657 50.7869 34.5492C49.9604 34.5492 49.1215 34.5492 48.2827 34.5492C47.4391 34.5492 46.5955 34.5492 45.6698 34.5492C45.6698 35.4074 45.6698 36.1612 45.6702 36.9987ZM45.6675 31.9149C45.6675 32.5143 45.6675 33.1138 45.6675 33.7493C46.24 33.7493 46.7348 33.7493 47.3003 33.7493C47.3003 33.0723 47.2893 32.4418 47.3037 31.812C47.3153 31.3063 47.2257 30.8965 46.6119 30.8509C45.9658 30.8028 45.6375 31.0876 45.6675 31.9149Z" fill="#363F4D"/>
<path id="Vector_12" d="M39.8118 31.3917C39.8119 33.0064 39.7745 34.5311 39.8248 36.053C39.8594 37.1015 40.0155 38.1461 40.121 39.2313C38.7234 39.2313 37.1187 39.2313 35.4135 39.2313C35.4346 39.0108 35.3965 38.6324 35.4858 38.5995C36.3019 38.2987 36.0717 37.6222 36.0754 37.0499C36.0893 34.8866 36.0844 32.7233 36.0792 30.56C36.0778 30.0031 36.246 29.3768 35.4935 29.0963C35.4109 29.0656 35.4248 28.7759 35.3799 28.5288C36.8546 28.5288 38.2672 28.5288 39.8118 28.5288C39.8118 29.4383 39.8118 30.3694 39.8118 31.3917Z" fill="#363F4D"/>
<path id="Vector_13" d="M85.12 35.231C85.1199 35.8698 85.1182 36.4174 85.12 36.965C85.1223 37.646 84.9461 38.3992 85.9012 38.6646C86.0105 38.6949 86.0434 39.0006 86.1506 39.2802C84.8175 39.2802 83.603 39.3181 82.3922 39.2677C81.5026 39.2306 81.3664 38.5139 81.3587 37.8211C81.3359 35.7831 81.3564 33.7446 81.3436 31.7064C81.3414 31.3599 81.5352 30.8527 80.8576 30.8492C80.8456 30.8492 80.8062 30.2036 80.8295 30.2002C82.0744 30.0182 83.1235 29.5437 83.9178 28.5032C84.0509 28.3287 84.6089 28.4786 85.0749 28.4786C85.0986 29.0033 85.1212 29.5036 85.1369 29.8509C85.5705 30.1153 85.9078 30.3209 86.245 30.5265C85.9195 30.7054 85.594 30.8844 85.12 31.145C85.12 32.3611 85.12 33.7504 85.12 35.231Z" fill="#363F4D"/>
<path id="Vector_14" d="M56.4577 36.3255C56.4578 36.477 56.4578 36.5378 56.4578 36.5986C56.4585 39.6391 55.3478 40.7903 52.2893 40.9134C51.9898 40.9255 51.6894 40.915 51.21 40.7324C51.3988 40.5403 51.5567 40.2409 51.7823 40.1756C52.5266 39.9602 52.7802 39.4821 52.776 38.7549C52.7629 36.4757 52.7895 34.1961 52.7509 31.9175C52.7452 31.5802 52.4747 31.2455 52.3186 30.9135C52.2201 30.704 52.1065 30.5017 51.9471 30.1948C53.5291 30.1948 54.9399 30.1948 56.4577 30.1948C56.4577 32.2435 56.4577 34.2392 56.4577 36.3255Z" fill="#363F4D"/>
<path id="Vector_15" d="M20.2496 12.7404C20.4434 12.509 20.598 12.3318 20.7532 12.1541C22.7038 13.9391 23.0351 17.5225 21.4209 19.5C20.616 20.486 19.7322 21.1635 18.1586 20.4261C17.4097 20.0752 16.6685 19.7078 15.9238 19.3479C15.9506 19.2476 15.9773 19.1473 16.004 19.047C16.2512 19.0277 16.4981 19.0028 16.7457 18.99C18.4737 18.9008 19.7801 18.0131 20.8664 16.758C20.9975 16.6065 20.9971 16.1658 20.8717 15.9987C20.382 15.3463 19.8175 14.7501 19.2194 14.0623C19.5208 13.6767 19.8657 13.2356 20.2496 12.7404Z" fill="#363F4D"/>
<path id="Vector_16" d="M94.517 7.67255C94.635 10.055 94.7264 12.3662 94.8721 14.674C94.9705 16.2334 94.444 17.4617 93.0538 18.4155C92.935 16.8115 92.8126 15.2618 92.7076 13.7108C92.6151 12.3446 92.5787 10.9735 92.4453 9.61166C92.3742 8.88556 92.5726 8.40738 93.2299 8.07722C93.6065 7.88807 93.9329 7.60015 94.2933 7.3749C94.3124 7.36298 94.4377 7.52097 94.517 7.67255Z" fill="#363F4D"/>
<path id="Vector_17" d="M14.3891 15.5055C14.2598 13.5064 14.1718 11.5898 13.9902 9.68208C13.9171 8.91449 14.1077 8.41665 14.7966 8.0659C15.197 7.86206 15.5494 7.56397 16.0151 7.24561C16.0773 7.76922 16.1609 8.22832 16.1816 8.69024C16.2744 10.7583 16.3377 12.8278 16.4342 14.8957C16.504 16.3912 15.903 17.5252 14.5964 18.4285C14.525 17.4341 14.4589 16.5128 14.3891 15.5055Z" fill="#363F4D"/>
<path id="Vector_18" d="M54.994 29.5896C54.2503 29.5845 53.5802 29.6031 52.9178 29.5405C52.7289 29.5226 52.5386 29.2878 52.4011 29.1117C52.3641 29.0642 52.4901 28.8354 52.5905 28.7437C53.3042 28.091 55.8071 28.0896 56.8727 28.9125C56.1776 29.1709 55.6241 29.3766 54.994 29.5896Z" fill="#363F4D"/>
<path id="Vector_19" d="M69.9523 19.4792C70.1755 19.2702 70.3505 19.1073 70.5483 18.9231C70.909 19.1922 71.2415 19.4403 71.6072 19.7132C71.8947 19.4449 72.1571 19.2002 72.4931 18.8867C72.8302 19.154 73.1733 19.426 73.5749 19.7445C73.214 20.0873 72.9107 20.3753 72.5493 20.7186C72.206 20.4758 71.8695 20.2379 71.4879 19.9679C71.2113 20.1967 70.9355 20.4248 70.5737 20.7241C70.473 20.2329 69.2052 20.5376 69.9523 19.4792Z" fill="#363F4D"/>
<path id="Vector_20" d="M29.2432 20.6526C28.9012 20.4026 28.6222 20.1819 28.2471 19.8854C28.6284 19.5559 28.9669 19.2635 29.3298 18.95C29.6445 19.1878 29.9782 19.44 30.3386 19.7123C30.6451 19.4322 30.9272 19.1744 31.2396 18.8889C31.5986 19.1731 31.9241 19.4307 32.2361 19.6778C31.916 20.0451 31.6287 20.375 31.3135 20.7367C30.9359 20.4682 30.597 20.2272 30.2374 19.9715C29.9182 20.2151 29.6122 20.4486 29.2432 20.6526Z" fill="#363F4D"/>
<path id="Vector_21" d="M8.4913 10.0256C8.65643 10.1655 8.76919 10.2638 8.8525 10.3364C8.56392 10.6851 8.28775 11.0188 7.98104 11.3894C7.58803 11.1176 7.24982 10.8837 6.87433 10.624C6.59377 10.8677 6.32626 11.1001 5.99712 11.386C5.66161 11.1354 5.33477 10.8912 4.88965 10.5587C5.2873 10.215 5.62023 9.92722 5.97725 9.61865C6.31154 9.8576 6.65063 10.1 6.97818 10.3341C7.47201 10.1657 7.7351 9.13999 8.4913 10.0256Z" fill="#363F4D"/>
<path id="Vector_22" d="M83.2207 7.37461C83.5248 7.62738 83.7807 7.83817 84.1094 8.10901C83.6969 8.49005 83.306 8.85108 82.8951 9.23058C82.4931 8.91735 82.0927 8.60543 81.5586 8.18929C82.2289 8.01378 82.2022 6.89791 83.2207 7.37461Z" fill="#363F4D"/>
<path id="Vector_23" d="M63.7998 16.8085C63.5091 16.8724 63.219 16.9795 63.0303 16.8847C62.6912 16.7143 62.4128 16.4229 62.0654 16.1474C62.4968 15.7487 62.8855 15.3894 63.304 15.0024C63.7344 15.3571 64.1213 15.6759 64.692 16.1463C64.3714 16.3792 64.1087 16.57 63.7998 16.8085Z" fill="#363F4D"/>
</g>
<path id="Vector_24" d="M108.446 27.3068C108.457 26.2785 108.43 25.1782 108.429 24.0778C108.428 22.7816 108.45 21.4854 108.449 20.0996C107.904 22.4171 108.046 24.8257 108.446 27.3068Z" fill="#04A79D"/>
<path id="Vector_25" d="M108.949 28.9779C108.902 28.5755 108.787 28.1719 108.619 27.7405C108.671 28.134 108.776 28.5553 108.949 28.9779Z" fill="#04A79D"/>
</g>
</svg>
