<svg width="202" height="46" viewBox="0 0 202 46" fill="none" xmlns="http://www.w3.org/2000/svg">
<g id="Group 1000006777">
<path id="Vector" d="M194.066 6.57188C197.924 10.2418 200.233 14.6798 200.951 19.9295C201.356 22.8905 201.142 25.8157 200.392 28.7082C200.296 29.08 200.122 29.185 199.767 29.197C198.245 29.2482 196.746 29.142 195.29 28.6549C192.493 27.7189 190.843 25.7581 190.317 22.8974C190.093 21.6821 189.169 21.2248 188.077 21.8708C187.791 22.0396 187.515 22.2397 187.274 22.4674C185.09 24.5342 182.222 25.0073 179.485 23.7855C177.339 22.8279 175.615 21.3348 174.064 19.6186C173.373 18.854 172.711 18.0579 172.103 17.2264C171.687 16.6564 171.39 15.9994 171.036 15.3834C170.33 14.1554 169.548 12.9876 168.434 12.0803C167.341 11.1904 166.221 11.0252 165.214 11.6139C164.22 12.1945 163.624 13.4912 163.897 14.7518C164.063 15.5219 164.31 16.3089 164.693 16.9916C165.843 19.0418 167.268 20.8974 168.986 22.5118C169.364 22.867 169.802 23.1668 170.244 23.4418C170.472 23.5838 170.542 23.7265 170.571 23.9838C170.727 25.398 170.906 26.8099 171.093 28.2204C171.129 28.4882 171.237 28.7463 171.381 28.9981C171.424 28.3777 171.465 27.7571 171.512 27.1369C171.522 27.007 171.545 26.8773 171.573 26.7498C171.884 25.301 172.323 24.9772 173.783 25.1166C175.212 25.2529 175.979 25.9854 175.986 27.2679C175.988 27.639 175.897 28.0118 175.836 28.3818C175.719 29.0965 175.516 29.8069 175.489 30.5244C175.453 31.466 175.886 31.7528 176.815 31.6109C178.096 31.4153 179.386 31.2576 180.678 31.4751C181.32 31.583 181.939 31.8199 182.58 31.9284C184.024 32.1726 184.807 31.568 185.164 30.1452C185.427 29.0939 185.766 28.052 186.177 27.0497C186.656 25.885 187.75 25.5776 188.869 25.449C189.45 25.3823 189.921 25.7391 190.172 26.2467C190.414 26.7347 190.587 27.2671 190.718 27.7978C191.188 29.7125 191.988 31.4421 193.431 32.8274C194.551 33.9028 195.897 34.4386 197.443 34.4885C197.558 34.4922 197.672 34.5035 197.795 34.5118C195.039 39.5259 187.959 45.3651 178.409 45.1751C168.613 44.9801 160.087 38.4364 157.407 29.0127C154.611 19.1759 158.72 9.10526 167.049 3.95951C175.76 -1.42161 186.658 -0.327534 194.066 6.57188Z" fill="#03A19C"/>
<g id="Group 1000006780">
<path id="Vector_2" d="M46.8964 12.791C46.8964 11.673 46.8964 10.5986 46.8964 9.49239C47.5344 9.49239 48.1501 9.49239 48.7715 9.49239C48.7822 9.50891 48.8101 9.532 48.8101 9.55506C48.8083 11.3585 48.8167 13.1621 48.7948 14.9654C48.7851 15.7584 48.8529 15.9536 49.6396 16.1151C50.3126 16.2533 51.0117 16.2643 51.7467 16.3362C51.7467 13.1784 51.7467 10.117 51.7467 7.02803C52.4026 7.02803 53.0196 7.02803 53.6756 7.02803C53.6756 10.0907 53.6756 13.1531 53.6756 16.2444C54.622 16.2444 55.5306 16.2444 56.4944 16.2444C56.4944 13.182 56.4944 10.1101 56.4944 7.01953C57.4617 7.01953 58.3742 7.01953 59.3187 7.01953C59.3187 7.63894 59.3187 8.25554 59.3187 8.92507C59.0478 8.92507 58.7669 8.92507 58.4489 8.92507C58.4489 12.0396 58.4489 15.102 58.4489 18.148C58.3865 18.1765 58.3616 18.1978 58.3367 18.1978C55.6896 18.2004 53.0425 18.2116 50.3955 18.1965C49.5161 18.1915 48.7391 17.9066 48.1917 17.0847C47.455 18.043 46.4466 18.3276 45.333 18.3414C44.2053 18.3553 43.201 18.0716 42.5017 17.0517C41.8694 17.5986 41.1926 18.029 40.3649 18.1483C40.15 18.1792 39.9316 18.2015 39.7148 18.2017C34.1729 18.2048 28.6311 18.2044 23.0893 18.2043C23.0323 18.2043 22.9754 18.1995 22.8887 18.1957C22.8887 14.4759 22.8887 10.7635 22.8887 7.02559C23.5046 7.02559 24.1218 7.02559 24.7768 7.02559C24.7768 10.0933 24.7768 13.1561 24.7768 16.2461C26.2468 16.2461 27.6799 16.2461 29.1602 16.2461C29.1602 14.334 29.1602 12.41 29.1602 10.4562C29.824 10.4562 30.4416 10.4562 31.1069 10.4562C31.1069 12.3716 31.1069 14.2973 31.1069 16.248C32.8907 16.248 34.6274 16.248 36.4034 16.248C36.4034 14.5409 36.4034 12.8469 36.4034 11.1326C37.0596 11.1326 37.6768 11.1326 38.3349 11.1326C38.3349 12.8398 38.3349 14.5337 38.3349 16.3007C39.0101 16.2684 39.6518 16.2942 40.2733 16.194C41.1099 16.0592 41.5495 15.4842 41.56 14.6318C41.5726 13.6137 41.5645 12.5955 41.5654 11.5773C41.5655 11.4354 41.5654 11.2935 41.5654 11.132C42.2208 11.132 42.8384 11.132 43.4992 11.132C43.4992 12.1287 43.4942 13.1131 43.502 14.0974C43.5045 14.4161 43.5154 14.7386 43.5659 15.0524C43.6905 15.8274 44.2358 16.3174 45.0111 16.3853C46.2002 16.4894 46.8661 15.9021 46.8916 14.7108C46.905 14.0857 46.8955 13.4601 46.8964 12.791Z" fill="#363F4D"/>
<path id="Vector_3" d="M70.3155 11.0006C71.9092 12.4702 71.9625 14.2989 71.6159 16.2474C72.9402 16.2474 74.2408 16.2474 75.5856 16.2474C75.5856 14.3345 75.5856 12.4098 75.5856 10.4556C76.2455 10.4556 76.8625 10.4556 77.5276 10.4556C77.5276 12.3673 77.5276 14.2916 77.5276 16.2443C78.7566 16.2443 79.9381 16.2443 81.1575 16.2443C81.1575 13.1693 81.1575 10.1064 81.1575 7.02173C81.8142 7.02173 82.4332 7.02173 83.0877 7.02173C83.0877 10.0972 83.0877 13.159 83.0877 16.247C85.3125 16.247 87.5021 16.247 89.731 16.247C89.9133 15.4079 90.0711 14.5514 89.8877 13.6837C89.7117 12.8514 89.1831 12.3397 88.3359 12.1708C87.3916 11.9826 86.5175 12.1633 85.6615 12.6925C85.3917 12.1356 85.1295 11.5946 84.8464 11.0103C86.469 10.1623 88.138 9.69273 89.8047 10.6261C92.0405 11.8781 92.0685 14.0119 91.7266 16.2434C92.5785 16.2434 93.4107 16.2434 94.2795 16.2434C94.2795 13.184 94.2795 10.1222 94.2795 7.0301C95.252 7.0301 96.1885 7.0301 97.1308 7.0301C97.1308 7.65889 97.1308 8.27786 97.1308 8.93394C96.8405 8.93394 96.5712 8.93394 96.2641 8.93394C96.2641 12.0323 96.2641 15.0936 96.2641 18.1938C86.2854 18.1938 76.3451 18.1938 66.376 18.1938C66.2912 19.0628 66.6106 19.7854 67.0026 20.5379C66.5082 20.7694 66.0274 20.9946 65.5158 21.2342C64.4114 19.7354 64.2396 18.0707 64.5129 16.279C66.2201 16.279 67.9033 16.279 69.6161 16.279C69.8145 15.4483 69.9404 14.6309 69.8043 13.8072C69.6272 12.7355 68.8989 12.1577 67.7529 12.1021C66.9762 12.0644 66.2569 12.2453 65.5615 12.7007C65.2893 12.1369 65.0275 11.5945 64.7668 11.0545C66.3029 10.0175 68.7555 9.73066 70.3155 11.0006Z" fill="#363F4D"/>
<path id="Vector_4" d="M108.077 12.1045C108.971 10.969 110.181 10.5592 111.529 10.4447C111.787 10.4228 112.048 10.4415 112.336 10.4415C112.353 10.1924 112.368 9.98321 112.384 9.75372C113.021 9.75372 113.64 9.75372 114.293 9.75372C114.293 11.9093 114.293 14.0581 114.293 16.24C117.515 16.24 120.703 16.24 123.977 16.24C123.94 15.5407 123.961 14.8279 123.851 14.1358C123.731 13.377 123.138 12.9828 122.283 12.9798C120.523 12.9738 118.764 12.9691 117.004 12.9861C116.696 12.9891 116.493 12.9041 116.398 12.6239C116.246 12.1742 116.098 11.7215 115.987 11.2609C115.954 11.1278 116.023 10.9475 116.094 10.8154C116.73 9.6411 117.382 8.47501 118.018 7.30058C118.135 7.08466 118.267 6.98354 118.526 6.9936C119.077 7.015 119.628 7.00014 120.265 7.00014C119.548 8.36673 118.861 9.67786 118.143 11.0483C119.478 11.0483 120.739 11.0388 121.999 11.0534C122.447 11.0586 122.906 11.0742 123.341 11.168C124.981 11.521 125.795 12.5323 125.861 14.3529C125.907 15.6156 125.87 16.8814 125.87 18.1776C125.763 18.1864 125.652 18.2034 125.541 18.2035C121.033 18.2042 116.524 18.222 112.016 18.1851C111.247 18.1788 110.44 18.0459 109.718 17.7859C107.412 16.9563 106.609 14.1178 108.077 12.1045ZM112.347 16.217C112.347 14.9348 112.347 13.6527 112.347 12.2463C111.672 12.3774 111.046 12.4266 110.473 12.6278C109.679 12.9065 109.263 13.6307 109.301 14.43C109.337 15.2015 109.816 15.878 110.61 16.0865C111.146 16.2272 111.723 16.2134 112.347 16.217Z" fill="#363F4D"/>
<path id="Vector_5" d="M140.27 11.4014C140.349 11.2761 140.426 11.1257 140.508 11.1226C141.057 11.1014 141.607 11.1116 142.2 11.1116C142.2 12.0058 142.199 12.8743 142.2 13.7428C142.2 14.0773 142.186 14.4131 142.21 14.746C142.304 16.0385 143.426 16.7446 144.646 16.2897C145.252 16.0639 145.589 15.5117 145.593 14.6723C145.601 12.9572 145.595 11.2419 145.595 9.49341C146.226 9.49341 146.843 9.49341 147.471 9.49341C147.478 9.50213 147.511 9.52486 147.511 9.54733C147.495 11.4659 147.581 13.3926 147.433 15.301C147.264 17.4598 145.892 18.4819 143.713 18.3401C142.69 18.2736 141.808 17.9597 141.196 17.045C140.564 17.6068 139.869 18.0391 139.023 18.155C138.751 18.1923 138.473 18.2023 138.197 18.2027C135.784 18.2063 133.37 18.2048 130.927 18.2048C130.88 18.5135 130.847 18.8119 130.789 19.1056C130.492 20.6247 129.697 21.3306 127.825 21.2259C127.147 21.188 127.148 21.1614 127.109 20.493C127.084 20.0759 127.06 19.6587 127.035 19.2322C127.408 19.2537 127.753 19.3065 128.094 19.2856C128.609 19.254 128.851 19.0122 128.921 18.4995C128.96 18.2126 128.965 17.9194 128.966 17.6291C128.969 15.4039 128.968 13.1787 128.968 10.9535C128.968 10.7955 128.968 10.6375 128.968 10.4531C129.629 10.4531 130.257 10.4531 130.914 10.4531C130.914 12.3862 130.914 14.3018 130.914 16.2452C132.314 16.2452 133.686 16.2452 135.098 16.2452C135.098 14.5429 135.098 12.8491 135.098 11.1336C135.756 11.1336 136.373 11.1336 137.031 11.1336C137.031 12.8379 137.031 14.5321 137.031 16.2442C137.648 16.2442 138.232 16.3028 138.799 16.2312C139.783 16.1071 140.26 15.5097 140.268 14.4987C140.276 13.4807 140.27 12.4626 140.27 11.4014Z" fill="#363F4D"/>
<path id="Vector_6" d="M10.3693 13.402C10.3693 15.0136 10.3693 16.5816 10.3693 18.1817C10.2486 18.1907 10.1526 18.2041 10.0565 18.2042C8.09359 18.2047 6.1303 18.2248 4.16795 18.1908C3.55071 18.1802 2.91062 18.1039 2.3251 17.9184C0.864875 17.4558 0.0884577 16.3985 0.0230463 14.8734C-0.0229774 13.8003 0.0141512 12.7236 0.0141512 11.6165C0.626539 11.6165 1.24296 11.6165 1.92504 11.6165C1.92504 11.8709 1.919 12.1403 1.92617 12.4094C1.94743 13.2072 1.93584 14.0084 2.00958 14.8015C2.07636 15.5197 2.56062 15.9296 3.23816 16.1053C3.51829 16.178 3.80911 16.2475 4.09578 16.2505C5.51825 16.2652 6.94096 16.2572 8.41119 16.2572C8.41119 14.3231 8.41119 12.399 8.41119 10.4504C9.07688 10.4504 9.69548 10.4504 10.3693 10.4504C10.3693 11.4192 10.3693 12.3888 10.3693 13.402Z" fill="#363F4D"/>
<path id="Vector_7" d="M110.459 30.9362C109.828 31.2186 109.487 31.6965 109.453 32.336C109.402 33.3219 109.405 34.3107 109.392 35.2984C109.385 35.8789 109.391 36.4596 109.391 37.0734C108.987 37.0734 108.605 37.0734 108.171 37.0734C108.171 36.7128 108.171 36.3549 108.171 35.9969C108.171 34.8483 108.171 33.6996 108.17 32.5509C108.17 32.4782 108.171 32.4055 108.169 32.3329C108.148 31.3465 107.831 30.9041 107.085 30.8186C106.245 30.7223 105.466 31.2317 105.285 32.0569C105.184 32.5211 105.151 33.0066 105.143 33.4834C105.124 34.6727 105.137 35.8625 105.137 37.0793C104.733 37.0793 104.362 37.0793 103.957 37.0793C103.957 34.711 103.957 32.3359 103.957 29.9364C104.301 29.9364 104.64 29.9364 105.017 29.9364C105.017 30.2208 105.017 30.4879 105.017 30.8573C105.63 30.1023 106.341 29.7367 107.218 29.7523C108.09 29.7678 108.815 30.0561 109.206 30.9729C109.722 30.2853 110.334 29.8529 111.164 29.7622C112.518 29.6141 113.451 30.2935 113.583 31.6477C113.668 32.5124 113.631 33.3895 113.637 34.2612C113.644 35.19 113.639 36.1189 113.639 37.0772C113.228 37.0772 112.845 37.0772 112.426 37.0772C112.426 35.7838 112.427 34.507 112.425 33.2302C112.424 32.8378 112.438 32.4432 112.403 32.0534C112.317 31.1125 111.76 30.6927 110.83 30.8427C110.716 30.8611 110.605 30.8971 110.459 30.9362Z" fill="#363F4D"/>
<path id="Vector_8" d="M7.03417 37.1074C6.81275 36.9976 6.5702 36.9305 6.45586 36.7713C5.41377 35.3207 4.39411 33.8539 3.36738 32.3923C3.3106 32.3114 3.24919 32.2338 3.16297 32.1187C2.63622 32.628 2.11988 33.1117 1.62732 33.6186C1.5453 33.703 1.54494 33.8879 1.54403 34.0266C1.5375 35.0291 1.54053 36.0317 1.54053 37.0707C1.11065 37.0707 0.699325 37.0707 0.258789 37.0707C0.258789 33.7986 0.258789 30.521 0.258789 27.2246C0.677872 27.2246 1.08049 27.2246 1.53916 27.2246C1.53916 28.814 1.53916 30.4017 1.53916 31.9894C1.57756 32.0092 1.61596 32.0289 1.65435 32.0486C2.26771 31.4199 2.87717 30.7874 3.49538 30.1635C4.3344 29.3168 5.19581 28.4916 6.01491 27.6262C6.32354 27.3001 6.63805 27.1542 7.08043 27.1991C7.41989 27.2336 7.76565 27.206 8.23338 27.206C6.80934 28.5852 5.47054 29.8819 4.08873 31.2202C5.51264 33.1575 6.9352 35.093 8.41577 37.1074C7.92182 37.1074 7.49716 37.1074 7.03417 37.1074Z" fill="#363F4D"/>
<path id="Vector_9" d="M56.7113 34.8109C57.0231 35.5764 57.3206 36.3117 57.6422 37.1065C57.1714 37.1065 56.7543 37.1266 56.3416 37.0929C56.233 37.0841 56.0926 36.9271 56.0439 36.8069C55.7281 36.0273 55.4236 35.2427 55.138 34.4515C55.0509 34.2104 54.9428 34.1111 54.6732 34.1147C53.5104 34.1306 52.3471 34.1295 51.1842 34.1152C50.9339 34.1121 50.8251 34.2033 50.7477 34.4271C50.4726 35.2222 50.173 36.009 49.9012 36.8052C49.8231 37.0339 49.7173 37.1306 49.4671 37.1126C49.1368 37.0887 48.8035 37.1067 48.4062 37.1067C48.4997 36.8352 48.5705 36.6072 48.6559 36.3847C49.7893 33.432 50.9276 30.4811 52.0543 27.5258C52.1465 27.2838 52.2606 27.1816 52.5257 27.2004C52.8721 27.225 53.2215 27.2064 53.595 27.2064C54.6303 29.7344 55.6636 32.2575 56.7113 34.8109ZM51.4367 33.055C52.4727 33.055 53.5087 33.055 54.5839 33.055C53.997 31.4696 53.435 29.9515 52.8783 28.4475C52.6319 29.181 52.394 29.9209 52.1343 30.6531C51.8726 31.3909 51.587 32.1201 51.3199 32.8561C51.3006 32.9091 51.3464 32.9859 51.4367 33.055Z" fill="#363F4D"/>
<path id="Vector_10" d="M117.643 30.2535C117.643 30.4172 117.643 30.5428 117.643 30.5907C118.125 30.3324 118.581 29.9569 119.095 29.8372C120.633 29.4798 121.964 30.2874 122.477 31.7858C122.802 32.7315 122.815 33.6926 122.618 34.6645C122.16 36.9281 119.63 38.1581 117.756 36.4834C117.756 37.6055 117.756 38.7027 117.756 39.8341C117.346 39.8341 116.964 39.8341 116.555 39.8341C116.555 36.5526 116.555 33.2623 116.555 29.913C116.851 29.913 117.152 29.893 117.448 29.9268C117.523 29.9354 117.579 30.1146 117.643 30.2535ZM119.136 30.7704C118.826 30.9993 118.436 31.1698 118.222 31.4674C117.424 32.579 117.502 33.824 117.875 35.052C118.104 35.8062 118.8 36.2605 119.517 36.2682C120.251 36.276 120.95 35.8162 121.224 35.0666C121.606 34.0237 121.62 32.954 121.237 31.9096C120.906 31.0066 120.09 30.5699 119.136 30.7704Z" fill="#363F4D"/>
<path id="Vector_11" d="M23.4816 29.8949C24.6051 30.2749 24.9574 30.7395 24.982 31.8871C25.0085 33.1225 24.9976 34.3591 25.0422 35.5937C25.0597 36.0771 25.1835 36.5567 25.2695 37.1063C24.9993 37.1063 24.6602 37.1292 24.3255 37.1009C23.8259 37.0587 24.0422 36.5469 23.8275 36.2915C23.6037 36.4429 23.3849 36.6053 23.1527 36.7454C22.2587 37.2848 21.2946 37.3882 20.2957 37.1448C19.4459 36.9377 18.8879 36.3123 18.7987 35.4734C18.706 34.6011 19.0276 33.9061 19.7838 33.4387C20.4762 33.0107 21.2742 32.9921 22.0462 32.8693C22.6158 32.7788 23.181 32.6615 23.7285 32.5598C23.8608 31.3429 23.4231 30.8184 22.2875 30.7665C22.0846 30.7572 21.8803 30.7626 21.6773 30.7729C20.8457 30.8149 20.3857 31.2878 20.207 32.1195C19.8057 32.0682 19.4252 32.0196 19.0079 31.9664C19.1736 31.0629 19.5955 30.3995 20.4475 30.0685C21.4257 29.6885 22.4301 29.6664 23.4816 29.8949ZM20.1182 35.4563C20.2918 35.6793 20.4217 35.9723 20.6468 36.1131C21.6239 36.7246 23.3299 36.0798 23.6357 34.9748C23.7642 34.5106 23.7521 34.0074 23.8042 33.5188C22.8467 33.7137 21.9528 33.8785 21.0675 34.0812C20.3216 34.2519 20.0608 34.6316 20.1182 35.4563Z" fill="#363F4D"/>
<path id="Vector_12" d="M125.146 31.8977C125.337 30.8547 125.93 30.2065 126.925 29.9379C127.796 29.7026 128.678 29.6717 129.555 29.8893C130.607 30.1504 131.08 30.7332 131.104 31.8113C131.129 32.9596 131.098 34.1095 131.138 35.2571C131.159 35.8568 131.28 36.4529 131.362 37.1063C131.106 37.1063 130.764 37.1334 130.428 37.0999C129.931 37.0504 130.172 36.5234 129.918 36.272C129.058 37.0498 128.034 37.3545 126.875 37.2386C125.833 37.1344 125.087 36.512 124.932 35.5962C124.757 34.5674 125.232 33.6238 126.262 33.2789C127.051 33.0146 127.904 32.9449 128.728 32.7828C129.109 32.7077 129.487 32.6187 129.851 32.5395C129.965 31.3126 129.519 30.8023 128.348 30.762C127.111 30.7195 126.741 30.9552 126.271 32.1307C125.908 32.0654 125.531 31.9977 125.146 31.8977ZM128.379 36.2244C129.585 35.8028 130.076 34.8874 129.837 33.5361C128.932 33.7199 128.023 33.885 127.123 34.0941C126.456 34.2492 126.169 34.657 126.213 35.2741C126.251 35.8228 126.637 36.2146 127.277 36.2813C127.618 36.3166 127.967 36.2625 128.379 36.2244Z" fill="#363F4D"/>
<path id="Vector_13" d="M32.1087 31.7174C32.8479 30.1045 34.4372 29.3971 36.142 29.8966C37.6576 30.3406 38.6024 32.0035 38.349 33.8269C36.602 33.8269 34.8494 33.8269 33.1004 33.8269C32.9589 35.4118 34.3081 36.5914 35.7551 36.1951C36.3358 36.0361 36.7098 35.6533 36.9323 35.1207C37.0466 34.8468 37.1767 34.7395 37.4838 34.8291C37.7436 34.9049 38.0244 34.909 38.3372 34.9503C38.1104 35.8219 37.6598 36.478 36.8869 36.8842C35.0925 37.8272 32.8486 37.11 32.1053 35.3681C31.7516 34.5392 31.7155 33.6737 31.8289 32.7998C31.8751 32.4438 32.0046 32.0987 32.1087 31.7174ZM36.2286 31.0687C35.517 30.6426 34.7867 30.6227 34.0838 31.051C33.4333 31.4473 33.1513 32.0715 33.1261 32.833C34.4658 32.833 35.7699 32.833 37.0973 32.833C37.0337 32.1406 36.8456 31.5362 36.2286 31.0687Z" fill="#363F4D"/>
<path id="Vector_14" d="M11.6411 32.6638C11.6378 34.1545 11.6378 35.6063 11.6378 37.0804C11.2046 37.0804 10.82 37.0804 10.4238 37.0804C10.4238 33.7875 10.4238 30.521 10.4238 27.2305C10.8145 27.2305 11.1862 27.2305 11.5979 27.2305C11.5979 28.3552 11.5979 29.4816 11.5979 30.6825C11.7216 30.5951 11.7896 30.5574 11.8454 30.5063C12.7156 29.7092 14.0318 29.5197 15.0946 30.0348C15.8816 30.4163 16.2048 31.1026 16.2207 31.9134C16.2542 33.6278 16.2309 35.3432 16.2309 37.0824C15.8396 37.0824 15.454 37.0824 15.0235 37.0824C15.0235 36.2621 15.0238 35.4524 15.0234 34.6427C15.023 33.9155 15.0297 33.1881 15.0192 32.4609C15.0044 31.4364 14.615 30.9396 13.7584 30.8265C12.8402 30.7052 12.0169 31.2159 11.7634 32.0718C11.71 32.2521 11.6833 32.4403 11.6411 32.6638Z" fill="#363F4D"/>
<path id="Vector_15" d="M20.2686 11.2228C20.2671 13.4884 20.2705 15.7107 20.2593 17.933C20.2574 18.3231 20.2275 18.7195 20.1534 19.1019C19.8479 20.6803 18.8455 21.3934 17.1957 21.233C16.5324 21.1686 16.5299 21.1688 16.4774 20.5146C16.4472 20.1383 16.4261 19.7612 16.4028 19.3844C16.4002 19.3428 16.4095 19.3005 16.4168 19.22C16.6748 19.2479 16.9256 19.2854 17.1776 19.3002C17.8714 19.3407 18.1744 19.1048 18.286 18.4255C18.3233 18.198 18.3294 17.9633 18.3297 17.7319C18.3327 15.466 18.3315 13.2002 18.3316 10.9343C18.3316 10.778 18.3316 10.6218 18.3316 10.446C18.9841 10.446 19.6012 10.446 20.2686 10.446C20.2686 10.6956 20.2686 10.9375 20.2686 11.2228Z" fill="#363F4D"/>
<path id="Vector_16" d="M101.151 31.8478C101.512 32.9648 101.5 34.0597 101.162 35.1348C100.729 36.5104 99.5012 37.2903 97.9193 37.2581C96.4032 37.2272 95.2713 36.3881 94.8771 34.9894C94.6116 34.047 94.6075 33.0915 94.8429 32.1474C95.2013 30.7101 96.2882 29.8601 97.8432 29.754C99.3494 29.6512 100.548 30.4009 101.151 31.8478ZM96.5944 35.6523C97.6681 36.654 99.2737 36.4141 99.8316 35.1208C100.279 34.0836 100.291 32.9894 99.8507 31.9416C99.5496 31.2245 98.9707 30.8034 98.1641 30.7621C97.3289 30.7194 96.6469 31.0452 96.3067 31.7998C95.7253 33.0894 95.7257 34.3841 96.5944 35.6523Z" fill="#363F4D"/>
<path id="Vector_17" d="M72.9222 34.051C72.8621 33.0998 72.9198 32.202 73.3579 31.3791C74.018 30.139 75.3825 29.5605 76.9839 29.8143C78.2267 30.0112 79.2793 31.0373 79.5159 32.3236C79.7081 33.3684 79.7146 34.4201 79.2868 35.4107C78.6972 36.7757 77.2627 37.4613 75.6253 37.2218C74.2232 37.0168 73.207 35.9639 72.9796 34.4799C72.9598 34.3506 72.9442 34.2206 72.9222 34.051ZM78.205 32.2534C77.8007 31.1815 77.1079 30.6971 76.0768 30.7655C75.1631 30.8261 74.4383 31.4598 74.2845 32.5374C74.1825 33.2523 74.2069 34.0158 74.3404 34.7264C74.5234 35.6994 75.3431 36.2747 76.2849 36.268C77.2031 36.2615 77.9486 35.6752 78.2044 34.7304C78.4204 33.9324 78.429 33.1267 78.205 32.2534Z" fill="#363F4D"/>
<path id="Vector_18" d="M12.9473 11.3944C12.9473 9.91509 12.9473 8.47941 12.9473 7.02173C13.5989 7.02173 14.2179 7.02173 14.8633 7.02173C14.8633 10.7428 14.8633 14.4545 14.8633 18.1856C14.236 18.1856 13.6171 18.1856 12.9473 18.1856C12.9473 15.9324 12.9473 13.6852 12.9473 11.3944Z" fill="#363F4D"/>
<path id="Vector_19" d="M144.655 37.8447C144.898 37.3923 144.873 36.9951 144.694 36.5374C143.882 34.4567 143.11 32.3601 142.325 30.2689C142.285 30.1623 142.255 30.0519 142.222 29.9462C142.253 29.9326 142.264 29.9234 142.276 29.9227C143.482 29.8488 143.483 29.8484 143.893 30.9945C144.43 32.4964 144.965 33.9993 145.51 35.5278C146.185 33.6585 146.859 31.7926 147.533 29.9249C147.938 29.9249 148.315 29.9249 148.722 29.9249C148.705 30.013 148.7 30.0939 148.673 30.1664C147.678 32.8298 146.688 35.4953 145.677 38.1525C145.519 38.5679 145.3 38.9724 145.042 39.3351C144.602 39.9565 143.958 40.1168 143.226 40.0024C142.956 39.96 142.773 39.8729 142.789 39.5401C142.8 39.3009 142.74 39.0582 142.711 38.8119C144.13 38.8723 144.266 38.8052 144.655 37.8447Z" fill="#363F4D"/>
<path id="Vector_20" d="M101.442 12.1801C101.442 14.1987 101.442 16.1736 101.442 18.1767C100.795 18.1767 100.166 18.1767 99.5195 18.1767C99.5195 14.4649 99.5195 10.7647 99.5195 7.03247C100.139 7.03247 100.756 7.03247 101.442 7.03247C101.442 8.72312 101.442 10.4298 101.442 12.1801Z" fill="#363F4D"/>
<path id="Vector_21" d="M64.117 34.8688C64.1613 33.5571 64.1957 32.2804 64.2253 31.0037C64.2333 30.6567 64.2265 30.3094 64.2265 29.9375C64.6268 29.9375 64.9977 29.9375 65.4052 29.9375C65.4052 32.3019 65.4052 34.6743 65.4052 37.0769C65.0707 37.0769 64.731 37.0769 64.3535 37.0769C64.3535 36.7859 64.3535 36.503 64.3535 36.2957C63.8289 36.5911 63.334 36.9844 62.771 37.1633C61.5547 37.5497 60.24 36.9702 59.8318 35.9492C59.7258 35.6842 59.6491 35.3875 59.6463 35.1045C59.6294 33.3916 59.6379 31.6785 59.6379 29.9388C60.029 29.9388 60.4126 29.9388 60.8488 29.9388C60.8488 30.3531 60.8482 30.7692 60.8489 31.1853C60.8505 32.2752 60.8427 33.3652 60.8572 34.4549C60.8717 35.5473 61.2297 36.0683 62.0101 36.1849C62.9979 36.3324 63.7677 35.8617 64.117 34.8688Z" fill="#363F4D"/>
<path id="Vector_22" d="M134.087 32.081C134.087 31.3434 134.087 30.6494 134.087 29.9342C134.472 29.9342 134.813 29.9342 135.192 29.9342C135.192 30.2163 135.192 30.4851 135.192 30.7866C135.27 30.7574 135.315 30.7546 135.336 30.7305C136.184 29.7188 137.269 29.5732 138.46 29.9116C139.262 30.1395 139.731 30.7067 139.85 31.531C139.907 31.9319 139.919 32.3417 139.921 32.7476C139.93 34.1849 139.925 35.6222 139.925 37.0831C139.511 37.0831 139.126 37.0831 138.704 37.0831C138.704 35.9023 138.705 34.7422 138.704 33.5821C138.704 33.175 138.711 32.7673 138.693 32.3609C138.636 31.1234 137.748 30.5218 136.563 30.9093C135.871 31.1358 135.449 31.6163 135.397 32.3331C135.331 33.2448 135.332 34.1617 135.317 35.0766C135.306 35.7298 135.315 36.3834 135.315 37.0717C134.912 37.0717 134.53 37.0717 134.087 37.0717C134.087 35.4252 134.087 33.7749 134.087 32.081Z" fill="#363F4D"/>
<path id="Vector_23" d="M90.2316 30.7654C89.0541 30.7664 88.3195 31.2653 88.1465 32.3638C88.0249 33.1356 88.0371 33.9599 88.1645 34.7318C88.3326 35.7503 89.082 36.2847 90.0343 36.2678C90.947 36.2515 91.5213 35.7164 91.7494 34.6713C91.7643 34.6032 91.7871 34.5369 91.8123 34.4483C92.2007 34.5029 92.5706 34.5549 92.9372 34.6065C92.9786 35.8615 91.7889 37.1063 90.4401 37.2397C88.5398 37.4276 87.2307 36.4833 86.849 34.6096C86.6515 33.6403 86.7049 32.6703 87.0429 31.7321C87.5393 30.3545 88.8583 29.5951 90.4109 29.7782C91.8006 29.9421 92.6304 30.6879 92.8554 32.0157C92.4744 32.0701 92.0943 32.1244 91.6995 32.1808C91.4865 31.4149 91.0923 30.8669 90.2316 30.7654Z" fill="#363F4D"/>
<path id="Vector_24" d="M68.2002 29.913C68.3699 29.913 68.4979 29.913 68.6676 29.913C68.6676 29.4313 68.6903 28.9839 68.6598 28.5401C68.6387 28.2331 68.7496 28.0548 69.0107 27.9206C69.2786 27.783 69.5329 27.619 69.8479 27.4343C69.8479 28.2727 69.8479 29.0606 69.8479 29.8968C70.271 29.8968 70.6543 29.8968 71.0624 29.8968C71.0624 30.2292 71.0624 30.5144 71.0624 30.8392C70.6963 30.8392 70.3115 30.8392 69.8671 30.8392C69.8671 31.0462 69.8671 31.2146 69.8671 31.383C69.8671 32.6045 69.8655 33.8259 69.8676 35.0474C69.8693 35.9967 69.9545 36.0797 70.9111 36.0953C70.9662 36.0962 71.0211 36.1095 71.1003 36.1203C71.1535 36.4544 71.2052 36.7793 71.2629 37.1419C70.6364 37.292 70.0369 37.3406 69.4517 37.1119C68.913 36.9013 68.703 36.4521 68.6981 35.8978C68.6852 34.4585 68.6772 33.0191 68.6678 31.5798C68.6664 31.362 68.6676 31.1442 68.6676 30.8803C68.3761 30.8803 68.0958 30.8803 67.791 30.8803C67.791 30.5505 67.791 30.2661 67.791 29.9394C67.9104 29.9308 68.0344 29.9219 68.2002 29.913Z" fill="#363F4D"/>
<path id="Vector_25" d="M41.7257 29.9124C41.8941 29.9181 42.0209 29.9239 42.1658 29.9305C42.1723 30.0529 42.1821 30.1515 42.1821 30.2501C42.1821 32.7048 42.1885 35.1595 42.1731 37.6141C42.1703 38.0448 42.107 38.4816 42.016 38.9036C41.8695 39.5828 41.3893 39.9366 40.7242 40.0095C40.315 40.0543 39.8967 40.0178 39.4033 40.0178C39.5044 39.5717 39.5765 39.2534 39.6462 38.9455C39.6914 38.9268 39.7192 38.9034 39.7422 38.9074C40.678 39.0681 40.9393 38.8723 40.945 37.9159C40.9601 35.4177 40.954 32.9195 40.9563 30.4212C40.9564 30.2656 40.9563 30.1099 40.9563 29.9124C41.2272 29.9124 41.4556 29.9124 41.7257 29.9124Z" fill="#363F4D"/>
<path id="Vector_26" d="M27.9522 27.6476C27.9522 27.4921 27.9522 27.3781 27.9522 27.2065C28.1779 27.2065 28.3752 27.2065 28.5725 27.2065C28.7578 27.2065 28.943 27.2065 29.1487 27.2065C29.1487 30.5175 29.1487 33.792 29.1487 37.0865C28.7603 37.0865 28.3879 37.0865 27.9521 37.0865C27.9521 33.9479 27.9521 30.8185 27.9522 27.6476Z" fill="#363F4D"/>
<path id="Vector_27" d="M88.6748 8.46497C88.2182 9.01909 87.5462 9.15402 86.9874 8.8313C86.3859 8.48394 86.3382 7.59255 86.899 7.18019C87.3248 6.86704 87.9427 6.8571 88.3675 7.15657C88.7803 7.44762 88.8779 7.83421 88.6748 8.46497Z" fill="#363F4D"/>
<path id="Vector_28" d="M68.8872 21.0949C68.2105 20.8133 67.9724 20.3736 68.1549 19.7981C68.3218 19.272 68.9327 18.9689 69.5376 19.1121C70.1542 19.2581 70.4651 19.7226 70.3594 20.3399C70.2599 20.9208 69.689 21.2233 68.8872 21.0949Z" fill="#363F4D"/>
<path id="Vector_29" d="M74.2738 20.9307C73.8583 20.5319 73.7864 19.9791 74.0739 19.5842C74.3711 19.1758 75.0514 19.0394 75.5332 19.2916C75.9743 19.5225 76.1744 20.0381 76.0106 20.5219C75.8114 21.1102 75.0157 21.309 74.2738 20.9307Z" fill="#363F4D"/>
<path id="Vector_30" d="M2.81163 8.45126C3.20784 7.97852 3.68522 7.90956 4.20783 8.08969C4.61398 8.22968 4.83096 8.5971 4.81202 9.0451C4.79335 9.4868 4.57186 9.78158 4.15297 9.91291C3.69248 10.0573 3.24743 10.0114 2.90717 9.64953C2.58399 9.30578 2.59146 8.89289 2.81163 8.45126Z" fill="#363F4D"/>
<path id="Vector_31" d="M32.6357 20.1321C32.6193 20.6423 32.3949 20.9626 31.9278 21.0875C31.4629 21.2117 31.0209 21.1604 30.6881 20.7881C30.4105 20.4775 30.411 20.0974 30.5733 19.7269C30.7448 19.3357 31.2109 19.115 31.7038 19.1706C32.2292 19.2299 32.5009 19.5004 32.6357 20.1321Z" fill="#363F4D"/>
<path id="Vector_32" d="M79.0368 20.335C78.9507 20.8672 78.6001 21.0689 78.1526 21.1281C77.713 21.1863 77.2963 21.0949 77.0437 20.6957C76.8164 20.3365 76.84 19.9467 77.0787 19.5899C77.3301 19.2141 77.8699 19.0699 78.3672 19.229C78.8494 19.3832 79.045 19.6937 79.0368 20.335Z" fill="#363F4D"/>
<path id="Vector_33" d="M110.159 8.7057C109.516 8.65285 109.193 8.41719 109.094 7.9561C108.996 7.50112 109.163 7.10059 109.544 6.87592C109.951 6.63568 110.577 6.70192 110.919 7.01631C111.235 7.30623 111.29 7.67229 111.167 8.04899C111.021 8.50039 110.656 8.6864 110.159 8.7057Z" fill="#363F4D"/>
<path id="Vector_34" d="M6.38533 9.92891C5.74284 9.65214 5.5109 9.19327 5.70539 8.64285C5.87745 8.15592 6.51338 7.88515 7.09169 8.05258C7.65638 8.21608 7.91871 8.67676 7.78317 9.26694C7.66166 9.79602 7.12664 10.0588 6.38533 9.92891Z" fill="#363F4D"/>
<path id="Vector_35" d="M29.0306 21.0608C28.77 21.0886 28.5351 21.1452 28.3136 21.1121C27.7313 21.025 27.4471 20.6539 27.4813 20.088C27.5113 19.5896 27.8804 19.2278 28.4166 19.1713C28.9794 19.1119 29.4901 19.4254 29.6038 19.9001C29.7269 20.4138 29.5719 20.7426 29.0306 21.0608Z" fill="#363F4D"/>
<path id="Vector_36" d="M113.75 8.54765C112.884 8.93047 112.086 8.54147 112.067 7.75891C112.055 7.27804 112.352 6.88069 112.808 6.76843C113.353 6.63424 113.916 6.84993 114.126 7.27285C114.339 7.70214 114.199 8.20938 113.75 8.54765Z" fill="#363F4D"/>
<path id="Vector_37" d="M140.455 7.45676C140.859 7.89298 140.916 8.45553 140.618 8.81282C140.316 9.17458 139.622 9.27148 139.17 9.01513C138.777 8.7925 138.618 8.2948 138.794 7.83746C139.016 7.25842 139.741 7.08123 140.455 7.45676Z" fill="#363F4D"/>
<path id="Vector_38" d="M141.967 8.91911C141.586 8.46833 141.555 7.96197 141.862 7.60074C142.187 7.21858 142.831 7.12547 143.293 7.39383C143.704 7.63281 143.864 8.1349 143.678 8.60204C143.454 9.16593 142.67 9.32354 141.967 8.91911Z" fill="#363F4D"/>
<path id="Vector_39" d="M140.793 6.87476C140.283 6.68474 140.209 6.06437 140.404 5.71563C140.618 5.33086 141.168 5.17254 141.632 5.36143C142.062 5.53692 142.252 5.93612 142.122 6.38939C141.985 6.86552 141.471 7.06296 140.793 6.87476Z" fill="#363F4D"/>
<path id="Vector_40" d="M42.1837 28.4781C41.9773 28.5652 41.7739 28.6264 41.566 28.6518C41.3831 28.6742 41.1952 28.6565 40.9824 28.6565C40.9824 28.1687 40.9824 27.714 40.9824 27.2319C41.3686 27.2319 41.7509 27.2319 42.1846 27.2319C42.1846 27.6357 42.1846 28.0363 42.1837 28.4781Z" fill="#363F4D"/>
</g>
</g>
</svg>
