<svg width="64" height="74" viewBox="0 0 64 74" fill="none" xmlns="http://www.w3.org/2000/svg">
<path fill-rule="evenodd" clip-rule="evenodd" d="M43.5886 61.8371C55.5334 57.1946 64 45.586 64 32C64 14.3269 49.6731 0 32 0C14.3269 0 0 14.3269 0 32C0 45.586 8.46663 57.1946 20.4114 61.8371L20.3435 61.9077L32 74L43.6565 61.9077L43.5886 61.8371Z" fill="white"/>
<g clip-path="url(#clip0_159_4191)">
<path fill-rule="evenodd" clip-rule="evenodd" d="M21.9393 21.9393C22.5251 21.3536 23.4749 21.3536 24.0607 21.9393L32 29.8787L39.9393 21.9393C40.5251 21.3536 41.4749 21.3536 42.0607 21.9393C42.6464 22.5251 42.6464 23.4749 42.0607 24.0607L34.1213 32L42.0607 39.9393C42.6464 40.5251 42.6464 41.4749 42.0607 42.0607C41.4749 42.6464 40.5251 42.6464 39.9393 42.0607L32 34.1213L24.0607 42.0607C23.4749 42.6464 22.5251 42.6464 21.9393 42.0607C21.3536 41.4749 21.3536 40.5251 21.9393 39.9393L29.8787 32L21.9393 24.0607C21.3536 23.4749 21.3536 22.5251 21.9393 21.9393Z" fill="#363F4D"/>
</g>
<defs>
<clipPath id="clip0_159_4191">
<rect width="24" height="24" fill="white" transform="translate(20 20)"/>
</clipPath>
</defs>
</svg>
