<svg width="440" height="256" viewBox="0 0 440 256" fill="none" xmlns="http://www.w3.org/2000/svg">
<path fill-rule="evenodd" clip-rule="evenodd" d="M231.589 152.837C243.533 148.195 252 136.586 252 123C252 105.327 237.673 91 220 91C202.327 91 188 105.327 188 123C188 136.586 196.467 148.195 208.411 152.837L208.343 152.908L220 165L231.657 152.908L231.589 152.837Z" fill="white"/>
<path fill-rule="evenodd" clip-rule="evenodd" d="M219.45 120.764L220.157 120.128L221.352 119.051V111.826C221.352 110.88 220.5 110.113 219.45 110.113C218.4 110.113 217.549 110.88 217.549 111.826V119.051L218.744 120.128L219.45 120.764ZM219.45 129.64L218.744 130.277L217.549 131.353V138.578C217.549 139.524 218.4 140.292 219.45 140.292C220.5 140.292 221.352 139.524 221.352 138.578V131.353L220.157 130.277L219.45 129.64ZM224.437 124.371L225.475 123.131H232.44C233.351 123.131 234.091 124.014 234.091 125.104C234.091 126.193 233.351 127.076 232.44 127.076H225.475L224.437 125.837L223.824 125.104L224.437 124.371ZM215.267 125.104L214.654 124.371L213.616 123.131H206.651C205.739 123.131 205 124.014 205 125.104C205 126.193 205.739 127.076 206.651 127.076H213.616L214.654 125.837L215.267 125.104ZM216.34 126.09L218.69 128.528L218.072 129.168L211.639 135.842C211.315 136.178 210.89 136.347 210.464 136.347C210.252 136.347 210.039 136.305 209.839 136.22C209.639 136.136 209.452 136.01 209.289 135.842C208.641 135.169 208.641 134.077 209.289 133.404L215.722 126.73L216.34 126.09ZM220.401 121.877L222.751 124.315L223.369 123.674L229.802 117.001C230.45 116.328 230.45 115.236 229.802 114.563C229.639 114.395 229.452 114.268 229.252 114.184C229.052 114.1 228.839 114.058 228.626 114.058C228.201 114.058 227.776 114.226 227.451 114.563L221.019 121.236L220.401 121.877ZM219.165 122.412L221.475 124.808L223.108 126.502L229.429 133.06C230.067 133.722 230.067 134.795 229.429 135.456C229.111 135.787 228.693 135.952 228.275 135.952C227.857 135.952 227.439 135.787 227.12 135.456L220.798 128.898L219.165 127.204L216.856 124.808L215.223 123.114L208.901 116.556C208.263 115.894 208.263 114.821 208.901 114.16C208.98 114.077 209.066 114.005 209.157 113.942C209.338 113.819 209.538 113.736 209.744 113.694C209.847 113.674 209.951 113.663 210.056 113.663C210.473 113.663 210.891 113.829 211.21 114.16L217.532 120.718L219.165 122.412Z" fill="#2D9596"/>
</svg>
