<svg width="20" height="20" viewBox="0 0 20 20" fill="none" xmlns="http://www.w3.org/2000/svg">
<g id="iconspace_Copy_25px">
<path id="Combined Shape" fill-rule="evenodd" clip-rule="evenodd" d="M13.6186 5.22624V1.60001H7.60039C6.49582 1.60001 5.60039 2.49544 5.60039 3.60001V14C5.60039 15.1046 6.49582 16 7.60039 16H15.6004C16.705 16 17.6004 15.1046 17.6004 14V6.41312H14.8368C14.1674 6.41312 13.6186 5.8853 13.6186 5.22624ZM14.6475 2.07238C14.5811 1.9853 14.5039 1.90874 14.4186 1.844V5.22624C14.4186 5.43634 14.6024 5.61312 14.8368 5.61312H17.3474L14.6475 2.07238ZM4.40039 18.4H12.4004C13.368 18.4 14.1751 17.7129 14.3604 16.8H7.60039C6.05399 16.8 4.80039 15.5464 4.80039 14V4.00001H4.40039C3.29582 4.00001 2.40039 4.89544 2.40039 6.00001V16.4C2.40039 17.5046 3.29582 18.4 4.40039 18.4Z" fill="#90A3BF"/>
</g>
</svg>
