<svg width="20" height="20" viewBox="0 0 20 20" fill="none" xmlns="http://www.w3.org/2000/svg">
<g id="Social Icons">
<path id="Vector" d="M19.9277 14.548C19.7898 14.1701 19.5242 13.9658 19.2229 13.8024C19.1667 13.7717 19.1157 13.7411 19.0697 13.7207C18.9778 13.6747 18.8858 13.6287 18.7939 13.5828C17.8542 13.0823 17.1188 12.4592 16.6131 11.7135C16.4701 11.5041 16.3425 11.2794 16.2403 11.0496C16.1944 10.927 16.1995 10.8555 16.2301 10.7891C16.2608 10.7381 16.3016 10.6972 16.3527 10.6615C16.5161 10.5542 16.6795 10.447 16.7919 10.3755C16.9911 10.2427 17.1545 10.1405 17.2567 10.069C17.6397 9.79836 17.9104 9.51235 18.0789 9.1906C18.3189 8.74117 18.3496 8.21514 18.1657 7.74017C17.9104 7.06603 17.2771 6.65235 16.5059 6.65235C16.3425 6.65235 16.1841 6.66767 16.0207 6.70342C15.9799 6.71363 15.9339 6.72385 15.893 6.73406C15.8981 6.27442 15.8879 5.78924 15.8471 5.30916C15.7041 3.62891 15.1116 2.75048 14.4988 2.0508C14.1055 1.61158 13.6459 1.23876 13.1301 0.947652C12.2006 0.416508 11.1434 0.145828 9.99427 0.145828C8.84516 0.145828 7.79309 0.416508 6.86359 0.947652C6.34776 1.23876 5.88812 1.61158 5.49487 2.0508C4.88201 2.75048 4.29469 3.63402 4.14658 5.30916C4.10572 5.78924 4.09551 6.27442 4.10061 6.73406C4.05976 6.72385 4.0189 6.71363 3.97294 6.70342C3.81461 6.66767 3.65119 6.65235 3.49286 6.65235C2.72168 6.65235 2.0884 7.07113 1.83304 7.74017C1.64918 8.21514 1.67982 8.74117 1.91986 9.1906C2.0884 9.51235 2.35907 9.79836 2.74211 10.069C2.84425 10.1405 3.00258 10.2427 3.20686 10.3755C3.31411 10.447 3.47243 10.5491 3.63076 10.6512C3.68694 10.687 3.7329 10.733 3.76865 10.7891C3.79929 10.8555 3.8044 10.927 3.75333 11.0598C3.65119 11.2845 3.52861 11.5041 3.38561 11.7084C2.89022 12.4336 2.17522 13.0516 1.26614 13.547C0.78607 13.8024 0.285569 13.9709 0.0710683 14.548C-0.0872535 14.9821 0.0148896 15.4724 0.418355 15.8912C0.566463 16.0444 0.740106 16.1772 0.929071 16.2793C1.32232 16.4938 1.74111 16.6624 2.18032 16.7798C2.27225 16.8054 2.35397 16.8411 2.43057 16.8922C2.57868 17.0199 2.55825 17.2139 2.75233 17.4999C2.84936 17.6481 2.97704 17.7757 3.12004 17.8779C3.53372 18.1639 3.99847 18.1792 4.48876 18.1996C4.93308 18.2149 5.43358 18.2354 6.01069 18.4243C6.25073 18.501 6.49587 18.6542 6.78187 18.8329C7.47134 19.2568 8.41106 19.8339 9.98917 19.8339C11.5673 19.8339 12.5121 19.2517 13.2067 18.8278C13.4927 18.6542 13.7378 18.501 13.9676 18.4243C14.5396 18.2354 15.0453 18.2149 15.4896 18.1996C15.9799 18.1792 16.4446 18.1639 16.8583 17.8779C17.0319 17.7553 17.1749 17.6021 17.2771 17.4182C17.4201 17.1782 17.415 17.0097 17.5478 16.8922C17.6193 16.8411 17.701 16.8054 17.7827 16.7849C18.2219 16.6675 18.6509 16.4989 19.0493 16.2793C19.2484 16.1721 19.4323 16.0291 19.5855 15.8606L19.5906 15.8554C19.989 15.4469 20.086 14.9668 19.9277 14.548ZM18.5283 15.2988C17.6754 15.7686 17.1034 15.7175 16.6642 16.0035C16.2863 16.2436 16.511 16.7645 16.2403 16.9535C15.9033 17.1833 14.9125 16.9382 13.6357 17.3621C12.5785 17.7093 11.9095 18.7155 10.0096 18.7155C8.10973 18.7155 7.45602 17.7144 6.38351 17.3621C5.10673 16.9382 4.11594 17.1884 3.77886 16.9535C3.50819 16.7645 3.72779 16.2436 3.35497 16.0035C2.91065 15.7175 2.34375 15.7686 1.49086 15.2988C0.944392 14.9974 1.25593 14.8136 1.43468 14.7268C4.52962 13.2304 5.02501 10.9168 5.04544 10.7432C5.07097 10.5338 5.10162 10.3704 4.8718 10.161C4.65219 9.95668 3.67161 9.34892 3.39583 9.15996C2.9464 8.84332 2.74722 8.53178 2.89533 8.14364C2.99747 7.87806 3.24772 7.77592 3.50819 7.77592C3.5899 7.77592 3.67161 7.78613 3.75333 7.80146C4.24872 7.90871 4.7288 8.15385 5.00458 8.22535C5.04033 8.23557 5.07098 8.24067 5.10673 8.24067C5.25483 8.24067 5.3059 8.16406 5.29569 7.99553C5.26505 7.45417 5.18844 6.40209 5.27526 5.41641C5.39273 4.06302 5.82683 3.38887 6.34776 2.79644C6.59801 2.51044 7.76755 1.27451 10.0096 1.27451C12.2516 1.27451 13.4212 2.50533 13.6714 2.79134C14.1924 3.38377 14.6265 4.05791 14.7439 5.41131C14.8308 6.39699 14.7541 7.44906 14.7184 7.99042C14.7082 8.16917 14.7593 8.23556 14.9074 8.23556C14.9431 8.23556 14.9738 8.23046 15.0095 8.22024C15.2853 8.15385 15.7654 7.9036 16.2608 7.79635C16.3425 7.77592 16.4242 7.77081 16.5059 7.77081C16.7664 7.77081 17.0166 7.87296 17.1188 8.13853C17.2669 8.52667 17.0677 8.83821 16.6183 9.15485C16.3476 9.34382 15.367 9.95157 15.1423 10.1559C14.9125 10.3652 14.9431 10.5287 14.9686 10.7381C14.9891 10.9117 15.4845 13.2253 18.5794 14.7217C18.7633 14.8085 19.0697 14.9974 18.5283 15.2988Z" fill="#90A3BF"/>
</g>
</svg>
