<svg width="24" height="24" viewBox="0 0 24 24" fill="none" xmlns="http://www.w3.org/2000/svg">
<g id="iconspace_Share_25px">
<path id="Combined Shape" fill-rule="evenodd" clip-rule="evenodd" d="M19.2233 5.27988C19.2233 3.9544 18.1488 2.87988 16.8233 2.87988C15.4978 2.87988 14.4233 3.9544 14.4233 5.27988C14.4233 6.60537 15.4978 7.67988 16.8233 7.67988C18.1488 7.67988 19.2233 6.60537 19.2233 5.27988ZM19.2233 17.7599C19.2233 16.4344 18.1488 15.3599 16.8233 15.3599C15.4978 15.3599 14.4233 16.4344 14.4233 17.7599C14.4233 19.0854 15.4978 20.1599 16.8233 20.1599C18.1488 20.1599 19.2233 19.0854 19.2233 17.7599ZM6.26328 9.59988C7.58876 9.59988 8.66328 10.6744 8.66328 11.9999C8.66328 13.3254 7.58876 14.3999 6.26328 14.3999C4.9378 14.3999 3.86328 13.3254 3.86328 11.9999C3.86328 10.6744 4.9378 9.59988 6.26328 9.59988ZM13.6341 6.34043C13.7366 6.64873 13.8825 6.93719 14.0646 7.19855L8.7806 9.77436C8.54693 9.51025 8.27234 9.28319 7.96676 9.1031L13.6341 6.34043ZM13.6647 16.6114C13.5531 16.9183 13.4849 17.2461 13.4676 17.5873L8.04526 14.8489C8.34052 14.6639 8.60496 14.4342 8.82912 14.1693L13.6647 16.6114Z" fill="#90A3BF"/>
</g>
</svg>
