<svg width="20" height="20" viewBox="0 0 20 20" fill="none" xmlns="http://www.w3.org/2000/svg">
<g id="Group 126">
<path id="Vector" d="M0.344727 19.6572L1.71187 14.698C0.868856 13.2435 0.425452 11.5959 0.425763 9.91928C0.425763 4.64754 4.73998 0.353134 10.036 0.353134C12.6082 0.353134 15.0184 1.3512 16.8409 3.15535C17.7365 4.04436 18.4462 5.09936 18.9293 6.25999C19.4123 7.42062 19.6594 8.6641 19.6562 9.91928C19.6562 15.1916 15.3425 19.486 10.0459 19.486C8.43624 19.486 6.8563 19.0824 5.44836 18.3167L0.344727 19.6572Z" fill="#90A3BF"/>
<path id="Vector_2" d="M0 20L1.41786 14.869C0.546151 13.362 0.0888435 11.6553 0.0915105 9.91901C0.0810364 4.44547 4.54686 0 10.0358 0C12.699 0 15.2001 1.02806 17.0838 2.90311C18.9675 4.77816 20 7.26787 20 9.91901C20 15.3827 15.5347 19.8287 10.0458 19.8287C8.38142 19.8309 6.74383 19.4146 5.28666 18.6191L0 20ZM5.51985 16.8346L5.82359 17.0162C7.09781 17.7672 8.5532 18.1641 10.0364 18.1653C14.5932 18.1653 18.3098 14.4654 18.3098 9.92937C18.3098 7.73145 17.4493 5.65515 15.8897 4.10242C14.3291 2.55079 12.2431 1.68362 10.0353 1.68362C5.46803 1.68362 1.75138 5.38355 1.75138 9.91956C1.75138 11.4723 2.18688 12.9945 3.01764 14.3045L3.21003 14.6175L2.36935 17.6619L5.51874 16.8351L5.51985 16.8346Z" fill="white"/>
<path id="Vector_3" fill-rule="evenodd" clip-rule="evenodd" d="M7.5548 5.76586C7.37288 5.35245 7.17001 5.34264 6.99801 5.34264C6.84586 5.33228 6.68379 5.33228 6.5118 5.33228C6.34972 5.33228 6.07629 5.39281 5.84366 5.64478C5.61047 5.89675 4.97266 6.49177 4.97266 7.71181C4.97266 8.93131 5.86406 10.111 5.98534 10.2719C6.10661 10.4333 7.70695 13.0141 10.2384 14.0122C12.3448 14.8384 12.7703 14.6775 13.2262 14.6268C13.6816 14.5766 14.6943 14.0323 14.9071 13.4471C15.1094 12.8728 15.1094 12.3689 15.0487 12.268C14.9881 12.1671 14.8155 12.1066 14.5724 11.9757C14.3194 11.8546 13.1044 11.2503 12.8712 11.169C12.6386 11.0883 12.4765 11.048 12.3144 11.2901C12.1524 11.5421 11.6766 12.0967 11.5245 12.2576C11.3828 12.4191 11.2312 12.4393 10.9881 12.3182C10.7345 12.1976 9.93517 11.9353 8.98258 11.0883C8.24388 10.4333 7.74774 9.61686 7.59559 9.37471C7.45391 9.12274 7.57519 8.99184 7.70694 8.87077C7.8183 8.76005 7.96053 8.57844 8.08181 8.43718C8.20309 8.29593 8.24333 8.18521 8.33484 8.02378C8.41588 7.86289 8.37508 7.71127 8.31444 7.59074C8.2538 7.47948 7.77751 6.25998 7.5548 5.76586Z" fill="white"/>
</g>
</svg>
