<svg width="21" height="23" viewBox="0 0 21 23" fill="none" xmlns="http://www.w3.org/2000/svg">
<g id="Group 1000001961">
<g id="Group">
<path id="Vector" d="M6.99922 0C10.7992 0 14.5992 0 18.3992 0C18.3992 0 18.3992 0 18.4992 0C19.8992 0.3 20.6992 1.29998 20.6992 2.69998C20.6992 6.79998 20.6992 10.9 20.6992 14.9C20.6992 15.1 20.6992 15.4 20.5992 15.6C20.2992 16.8 19.2992 17.6 17.9992 17.6C15.5992 17.6 13.2992 17.6 10.8992 17.6C9.69922 17.6 8.49922 17.6 7.19922 17.6C5.89922 17.6 4.79922 16.4 4.69922 15.1C4.69922 10.9 4.69922 6.59999 4.69922 2.39999C4.69922 1.59999 5.09922 0.899994 5.69922 0.399994C6.09922 0.299994 6.49922 0.1 6.99922 0ZM12.5992 8C13.0992 8 13.4992 8 13.9992 8C14.6992 8 15.3992 8 16.0992 8C16.4992 8 16.7992 7.69999 16.7992 7.29999C16.7992 6.89999 16.4992 6.59998 15.9992 6.59998C14.3992 6.59998 12.6992 6.59998 11.0992 6.59998C10.4992 6.59998 9.79922 6.59998 9.19922 6.59998C8.79922 6.59998 8.59922 6.79998 8.49922 7.09998C8.29922 7.59998 8.69922 8 9.19922 8C10.2992 8 11.4992 8 12.5992 8ZM12.5992 10.8C12.9992 10.8 13.2992 10.8 13.6992 10.8C14.4992 10.8 15.2992 10.8 16.0992 10.8C16.5992 10.8 16.8992 10.5 16.7992 10C16.7992 9.6 16.4992 9.39999 16.0992 9.39999C13.7992 9.39999 11.4992 9.39999 9.19922 9.39999C9.09922 9.39999 8.99922 9.39999 8.99922 9.39999C8.69922 9.49999 8.59922 9.59999 8.49922 9.89999C8.39922 10.4 8.69922 10.8 9.19922 10.8C10.2992 10.8 11.4992 10.8 12.5992 10.8ZM12.5992 13.6C12.9992 13.6 13.3992 13.6 13.7992 13.6C14.5992 13.6 15.3992 13.6 16.0992 13.6C16.5992 13.6 16.8992 13.2 16.7992 12.8C16.7992 12.5 16.4992 12.2 16.0992 12.2C13.7992 12.2 11.4992 12.2 9.19922 12.2C9.09922 12.2 8.99922 12.2 8.99922 12.2C8.69922 12.3 8.59922 12.4 8.49922 12.7C8.39922 13.2 8.69922 13.6 9.19922 13.6C10.2992 13.6 11.4992 13.6 12.5992 13.6Z" fill="white"/>
<path id="Vector_2" d="M3.3 2.39991C3.3 2.49991 3.3 2.5999 3.3 2.6999C3.3 6.8999 3.3 10.9999 3.3 15.1999C3.3 17.0999 4.6 18.6999 6.5 19.0999C6.8 19.1999 7.09999 19.1999 7.39999 19.1999C10.3 19.1999 13.2 19.1999 16 19.1999C16.1 19.1999 16.2 19.1999 16.3 19.1999C16.5 20.6999 15.8 21.9999 14.4 22.3999C14.2 22.4999 13.9 22.4999 13.7 22.4999C10 22.4999 6.29999 22.4999 2.59999 22.4999C1.19999 22.4999 0 21.3999 0 19.8999C0 14.8999 0 9.99992 0 4.99992C0 3.59992 1.1 2.49991 2.5 2.39991C2.8 2.29991 3.1 2.39991 3.3 2.39991Z" fill="white"/>
</g>
</g>
</svg>
