<svg width="24" height="24" viewBox="0 0 24 24" fill="none" xmlns="http://www.w3.org/2000/svg">
<g id="Group 1000002707">
<path id="Speech Bubble" d="M0 24L1.69541 17.8375C0.648007 16.0297 0.0978398 13.979 0.10037 11.892C0.103131 5.33466 5.46335 0 12.0503 0C15.2467 0.00161686 18.2469 1.23997 20.5033 3.48789C22.7597 5.73581 24.0011 8.72376 24 11.9015C23.9971 18.4584 18.636 23.794 12.0501 23.794H12.0449C10.0451 23.7932 8.08012 23.2938 6.33469 22.3463L0 24Z" fill="#C8E6CB"/>
<path id="Speech Bubble_2" d="M12.0532 2.00882C6.57457 2.00882 2.11915 6.44273 2.1172 11.8927C2.1145 13.7537 2.64091 15.5774 3.63558 17.1531L3.87189 17.5271L2.86835 21.1744L6.62752 20.1931L6.99051 20.4072C8.51506 21.308 10.2631 21.7843 12.0457 21.7853H12.0495C17.5239 21.7853 21.9793 17.3509 21.9814 11.9006C21.9855 10.6015 21.7308 9.31458 21.2319 8.11421C20.733 6.91384 19.9999 5.82391 19.075 4.90752C18.1553 3.98612 17.0611 3.25549 15.8558 2.75792C14.6505 2.26036 13.358 2.00574 12.0532 2.00882Z" fill="url(#paint0_linear_505_7520)"/>
<path id="Phone" fill-rule="evenodd" clip-rule="evenodd" d="M9.06205 6.92037C8.83825 6.42545 8.60275 6.41542 8.39016 6.40685L7.81782 6.3999C7.6187 6.3999 7.29518 6.47428 7.02168 6.77178C6.74818 7.06928 5.97656 7.7883 5.97656 9.25075C5.97656 10.7132 7.04653 12.1263 7.19562 12.3249C7.34471 12.5234 9.26117 15.6202 12.2961 16.8117C14.8182 17.8018 15.3315 17.6049 15.8791 17.5554C16.4268 17.5059 17.6456 16.8364 17.8943 16.1423C18.143 15.4482 18.1431 14.8535 18.0686 14.7291C17.994 14.6048 17.7949 14.5309 17.4961 14.3822C17.1972 14.2334 15.7295 13.5144 15.4559 13.4151C15.1822 13.3159 14.9832 13.2665 14.784 13.564C14.5847 13.8615 14.0132 14.5308 13.8389 14.7291C13.6646 14.9275 13.4907 14.9524 13.1918 14.8038C12.893 14.6553 11.9315 14.3413 10.7908 13.3286C9.90318 12.5407 9.30405 11.5677 9.12962 11.2704C8.95519 10.973 9.1111 10.812 9.26084 10.6639C9.39483 10.5307 9.55935 10.3167 9.70894 10.1433C9.85852 9.96976 9.90773 9.84575 10.0071 9.64769C10.1065 9.44962 10.057 9.27565 9.98227 9.12706C9.90757 8.97847 9.32743 7.50826 9.06205 6.92037Z" fill="white"/>
</g>
<defs>
<linearGradient id="paint0_linear_505_7520" x1="11.8471" y1="3.19559" x2="11.9469" y2="20.0958" gradientUnits="userSpaceOnUse">
<stop stop-color="#57D163"/>
<stop offset="1" stop-color="#23B33A"/>
</linearGradient>
</defs>
</svg>
