<svg width="24" height="24" viewBox="0 0 24 24" fill="none" xmlns="http://www.w3.org/2000/svg">
<g id="Socials">
<path id="circle" d="M12 24C18.6274 24 24 18.6274 24 12C24 5.37258 18.6274 0 12 0C5.37258 0 0 5.37258 0 12C0 18.6274 5.37258 24 12 24Z" fill="url(#paint0_linear_505_7523)"/>
<path id="plane" d="M4.99577 11.8959L13.0767 8.56642C13.8744 8.2196 16.5796 7.10977 16.5796 7.10977C16.5796 7.10977 17.8281 6.62422 17.7241 7.80341C17.6894 8.28896 17.412 9.98838 17.1345 11.8265L16.2674 17.2716C16.2674 17.2716 16.1981 18.0693 15.6085 18.208C15.0189 18.3468 14.0478 17.7225 13.8744 17.5838C13.7357 17.4797 11.2732 15.919 10.3715 15.156C10.1287 14.9479 9.85126 14.5317 10.4062 14.0462C11.6547 12.9017 13.1461 11.4797 14.0478 10.578C14.464 10.1618 14.8802 9.1907 13.1461 10.3699L8.25589 13.6647C8.25589 13.6647 7.70097 14.0115 6.66051 13.6994C5.62005 13.3872 4.40618 12.971 4.40618 12.971C4.40618 12.971 3.57381 12.4508 4.99577 11.8959Z" fill="white"/>
</g>
<defs>
<linearGradient id="paint0_linear_505_7523" x1="16.0009" y1="4.00092" x2="10.0009" y2="18" gradientUnits="userSpaceOnUse">
<stop stop-color="#37AEE2"/>
<stop offset="1" stop-color="#1E96C8"/>
</linearGradient>
</defs>
</svg>
