<svg width="201" height="46" viewBox="0 0 201 46" fill="none" xmlns="http://www.w3.org/2000/svg">
<g id="Group 1000006780">
<g id="Group 1000006779">
<circle id="Ellipse 10322" cx="22.31" cy="22.7541" r="22.31" fill="black"/>
<path id="Vector" d="M37.5316 6.46006C41.3899 10.13 43.6986 14.568 44.417 19.8177C44.8223 22.7787 44.6077 25.7039 43.8578 28.5964C43.7614 28.9682 43.5876 29.0732 43.2328 29.0852C41.7109 29.1364 40.2121 29.0302 38.7562 28.5431C35.9586 27.6071 34.3086 25.6463 33.7826 22.7855C33.5592 21.5703 32.6352 21.113 31.5424 21.759C31.2567 21.9278 30.9808 22.1279 30.7401 22.3556C28.5554 24.4223 25.688 24.8954 22.9505 23.6737C20.805 22.7161 19.0805 21.223 17.5299 19.5067C16.8391 18.7422 16.1763 17.9461 15.5689 17.1146C15.1525 16.5445 14.8555 15.8876 14.5015 15.2716C13.7959 14.0435 13.0142 12.8758 11.8999 11.9685C10.807 11.0786 9.68713 10.9134 8.67958 11.5021C7.68578 12.0827 7.09012 13.3794 7.36268 14.64C7.52918 15.4101 7.77566 16.1971 8.15855 16.8798C9.30832 18.93 10.734 20.7856 12.4516 22.4C12.8295 22.7552 13.2677 23.055 13.7095 23.33C13.9374 23.472 14.0082 23.6147 14.0367 23.872C14.1933 25.2862 14.3718 26.6981 14.5589 28.1086C14.5944 28.3764 14.7024 28.6345 14.8465 28.8863C14.8898 28.2659 14.9313 27.6453 14.9781 27.0251C14.9879 26.8952 15.0112 26.7655 15.0386 26.6379C15.35 25.1892 15.789 24.8654 17.249 25.0047C18.6783 25.1411 19.4446 25.8736 19.452 27.1561C19.4542 27.5272 19.3627 27.9 19.3018 28.27C19.1843 28.9847 18.9816 29.6951 18.9545 30.4126C18.9191 31.3542 19.3517 31.641 20.2813 31.4991C21.5621 31.3035 22.8521 31.1458 24.1442 31.3633C24.7854 31.4712 25.4049 31.7081 26.046 31.8166C27.49 32.0608 28.2732 31.4562 28.6295 30.0334C28.8927 28.9821 29.2313 27.9402 29.6431 26.9379C30.1215 25.7732 31.2158 25.4658 32.3351 25.3372C32.916 25.2705 33.3865 25.6273 33.6379 26.1349C33.8796 26.6229 34.0529 27.1552 34.1834 27.686C34.6542 29.6006 35.4539 31.3303 36.8968 32.7156C38.017 33.791 39.3629 34.3268 40.9091 34.3767C41.0234 34.3804 41.1375 34.3916 41.2603 34.4C38.5047 39.4141 31.4252 45.2533 21.8751 45.0633C12.0789 44.8683 3.55287 38.3246 0.87332 28.9009C-1.92368 19.0641 2.18551 8.99344 10.515 3.84769C19.2254 -1.53342 30.1234 -0.43935 37.5316 6.46006Z" fill="white"/>
</g>
<g id="Group 1000006781">
<path id="Vector_2" d="M98.7949 12.6792C98.7949 11.5612 98.7949 10.4868 98.7949 9.38057C99.4328 9.38057 100.049 9.38057 100.67 9.38057C100.681 9.39709 100.709 9.42018 100.709 9.44324C100.707 11.2467 100.715 13.0503 100.693 14.8536C100.684 15.6466 100.751 15.8418 101.538 16.0033C102.211 16.1415 102.91 16.1525 103.645 16.2244C103.645 13.0666 103.645 10.0052 103.645 6.91621C104.301 6.91621 104.918 6.91621 105.574 6.91621C105.574 9.97888 105.574 13.0413 105.574 16.1325C106.52 16.1325 107.429 16.1325 108.393 16.1325C108.393 13.0702 108.393 9.99832 108.393 6.90771C109.36 6.90771 110.273 6.90771 111.217 6.90771C111.217 7.52713 111.217 8.14372 111.217 8.81325C110.946 8.81325 110.665 8.81325 110.347 8.81325C110.347 11.9278 110.347 14.9902 110.347 18.0362C110.285 18.0647 110.26 18.086 110.235 18.086C107.588 18.0886 104.941 18.0998 102.294 18.0847C101.415 18.0796 100.638 17.7948 100.09 16.9729C99.3534 17.9312 98.3451 18.2158 97.2314 18.2296C96.1038 18.2435 95.0995 17.9598 94.4001 16.9398C93.7678 17.4868 93.091 17.9172 92.2634 18.0365C92.0484 18.0674 91.83 18.0897 91.6132 18.0898C86.0714 18.0929 80.5295 18.0926 74.9877 18.0925C74.9308 18.0925 74.8738 18.0877 74.7871 18.0839C74.7871 14.3641 74.7871 10.6517 74.7871 6.91377C75.403 6.91377 76.0202 6.91377 76.6753 6.91377C76.6753 9.98146 76.6753 13.0442 76.6753 16.1342C78.1453 16.1342 79.5783 16.1342 81.0586 16.1342C81.0586 14.2221 81.0586 12.2982 81.0586 10.3444C81.7224 10.3444 82.34 10.3444 83.0053 10.3444C83.0053 12.2598 83.0053 14.1854 83.0053 16.1362C84.7891 16.1362 86.5258 16.1362 88.3018 16.1362C88.3018 14.4291 88.3018 12.7351 88.3018 11.0208C88.958 11.0208 89.5752 11.0208 90.2333 11.0208C90.2333 12.728 90.2333 14.4219 90.2333 16.1889C90.9086 16.1566 91.5503 16.1823 92.1717 16.0822C93.0083 15.9474 93.448 15.3724 93.4585 14.52C93.471 13.5019 93.463 12.4836 93.4638 11.4655C93.4639 11.3236 93.4638 11.1817 93.4638 11.0202C94.1192 11.0202 94.7368 11.0202 95.3976 11.0202C95.3976 12.0169 95.3927 13.0013 95.4004 13.9856C95.403 14.3043 95.4139 14.6268 95.4643 14.9406C95.589 15.7156 96.1342 16.2055 96.9096 16.2735C98.0986 16.3776 98.7646 15.7903 98.79 14.599C98.8034 13.9739 98.794 13.3482 98.7949 12.6792Z" fill="white"/>
<path id="Vector_3" d="M122.214 10.8888C123.808 12.3584 123.861 14.187 123.514 16.1356C124.839 16.1356 126.139 16.1356 127.484 16.1356C127.484 14.2227 127.484 12.298 127.484 10.3438C128.144 10.3438 128.761 10.3438 129.426 10.3438C129.426 12.2555 129.426 14.1798 129.426 16.1325C130.655 16.1325 131.836 16.1325 133.056 16.1325C133.056 13.0574 133.056 9.99455 133.056 6.90991C133.713 6.90991 134.332 6.90991 134.986 6.90991C134.986 9.98535 134.986 13.0472 134.986 16.1351C137.211 16.1351 139.401 16.1351 141.629 16.1351C141.812 15.2961 141.97 14.4396 141.786 13.5719C141.61 12.7395 141.082 12.2278 140.234 12.059C139.29 11.8708 138.416 12.0515 137.56 12.5806C137.29 12.0238 137.028 11.4827 136.745 10.8985C138.367 10.0505 140.036 9.58091 141.703 10.5143C143.939 11.7663 143.967 13.9001 143.625 16.1316C144.477 16.1316 145.309 16.1316 146.178 16.1316C146.178 13.0722 146.178 10.0104 146.178 6.91828C147.15 6.91828 148.087 6.91828 149.029 6.91828C149.029 7.54707 149.029 8.16604 149.029 8.82212C148.739 8.82212 148.47 8.82212 148.163 8.82212C148.163 11.9205 148.163 14.9818 148.163 18.082C138.184 18.082 128.244 18.082 118.274 18.082C118.19 18.951 118.509 19.6736 118.901 20.4261C118.407 20.6576 117.926 20.8828 117.414 21.1223C116.31 19.6236 116.138 17.9588 116.411 16.1672C118.119 16.1672 119.802 16.1672 121.515 16.1672C121.713 15.3365 121.839 14.5191 121.703 13.6954C121.526 12.6237 120.797 12.0459 119.651 11.9903C118.875 11.9526 118.155 12.1335 117.46 12.5889C117.188 12.0251 116.926 11.4827 116.665 10.9427C118.201 9.90567 120.654 9.61884 122.214 10.8888Z" fill="white"/>
<path id="Vector_4" d="M159.976 11.9927C160.869 10.8572 162.08 10.4474 163.427 10.3328C163.685 10.3109 163.946 10.3297 164.235 10.3297C164.252 10.0805 164.266 9.87139 164.282 9.6419C164.919 9.6419 165.539 9.6419 166.191 9.6419C166.191 11.7975 166.191 13.9463 166.191 16.1282C169.413 16.1282 172.602 16.1282 175.875 16.1282C175.839 15.4289 175.859 14.7161 175.75 14.024C175.629 13.2652 175.037 12.8709 174.182 12.868C172.422 12.862 170.662 12.8572 168.902 12.8743C168.595 12.8773 168.391 12.7923 168.296 12.5121C168.144 12.0624 167.997 11.6097 167.885 11.1491C167.853 11.016 167.921 10.8357 167.993 10.7036C168.629 9.52929 169.28 8.36319 169.916 7.18876C170.033 6.97285 170.166 6.87172 170.425 6.88179C170.975 6.90318 171.527 6.88832 172.163 6.88832C171.447 8.25491 170.76 9.56604 170.041 10.9365C171.377 10.9365 172.637 10.927 173.897 10.9416C174.346 10.9468 174.804 10.9623 175.24 11.0562C176.88 11.4092 177.694 12.4205 177.759 14.2411C177.805 15.5038 177.768 16.7695 177.768 18.0658C177.661 18.0746 177.551 18.0916 177.44 18.0916C172.931 18.0924 168.423 18.1101 163.914 18.0733C163.145 18.067 162.339 17.9341 161.616 17.6741C159.311 16.8444 158.507 14.006 159.976 11.9927ZM164.246 16.1051C164.246 14.823 164.246 13.5409 164.246 12.1345C163.571 12.2656 162.944 12.3148 162.371 12.516C161.577 12.7946 161.162 13.5189 161.199 14.3181C161.235 15.0897 161.715 15.7661 162.509 15.9747C163.045 16.1154 163.621 16.1015 164.246 16.1051Z" fill="white"/>
<path id="Vector_5" d="M192.169 11.2896C192.248 11.1642 192.324 11.0139 192.407 11.0107C192.956 10.9896 193.506 10.9997 194.098 10.9997C194.098 11.894 194.097 12.7625 194.098 13.631C194.099 13.9655 194.084 14.3013 194.108 14.6342C194.203 15.9266 195.324 16.6328 196.545 16.1779C197.151 15.9521 197.487 15.3999 197.491 14.5605C197.5 12.8453 197.494 11.1301 197.494 9.38159C198.125 9.38159 198.742 9.38159 199.37 9.38159C199.377 9.39032 199.409 9.41305 199.409 9.43552C199.394 11.3541 199.48 13.2808 199.331 15.1892C199.163 17.348 197.791 18.37 195.611 18.2283C194.589 18.1618 193.707 17.8479 193.094 16.9332C192.462 17.495 191.767 17.9273 190.921 18.0432C190.649 18.0805 190.371 18.0905 190.096 18.0909C187.682 18.0944 185.269 18.093 182.825 18.093C182.779 18.4017 182.745 18.7001 182.688 18.9938C182.391 20.5129 181.596 21.2187 179.724 21.1141C179.045 21.0762 179.047 21.0496 179.007 20.3812C178.982 19.9641 178.958 19.5469 178.934 19.1204C179.306 19.1419 179.651 19.1947 179.992 19.1738C180.507 19.1422 180.75 18.9004 180.819 18.3877C180.859 18.1007 180.864 17.8076 180.864 17.5173C180.868 15.2921 180.866 13.0669 180.866 10.8417C180.866 10.6837 180.866 10.5257 180.866 10.3413C181.527 10.3413 182.156 10.3413 182.812 10.3413C182.812 12.2744 182.812 14.19 182.812 16.1334C184.212 16.1334 185.584 16.1334 186.997 16.1334C186.997 14.431 186.997 12.7373 186.997 11.0218C187.654 11.0218 188.272 11.0218 188.93 11.0218C188.93 12.7261 188.93 14.4203 188.93 16.1324C189.546 16.1324 190.13 16.191 190.697 16.1194C191.682 15.9952 192.158 15.3978 192.166 14.3868C192.174 13.3689 192.168 12.3508 192.169 11.2896Z" fill="white"/>
<path id="Vector_6" d="M62.2677 13.2901C62.2677 14.9018 62.2677 16.4698 62.2677 18.0699C62.1471 18.0789 62.051 18.0923 61.955 18.0923C59.992 18.0929 58.0287 18.1129 56.0664 18.079C55.4491 18.0683 54.8091 17.9921 54.2235 17.8066C52.7633 17.344 51.9869 16.2867 51.9215 14.7615C51.8755 13.6885 51.9126 12.6118 51.9126 11.5047C52.525 11.5047 53.1414 11.5047 53.8235 11.5047C53.8235 11.7591 53.8174 12.0285 53.8246 12.2976C53.8459 13.0954 53.8343 13.8965 53.908 14.6897C53.9748 15.4079 54.4591 15.8178 55.1366 15.9935C55.4167 16.0662 55.7076 16.1357 55.9942 16.1387C57.4167 16.1534 58.8394 16.1454 60.3096 16.1454C60.3096 14.2113 60.3096 12.2872 60.3096 10.3386C60.9753 10.3386 61.5939 10.3386 62.2677 10.3386C62.2677 11.3074 62.2677 12.2769 62.2677 13.2901Z" fill="white"/>
<path id="Vector_7" d="M162.358 30.8244C161.726 31.1067 161.385 31.5847 161.352 32.2242C161.3 33.21 161.304 34.1989 161.291 35.1866C161.283 35.7671 161.29 36.3478 161.29 36.9616C160.886 36.9616 160.504 36.9616 160.069 36.9616C160.069 36.601 160.069 36.243 160.069 35.8851C160.069 34.7364 160.069 33.5878 160.069 32.4391C160.069 32.3664 160.069 32.2937 160.067 32.221C160.046 31.2347 159.729 30.7923 158.984 30.7068C158.144 30.6105 157.364 31.1199 157.184 31.9451C157.082 32.4092 157.049 32.8948 157.042 33.3716C157.023 34.5609 157.035 35.7507 157.035 36.9675C156.632 36.9675 156.26 36.9675 155.855 36.9675C155.855 34.5992 155.855 32.2241 155.855 29.8246C156.199 29.8246 156.538 29.8246 156.916 29.8246C156.916 30.109 156.916 30.3761 156.916 30.7455C157.529 29.9904 158.239 29.6249 159.117 29.6405C159.988 29.656 160.713 29.9443 161.104 30.8611C161.62 30.1735 162.232 29.7411 163.062 29.6504C164.416 29.5023 165.349 30.1817 165.482 31.5359C165.566 32.4006 165.529 33.2777 165.536 34.1494C165.543 35.0782 165.537 36.0071 165.537 36.9654C165.127 36.9654 164.743 36.9654 164.324 36.9654C164.324 35.6719 164.325 34.3952 164.323 33.1184C164.323 32.726 164.337 32.3313 164.301 31.9416C164.216 31.0007 163.659 30.5808 162.728 30.7309C162.614 30.7492 162.503 30.7853 162.358 30.8244Z" fill="white"/>
<path id="Vector_8" d="M58.9326 36.9956C58.7112 36.8858 58.4686 36.8187 58.3543 36.6595C57.3122 35.2089 56.2926 33.7421 55.2658 32.2804C55.209 32.1996 55.1476 32.122 55.0614 32.0069C54.5347 32.5162 54.0183 32.9999 53.5258 33.5068C53.4437 33.5912 53.4434 33.7761 53.4425 33.9148C53.4359 34.9173 53.439 35.9199 53.439 36.9589C53.0091 36.9589 52.5978 36.9589 52.1572 36.9589C52.1572 33.6868 52.1572 30.4091 52.1572 27.1128C52.5763 27.1128 52.9789 27.1128 53.4376 27.1128C53.4376 28.7021 53.4376 30.2899 53.4376 31.8776C53.476 31.8973 53.5144 31.9171 53.5528 31.9368C54.1661 31.3081 54.7756 30.6756 55.3938 30.0517C56.2328 29.205 57.0942 28.3797 57.9133 27.5143C58.222 27.1883 58.5365 27.0424 58.9789 27.0873C59.3183 27.1218 59.6641 27.0942 60.1318 27.0942C58.7078 28.4734 57.369 29.7701 55.9872 31.1084C57.4111 33.0457 58.8336 34.9812 60.3142 36.9956C59.8203 36.9956 59.3956 36.9956 58.9326 36.9956Z" fill="white"/>
<path id="Vector_9" d="M108.61 34.6991C108.922 35.4646 109.219 36.1999 109.541 36.9947C109.07 36.9947 108.653 37.0148 108.24 36.9811C108.131 36.9722 107.991 36.8153 107.942 36.6951C107.627 35.9155 107.322 35.1308 107.036 34.3397C106.949 34.0986 106.841 33.9993 106.572 34.0029C105.409 34.0188 104.246 34.0177 103.083 34.0033C102.832 34.0003 102.724 34.0915 102.646 34.3153C102.371 35.1104 102.071 35.8972 101.8 36.6934C101.722 36.9221 101.616 37.0188 101.366 37.0008C101.035 36.9769 100.702 36.9949 100.305 36.9949C100.398 36.7234 100.469 36.4953 100.554 36.2729C101.688 33.3201 102.826 30.3693 103.953 27.414C104.045 27.172 104.159 27.0698 104.424 27.0886C104.77 27.1132 105.12 27.0946 105.493 27.0946C106.529 29.6226 107.562 32.1457 108.61 34.6991ZM103.335 32.9432C104.371 32.9432 105.407 32.9432 106.482 32.9432C105.895 31.3578 105.333 29.8397 104.777 28.3357C104.53 29.0692 104.292 29.8091 104.033 30.5413C103.771 31.2791 103.485 32.0083 103.218 32.7442C103.199 32.7973 103.245 32.8741 103.335 32.9432Z" fill="white"/>
<path id="Vector_10" d="M169.542 30.1417C169.542 30.3054 169.542 30.431 169.542 30.4789C170.024 30.2206 170.479 29.8451 170.994 29.7254C172.531 29.368 173.862 30.1756 174.376 31.674C174.7 32.6197 174.713 33.5807 174.517 34.5527C174.059 36.8163 171.529 38.0463 169.654 36.3716C169.654 37.4937 169.654 38.5909 169.654 39.7223C169.245 39.7223 168.863 39.7223 168.453 39.7223C168.453 36.4408 168.453 33.1504 168.453 29.8012C168.749 29.8012 169.051 29.7812 169.346 29.815C169.421 29.8236 169.477 30.0028 169.542 30.1417ZM171.034 30.6586C170.725 30.8875 170.334 31.058 170.12 31.3556C169.322 32.4672 169.401 33.7121 169.773 34.9402C170.002 35.6943 170.699 36.1487 171.416 36.1563C172.15 36.1642 172.849 35.7044 173.123 34.9548C173.505 33.9119 173.518 32.8422 173.135 31.7978C172.804 30.8948 171.988 30.4581 171.034 30.6586Z" fill="white"/>
<path id="Vector_11" d="M75.3801 29.7831C76.5036 30.163 76.8559 30.6277 76.8805 31.7753C76.907 33.0107 76.8961 34.2472 76.9406 35.4819C76.9581 35.9653 77.0819 36.4449 77.168 36.9945C76.8977 36.9945 76.5587 37.0173 76.224 36.9891C75.7243 36.9469 75.9406 36.435 75.7259 36.1796C75.5021 36.331 75.2833 36.4935 75.0511 36.6336C74.1571 37.173 73.193 37.2764 72.1941 37.033C71.3443 36.8259 70.7863 36.2005 70.6972 35.3615C70.6045 34.4893 70.926 33.7943 71.6822 33.3269C72.3746 32.8989 73.1726 32.8802 73.9447 32.7575C74.5142 32.667 75.0794 32.5497 75.6269 32.448C75.7592 31.2311 75.3215 30.7066 74.186 30.6546C73.983 30.6454 73.7788 30.6508 73.5757 30.6611C72.7441 30.7031 72.2842 31.176 72.1054 32.0076C71.7042 31.9564 71.3236 31.9078 70.9063 31.8545C71.072 30.9511 71.4939 30.2876 72.3459 29.9567C73.3242 29.5767 74.3285 29.5546 75.3801 29.7831ZM72.0166 35.3445C72.1903 35.5675 72.3201 35.8605 72.5452 36.0013C73.5223 36.6128 75.2283 35.968 75.5342 34.863C75.6626 34.3987 75.6505 33.8956 75.7026 33.4069C74.7451 33.6019 73.8512 33.7667 72.966 33.9693C72.2201 34.1401 71.9592 34.5198 72.0166 35.3445Z" fill="white"/>
<path id="Vector_12" d="M177.045 31.7859C177.235 30.7429 177.828 30.0947 178.823 29.8261C179.695 29.5908 180.577 29.5598 181.454 29.7775C182.506 30.0386 182.979 30.6214 183.002 31.6994C183.028 32.8478 182.997 33.9977 183.037 35.1453C183.058 35.745 183.178 36.3411 183.261 36.9945C183.004 36.9945 182.662 37.0216 182.326 36.9881C181.829 36.9385 182.07 36.4116 181.816 36.1602C180.957 36.938 179.932 37.2427 178.773 37.1268C177.731 37.0226 176.986 36.4002 176.83 35.4844C176.656 34.4556 177.131 33.512 178.16 33.1671C178.949 32.9028 179.803 32.8331 180.627 32.6709C181.008 32.5959 181.386 32.5069 181.749 32.4277C181.863 31.2008 181.417 30.6904 180.247 30.6502C179.009 30.6077 178.64 30.8434 178.17 32.0189C177.806 31.9536 177.429 31.8859 177.045 31.7859ZM180.277 36.1126C181.483 35.691 181.974 34.7756 181.736 33.4243C180.831 33.6081 179.921 33.7731 179.022 33.9822C178.354 34.1374 178.067 34.5452 178.111 35.1623C178.15 35.711 178.536 36.1028 179.176 36.1694C179.516 36.2048 179.865 36.1507 180.277 36.1126Z" fill="white"/>
<path id="Vector_13" d="M84.0071 31.6056C84.7463 29.9927 86.3357 29.2853 88.0405 29.7848C89.556 30.2288 90.5008 31.8917 90.2474 33.7151C88.5005 33.7151 86.7478 33.7151 84.9989 33.7151C84.8573 35.3 86.2066 36.4795 87.6536 36.0833C88.2343 35.9243 88.6083 35.5415 88.8307 35.0089C88.9451 34.735 89.0752 34.6277 89.3822 34.7173C89.6421 34.7931 89.9228 34.7972 90.2356 34.8385C90.0088 35.7101 89.5582 36.3662 88.7853 36.7724C86.991 37.7153 84.7471 36.9982 84.0037 35.2562C83.6501 34.4274 83.6139 33.5619 83.7274 32.688C83.7736 32.332 83.903 31.9869 84.0071 31.6056ZM88.1271 30.9569C87.4155 30.5308 86.6852 30.5108 85.9822 30.9392C85.3318 31.3355 85.0497 31.9597 85.0246 32.7212C86.3642 32.7212 87.6683 32.7212 88.9958 32.7212C88.9321 32.0287 88.7441 31.4243 88.1271 30.9569Z" fill="white"/>
<path id="Vector_14" d="M63.5395 32.552C63.5362 34.0426 63.5362 35.4945 63.5362 36.9686C63.1031 36.9686 62.7184 36.9686 62.3223 36.9686C62.3223 33.6757 62.3223 30.4092 62.3223 27.1187C62.7129 27.1187 63.0846 27.1187 63.4963 27.1187C63.4963 28.2434 63.4963 29.3697 63.4963 30.5707C63.6201 30.4833 63.688 30.4455 63.7438 30.3945C64.614 29.5974 65.9303 29.4079 66.993 29.923C67.78 30.3045 68.1033 30.9908 68.1191 31.8016C68.1527 33.516 68.1293 35.2314 68.1293 36.9706C67.7381 36.9706 67.3524 36.9706 66.9219 36.9706C66.9219 36.1503 66.9222 35.3406 66.9218 34.5309C66.9215 33.8036 66.9281 33.0763 66.9176 32.3491C66.9028 31.3246 66.5134 30.8278 65.6568 30.7147C64.7386 30.5934 63.9154 31.1041 63.6618 31.96C63.6084 32.1403 63.5818 32.3285 63.5395 32.552Z" fill="white"/>
<path id="Vector_15" d="M72.1671 11.111C72.1655 13.3766 72.1689 15.5989 72.1578 17.8212C72.1558 18.2113 72.1259 18.6076 72.0519 18.9901C71.7463 20.5685 70.744 21.2815 69.0942 21.1212C68.4309 21.0568 68.4283 21.057 68.3758 20.4028C68.3456 20.0265 68.3246 19.6494 68.3012 19.2726C68.2986 19.231 68.308 19.1887 68.3153 19.1082C68.5733 19.1361 68.824 19.1736 69.0761 19.1883C69.7698 19.2289 70.0728 18.993 70.1844 18.3137C70.2218 18.0862 70.2278 17.8515 70.2281 17.6201C70.2312 15.3542 70.23 13.0883 70.23 10.8225C70.23 10.6662 70.23 10.51 70.23 10.3342C70.8825 10.3342 71.4996 10.3342 72.1671 10.3342C72.1671 10.5837 72.1671 10.8257 72.1671 11.111Z" fill="white"/>
<path id="Vector_16" d="M153.049 31.736C153.41 32.853 153.399 33.9478 153.06 35.0229C152.628 36.3986 151.4 37.1785 149.818 37.1463C148.302 37.1154 147.17 36.2763 146.776 34.8775C146.51 33.9351 146.506 32.9796 146.741 32.0356C147.1 30.5983 148.187 29.7483 149.742 29.6421C151.248 29.5393 152.446 30.2891 153.049 31.736ZM148.493 35.5405C149.567 36.5422 151.172 36.3023 151.73 35.0089C152.177 33.9718 152.189 32.8776 151.749 31.8298C151.448 31.1127 150.869 30.6916 150.063 30.6503C149.227 30.6076 148.545 30.9334 148.205 31.688C147.624 32.9776 147.624 34.2722 148.493 35.5405Z" fill="white"/>
<path id="Vector_17" d="M124.821 33.9392C124.761 32.9879 124.818 32.0902 125.256 31.2672C125.916 30.0272 127.281 29.4487 128.882 29.7024C130.125 29.8993 131.178 30.9254 131.414 32.2118C131.607 33.2565 131.613 34.3083 131.185 35.2989C130.596 36.6639 129.161 37.3494 127.524 37.11C126.122 36.905 125.105 35.8521 124.878 34.3681C124.858 34.2388 124.843 34.1088 124.821 33.9392ZM130.103 32.1416C129.699 31.0696 129.006 30.5853 127.975 30.6537C127.062 30.7143 126.337 31.348 126.183 32.4256C126.081 33.1405 126.105 33.904 126.239 34.6145C126.422 35.5876 127.242 36.1629 128.183 36.1562C129.102 36.1497 129.847 35.5633 130.103 34.6186C130.319 33.8205 130.327 33.0149 130.103 32.1416Z" fill="white"/>
<path id="Vector_18" d="M64.8457 11.2826C64.8457 9.80328 64.8457 8.36759 64.8457 6.90991C65.4974 6.90991 66.1163 6.90991 66.7617 6.90991C66.7617 10.631 66.7617 14.3427 66.7617 18.0738C66.1344 18.0738 65.5155 18.0738 64.8457 18.0738C64.8457 15.8205 64.8457 13.5734 64.8457 11.2826Z" fill="white"/>
<path id="Vector_19" d="M196.553 37.7329C196.797 37.2805 196.771 36.8832 196.593 36.4256C195.78 34.3448 195.008 32.2483 194.223 30.157C194.183 30.0505 194.154 29.9401 194.12 29.8344C194.151 29.8208 194.163 29.8116 194.175 29.8109C195.381 29.737 195.382 29.7366 195.792 30.8827C196.329 32.3846 196.863 33.8874 197.408 35.416C198.084 33.5467 198.757 31.6808 199.432 29.8131C199.837 29.8131 200.213 29.8131 200.62 29.8131C200.603 29.9012 200.598 29.982 200.571 30.0546C199.576 32.718 198.586 35.3834 197.575 38.0407C197.417 38.4561 197.198 38.8606 196.941 39.2233C196.501 39.8447 195.856 40.005 195.125 39.8905C194.854 39.8481 194.671 39.7611 194.687 39.4283C194.699 39.1891 194.638 38.9463 194.609 38.7001C196.029 38.7605 196.164 38.6934 196.553 37.7329Z" fill="white"/>
<path id="Vector_20" d="M153.34 12.0683C153.34 14.0869 153.34 16.0618 153.34 18.0648C152.694 18.0648 152.065 18.0648 151.418 18.0648C151.418 14.353 151.418 10.6529 151.418 6.92065C152.038 6.92065 152.654 6.92065 153.34 6.92065C153.34 8.61131 153.34 10.318 153.34 12.0683Z" fill="white"/>
<path id="Vector_21" d="M116.015 34.7569C116.06 33.4453 116.094 32.1686 116.124 30.8919C116.132 30.5449 116.125 30.1976 116.125 29.8257C116.525 29.8257 116.896 29.8257 117.304 29.8257C117.304 32.1901 117.304 34.5625 117.304 36.9651C116.969 36.9651 116.629 36.9651 116.252 36.9651C116.252 36.6741 116.252 36.3912 116.252 36.1839C115.727 36.4793 115.232 36.8726 114.669 37.0515C113.453 37.4379 112.138 36.8583 111.73 35.8374C111.624 35.5724 111.548 35.2757 111.545 34.9927C111.528 33.2798 111.536 31.5667 111.536 29.827C111.927 29.827 112.311 29.827 112.747 29.827C112.747 30.2413 112.747 30.6574 112.747 31.0735C112.749 32.1634 112.741 33.2534 112.756 34.343C112.77 35.4355 113.128 35.9565 113.908 36.073C114.896 36.2205 115.666 35.7499 116.015 34.7569Z" fill="white"/>
<path id="Vector_22" d="M185.985 31.9692C185.985 31.2316 185.985 30.5376 185.985 29.8224C186.37 29.8224 186.711 29.8224 187.09 29.8224C187.09 30.1045 187.09 30.3733 187.09 30.6748C187.168 30.6455 187.214 30.6428 187.234 30.6187C188.082 29.607 189.167 29.4614 190.358 29.7998C191.16 30.0277 191.63 30.5949 191.748 31.4192C191.806 31.82 191.818 32.2299 191.82 32.6358C191.828 34.073 191.823 35.5104 191.823 36.9713C191.409 36.9713 191.024 36.9713 190.603 36.9713C190.603 35.7904 190.604 34.6304 190.602 33.4703C190.602 33.0632 190.61 32.6555 190.591 32.249C190.535 31.0115 189.646 30.41 188.462 30.7975C187.769 31.024 187.348 31.5044 187.296 32.2213C187.229 33.133 187.231 34.0499 187.215 34.9648C187.204 35.618 187.213 36.2715 187.213 36.9599C186.811 36.9599 186.429 36.9599 185.985 36.9599C185.985 35.3134 185.985 33.6631 185.985 31.9692Z" fill="white"/>
<path id="Vector_23" d="M142.13 30.6536C140.953 30.6546 140.218 31.1535 140.045 32.252C139.923 33.0238 139.935 33.8481 140.063 34.62C140.231 35.6385 140.98 36.1729 141.933 36.156C142.845 36.1397 143.42 35.6046 143.648 34.5595C143.663 34.4914 143.686 34.4251 143.711 34.3365C144.099 34.3911 144.469 34.4431 144.836 34.4947C144.877 35.7497 143.687 36.9945 142.339 37.1279C140.438 37.3158 139.129 36.3714 138.747 34.4977C138.55 33.5285 138.603 32.5585 138.941 31.6203C139.438 30.2426 140.757 29.4833 142.309 29.6664C143.699 29.8303 144.529 30.5761 144.754 31.9038C144.373 31.9583 143.993 32.0126 143.598 32.069C143.385 31.3031 142.991 30.7551 142.13 30.6536Z" fill="white"/>
<path id="Vector_24" d="M120.099 29.8012C120.268 29.8012 120.396 29.8012 120.566 29.8012C120.566 29.3195 120.589 28.8721 120.558 28.4283C120.537 28.1213 120.648 27.943 120.909 27.8088C121.177 27.6712 121.431 27.5071 121.746 27.3225C121.746 28.1609 121.746 28.9488 121.746 29.7849C122.169 29.7849 122.553 29.7849 122.961 29.7849C122.961 30.1174 122.961 30.4026 122.961 30.7273C122.595 30.7273 122.21 30.7273 121.766 30.7273C121.766 30.9344 121.766 31.1028 121.766 31.2712C121.766 32.4927 121.764 33.7141 121.766 34.9355C121.768 35.8848 121.853 35.9679 122.81 35.9835C122.865 35.9844 122.92 35.9977 122.999 36.0085C123.052 36.3426 123.104 36.6675 123.161 37.03C122.535 37.1802 121.935 37.2288 121.35 37.0001C120.811 36.7895 120.601 36.3403 120.596 35.786C120.584 34.3467 120.576 32.9073 120.566 31.468C120.565 31.2502 120.566 31.0324 120.566 30.7685C120.274 30.7685 119.994 30.7685 119.689 30.7685C119.689 30.4387 119.689 30.1543 119.689 29.8276C119.809 29.819 119.933 29.8101 120.099 29.8012Z" fill="white"/>
<path id="Vector_25" d="M93.6241 29.8005C93.7925 29.8063 93.9194 29.8121 94.0642 29.8187C94.0707 29.9411 94.0806 30.0397 94.0806 30.1383C94.0805 32.593 94.0869 35.0477 94.0715 37.5023C94.0688 37.9329 94.0055 38.3698 93.9145 38.7917C93.7679 39.471 93.2878 39.8247 92.6227 39.8976C92.2134 39.9425 91.7952 39.9059 91.3018 39.9059C91.4028 39.4599 91.4749 39.1416 91.5447 38.8337C91.5898 38.815 91.6176 38.7916 91.6407 38.7956C92.5764 38.9563 92.8377 38.7605 92.8435 37.8041C92.8585 35.3059 92.8524 32.8076 92.8547 30.3094C92.8548 30.1538 92.8547 29.9981 92.8547 29.8005C93.1256 29.8005 93.3541 29.8005 93.6241 29.8005Z" fill="white"/>
<path id="Vector_26" d="M79.8506 27.5358C79.8506 27.3802 79.8506 27.2663 79.8506 27.0947C80.0763 27.0947 80.2736 27.0947 80.4709 27.0947C80.6562 27.0947 80.8414 27.0947 81.0471 27.0947C81.0471 30.4057 81.0471 33.6802 81.0471 36.9747C80.6587 36.9747 80.2863 36.9747 79.8506 36.9747C79.8506 33.8361 79.8506 30.7067 79.8506 27.5358Z" fill="white"/>
<path id="Vector_27" d="M140.573 8.35315C140.117 8.90727 139.445 9.0422 138.886 8.71949C138.284 8.37213 138.237 7.48074 138.797 7.06838C139.223 6.75523 139.841 6.74528 140.266 7.04475C140.679 7.3358 140.776 7.72239 140.573 8.35315Z" fill="white"/>
<path id="Vector_28" d="M120.786 20.9831C120.109 20.7015 119.871 20.2618 120.053 19.6863C120.22 19.1602 120.831 18.8571 121.436 19.0003C122.053 19.1463 122.364 19.6108 122.258 20.2281C122.158 20.809 121.587 21.1115 120.786 20.9831Z" fill="white"/>
<path id="Vector_29" d="M126.172 20.8189C125.757 20.4201 125.685 19.8673 125.972 19.4724C126.27 19.064 126.95 18.9276 127.432 19.1797C127.873 19.4106 128.073 19.9263 127.909 20.41C127.71 20.9984 126.914 21.1972 126.172 20.8189Z" fill="white"/>
<path id="Vector_30" d="M54.7101 8.33944C55.1063 7.8667 55.5837 7.79774 56.1063 7.97787C56.5124 8.11786 56.7294 8.48529 56.7105 8.93329C56.6918 9.37498 56.4703 9.66977 56.0514 9.80109C55.5909 9.94546 55.1459 9.89963 54.8056 9.53771C54.4824 9.19396 54.4899 8.78107 54.7101 8.33944Z" fill="white"/>
<path id="Vector_31" d="M84.5341 20.0203C84.5177 20.5305 84.2933 20.8508 83.8262 20.9757C83.3613 21.0999 82.9193 21.0486 82.5865 20.6763C82.3089 20.3657 82.3094 19.9856 82.4718 19.6151C82.6432 19.2239 83.1093 19.0032 83.6023 19.0588C84.1276 19.1181 84.3993 19.3886 84.5341 20.0203Z" fill="white"/>
<path id="Vector_32" d="M130.935 20.2232C130.849 20.7554 130.499 20.9571 130.051 21.0163C129.611 21.0745 129.195 20.9831 128.942 20.5839C128.715 20.2247 128.738 19.8349 128.977 19.4781C129.229 19.1023 129.768 18.9581 130.266 19.1171C130.748 19.2714 130.943 19.5819 130.935 20.2232Z" fill="white"/>
<path id="Vector_33" d="M162.058 8.59388C161.414 8.54103 161.091 8.30537 160.992 7.84428C160.895 7.3893 161.061 6.98877 161.442 6.7641C161.849 6.52386 162.476 6.59011 162.818 6.90449C163.133 7.19441 163.188 7.56048 163.066 7.93717C162.919 8.38857 162.554 8.57458 162.058 8.59388Z" fill="white"/>
<path id="Vector_34" d="M58.2838 9.8171C57.6413 9.54032 57.4093 9.08145 57.6038 8.53103C57.7759 8.04411 58.4118 7.77333 58.9901 7.94077C59.5548 8.10426 59.8171 8.56495 59.6816 9.15512C59.5601 9.6842 59.0251 9.94703 58.2838 9.8171Z" fill="white"/>
<path id="Vector_35" d="M80.929 20.949C80.6685 20.9768 80.4336 21.0334 80.2121 21.0003C79.6297 20.9132 79.3456 20.542 79.3797 19.9762C79.4098 19.4778 79.7789 19.116 80.315 19.0594C80.8779 19.0001 81.3885 19.3136 81.5023 19.7883C81.6254 20.3019 81.4704 20.6308 80.929 20.949Z" fill="white"/>
<path id="Vector_36" d="M165.649 8.43583C164.782 8.81865 163.985 8.42966 163.965 7.6471C163.953 7.16622 164.251 6.76887 164.706 6.65661C165.251 6.52243 165.815 6.73811 166.024 7.16103C166.237 7.59032 166.097 8.09756 165.649 8.43583Z" fill="white"/>
<path id="Vector_37" d="M192.354 7.34495C192.757 7.78116 192.814 8.34371 192.516 8.70101C192.214 9.06276 191.521 9.15967 191.068 8.90331C190.676 8.68069 190.517 8.18299 190.692 7.72564C190.914 7.1466 191.64 6.96941 192.354 7.34495Z" fill="white"/>
<path id="Vector_38" d="M193.865 8.80729C193.485 8.35651 193.454 7.85015 193.761 7.48892C194.086 7.10677 194.729 7.01366 195.191 7.28201C195.602 7.521 195.763 8.02308 195.577 8.49022C195.352 9.05411 194.569 9.21173 193.865 8.80729Z" fill="white"/>
<path id="Vector_39" d="M192.691 6.76295C192.181 6.57292 192.107 5.95256 192.302 5.60381C192.517 5.21904 193.067 5.06073 193.53 5.24961C193.96 5.4251 194.151 5.8243 194.02 6.27757C193.883 6.7537 193.369 6.95115 192.691 6.76295Z" fill="white"/>
<path id="Vector_40" d="M94.0821 28.3663C93.8758 28.4534 93.6723 28.5146 93.4644 28.54C93.2815 28.5624 93.0937 28.5447 92.8809 28.5447C92.8809 28.0569 92.8809 27.6021 92.8809 27.1201C93.267 27.1201 93.6494 27.1201 94.0831 27.1201C94.0831 27.5239 94.0831 27.9244 94.0821 28.3663Z" fill="white"/>
</g>
</g>
</svg>
