<svg width="201" height="45" viewBox="0 0 201 45" fill="none" xmlns="http://www.w3.org/2000/svg">
<g id="Group 1000006778">
<g id="Group 1000006779">
<circle id="Ellipse 10322" cx="178.31" cy="22.31" r="22.31" fill="black"/>
<path id="Vector" d="M193.532 6.01597C197.39 9.68591 199.699 14.1239 200.417 19.3736C200.822 22.3346 200.608 25.2598 199.858 28.1523C199.761 28.5241 199.588 28.6291 199.233 28.6411C197.711 28.6923 196.212 28.5861 194.756 28.099C191.959 27.163 190.309 25.2022 189.783 22.3414C189.559 21.1262 188.635 20.6689 187.542 21.3149C187.257 21.4837 186.981 21.6838 186.74 21.9115C184.555 23.9782 181.688 24.4514 178.951 23.2296C176.805 22.272 175.08 20.7789 173.53 19.0626C172.839 18.2981 172.176 17.502 171.569 16.6705C171.152 16.1005 170.855 15.4435 170.501 14.8275C169.796 13.5995 169.014 12.4317 167.9 11.5244C166.807 10.6345 165.687 10.4693 164.68 11.058C163.686 11.6386 163.09 12.9353 163.363 14.1959C163.529 14.966 163.776 15.753 164.159 16.4357C165.308 18.4859 166.734 20.3415 168.452 21.9559C168.83 22.3111 169.268 22.6109 169.709 22.8859C169.937 23.0279 170.008 23.1706 170.037 23.4279C170.193 24.8421 170.372 26.254 170.559 27.6645C170.594 27.9323 170.702 28.1904 170.847 28.4422C170.89 27.8218 170.931 27.2012 170.978 26.581C170.988 26.4511 171.011 26.3214 171.039 26.1938C171.35 24.7451 171.789 24.4213 173.249 24.5607C174.678 24.697 175.445 25.4295 175.452 26.712C175.454 27.0831 175.363 27.4559 175.302 27.8259C175.184 28.5406 174.982 29.251 174.955 29.9685C174.919 30.9101 175.352 31.1969 176.281 31.055C177.562 30.8594 178.852 30.7017 180.144 30.9192C180.785 31.0271 181.405 31.264 182.046 31.3725C183.49 31.6167 184.273 31.0121 184.629 29.5893C184.893 28.538 185.231 27.4961 185.643 26.4938C186.121 25.3291 187.216 25.0217 188.335 24.8931C188.916 24.8264 189.386 25.1832 189.638 25.6908C189.88 26.1788 190.053 26.7111 190.183 27.2419C190.654 29.1565 191.454 30.8862 192.897 32.2715C194.017 33.3469 195.363 33.8827 196.909 33.9326C197.023 33.9363 197.137 33.9476 197.26 33.9559C194.505 38.97 187.425 44.8092 177.875 44.6192C168.079 44.4242 159.553 37.8805 156.873 28.4568C154.076 18.62 158.186 8.54935 166.515 3.4036C175.225 -1.97751 186.123 -0.883442 193.532 6.01597Z" fill="white"/>
</g>
<g id="Group 1000006781">
<path id="Vector_2" d="M46.8964 12.2351C46.8964 11.1171 46.8964 10.0427 46.8964 8.93648C47.5344 8.93648 48.1501 8.93648 48.7715 8.93648C48.7822 8.953 48.8101 8.97609 48.8101 8.99915C48.8083 10.8026 48.8167 12.6062 48.7948 14.4095C48.7851 15.2025 48.8529 15.3977 49.6396 15.5592C50.3126 15.6974 51.0117 15.7084 51.7467 15.7803C51.7467 12.6225 51.7467 9.56111 51.7467 6.47212C52.4026 6.47212 53.0196 6.47212 53.6756 6.47212C53.6756 9.53479 53.6756 12.5972 53.6756 15.6884C54.622 15.6884 55.5306 15.6884 56.4944 15.6884C56.4944 12.6261 56.4944 9.55423 56.4944 6.46362C57.4617 6.46362 58.3742 6.46362 59.3187 6.46362C59.3187 7.08303 59.3187 7.69963 59.3187 8.36916C59.0478 8.36916 58.7669 8.36916 58.4489 8.36916C58.4489 11.4837 58.4489 14.5461 58.4489 17.5921C58.3865 17.6206 58.3616 17.6419 58.3367 17.6419C55.6896 17.6445 53.0425 17.6557 50.3955 17.6406C49.5161 17.6356 48.7391 17.3507 48.1917 16.5288C47.455 17.4871 46.4466 17.7717 45.333 17.7855C44.2053 17.7994 43.201 17.5157 42.5017 16.4957C41.8694 17.0427 41.1926 17.4731 40.3649 17.5924C40.15 17.6233 39.9316 17.6456 39.7148 17.6457C34.1729 17.6489 28.6311 17.6485 23.0893 17.6484C23.0323 17.6484 22.9754 17.6436 22.8887 17.6398C22.8887 13.92 22.8887 10.2076 22.8887 6.46968C23.5046 6.46968 24.1218 6.46968 24.7768 6.46968C24.7768 9.53737 24.7768 12.6001 24.7768 15.6901C26.2468 15.6901 27.6799 15.6901 29.1602 15.6901C29.1602 13.778 29.1602 11.8541 29.1602 9.9003C29.824 9.9003 30.4416 9.9003 31.1069 9.9003C31.1069 11.8157 31.1069 13.7414 31.1069 15.6921C32.8907 15.6921 34.6274 15.6921 36.4034 15.6921C36.4034 13.985 36.4034 12.291 36.4034 10.5767C37.0596 10.5767 37.6768 10.5767 38.3349 10.5767C38.3349 12.2839 38.3349 13.9778 38.3349 15.7448C39.0101 15.7125 39.6518 15.7382 40.2733 15.6381C41.1099 15.5033 41.5495 14.9283 41.56 14.0759C41.5726 13.0578 41.5645 12.0395 41.5654 11.0214C41.5655 10.8795 41.5654 10.7376 41.5654 10.5761C42.2208 10.5761 42.8384 10.5761 43.4992 10.5761C43.4992 11.5728 43.4942 12.5572 43.502 13.5415C43.5045 13.8602 43.5154 14.1827 43.5659 14.4965C43.6905 15.2715 44.2358 15.7614 45.0111 15.8294C46.2002 15.9335 46.8661 15.3462 46.8916 14.1549C46.905 13.5298 46.8955 12.9041 46.8964 12.2351Z" fill="white"/>
<path id="Vector_3" d="M70.3155 10.4447C71.9092 11.9143 71.9625 13.743 71.6159 15.6915C72.9402 15.6915 74.2408 15.6915 75.5856 15.6915C75.5856 13.7786 75.5856 11.8539 75.5856 9.89967C76.2455 9.89967 76.8625 9.89967 77.5276 9.89967C77.5276 11.8114 77.5276 13.7357 77.5276 15.6884C78.7566 15.6884 79.9381 15.6884 81.1575 15.6884C81.1575 12.6133 81.1575 9.55046 81.1575 6.46582C81.8142 6.46582 82.4332 6.46582 83.0877 6.46582C83.0877 9.54126 83.0877 12.6031 83.0877 15.6911C85.3125 15.6911 87.5021 15.6911 89.731 15.6911C89.9133 14.852 90.0711 13.9955 89.8877 13.1278C89.7117 12.2955 89.1831 11.7837 88.3359 11.6149C87.3916 11.4267 86.5175 11.6074 85.6615 12.1366C85.3917 11.5797 85.1295 11.0387 84.8464 10.4544C86.469 9.60639 88.138 9.13682 89.8047 10.0702C92.0405 11.3222 92.0685 13.456 91.7266 15.6875C92.5785 15.6875 93.4107 15.6875 94.2795 15.6875C94.2795 12.6281 94.2795 9.56627 94.2795 6.47419C95.252 6.47419 96.1885 6.47419 97.1308 6.47419C97.1308 7.10298 97.1308 7.72195 97.1308 8.37803C96.8405 8.37803 96.5712 8.37803 96.2641 8.37803C96.2641 11.4764 96.2641 14.5377 96.2641 17.6379C86.2854 17.6379 76.3451 17.6379 66.376 17.6379C66.2912 18.5069 66.6106 19.2295 67.0026 19.982C66.5082 20.2135 66.0274 20.4387 65.5158 20.6782C64.4114 19.1795 64.2396 17.5147 64.5129 15.7231C66.2201 15.7231 67.9033 15.7231 69.6161 15.7231C69.8145 14.8924 69.9404 14.075 69.8043 13.2513C69.6272 12.1796 68.8989 11.6018 67.7529 11.5462C66.9762 11.5085 66.2569 11.6894 65.5615 12.1448C65.2893 11.581 65.0275 11.0386 64.7668 10.4986C66.3029 9.46158 68.7555 9.17475 70.3155 10.4447Z" fill="white"/>
<path id="Vector_4" d="M108.077 11.5486C108.971 10.4131 110.181 10.0033 111.529 9.88875C111.787 9.86685 112.048 9.88561 112.336 9.88561C112.353 9.63645 112.368 9.4273 112.384 9.19781C113.021 9.19781 113.64 9.19781 114.293 9.19781C114.293 11.3534 114.293 13.5022 114.293 15.6841C117.515 15.6841 120.703 15.6841 123.977 15.6841C123.94 14.9848 123.961 14.272 123.851 13.5799C123.731 12.8211 123.138 12.4269 122.283 12.4239C120.523 12.4179 118.764 12.4132 117.004 12.4302C116.696 12.4332 116.493 12.3482 116.398 12.068C116.246 11.6183 116.098 11.1656 115.987 10.705C115.954 10.5719 116.023 10.3916 116.094 10.2595C116.73 9.08519 117.382 7.9191 118.018 6.74467C118.135 6.52875 118.267 6.42763 118.526 6.43769C119.077 6.45909 119.628 6.44423 120.265 6.44423C119.548 7.81082 118.861 9.12195 118.143 10.4924C119.478 10.4924 120.739 10.4829 121.999 10.4975C122.447 10.5027 122.906 10.5182 123.341 10.6121C124.981 10.9651 125.795 11.9764 125.861 13.797C125.907 15.0597 125.87 16.3254 125.87 17.6217C125.763 17.6305 125.652 17.6475 125.541 17.6475C121.033 17.6483 116.524 17.6661 112.016 17.6292C111.247 17.6229 110.44 17.49 109.718 17.23C107.412 16.4004 106.609 13.5619 108.077 11.5486ZM112.347 15.661C112.347 14.3789 112.347 13.0968 112.347 11.6904C111.672 11.8215 111.046 11.8707 110.473 12.0719C109.679 12.3506 109.263 13.0748 109.301 13.874C109.337 14.6456 109.816 15.3221 110.61 15.5306C111.146 15.6713 111.723 15.6574 112.347 15.661Z" fill="white"/>
<path id="Vector_5" d="M140.27 10.8455C140.349 10.7201 140.426 10.5698 140.508 10.5667C141.057 10.5455 141.607 10.5557 142.2 10.5557C142.2 11.4499 142.199 12.3184 142.2 13.1869C142.2 13.5214 142.186 13.8572 142.21 14.1901C142.304 15.4826 143.426 16.1887 144.646 15.7338C145.252 15.508 145.589 14.9558 145.593 14.1164C145.601 12.4013 145.595 10.686 145.595 8.9375C146.226 8.9375 146.843 8.9375 147.471 8.9375C147.478 8.94623 147.511 8.96896 147.511 8.99143C147.495 10.91 147.581 12.8367 147.433 14.7451C147.264 16.9039 145.892 17.926 143.713 17.7842C142.69 17.7177 141.808 17.4038 141.196 16.4891C140.564 17.0509 139.869 17.4832 139.023 17.5991C138.751 17.6364 138.473 17.6464 138.197 17.6468C135.784 17.6503 133.37 17.6489 130.927 17.6489C130.88 17.9576 130.847 18.256 130.789 18.5497C130.492 20.0688 129.697 20.7746 127.825 20.67C127.147 20.6321 127.148 20.6055 127.109 19.9371C127.084 19.52 127.06 19.1028 127.035 18.6763C127.408 18.6978 127.753 18.7506 128.094 18.7297C128.609 18.6981 128.851 18.4563 128.921 17.9436C128.96 17.6567 128.965 17.3635 128.966 17.0732C128.969 14.848 128.968 12.6228 128.968 10.3976C128.968 10.2396 128.968 10.0816 128.968 9.89721C129.629 9.89721 130.257 9.89721 130.914 9.89721C130.914 11.8303 130.914 13.7459 130.914 15.6893C132.314 15.6893 133.686 15.6893 135.098 15.6893C135.098 13.9869 135.098 12.2932 135.098 10.5777C135.756 10.5777 136.373 10.5777 137.031 10.5777C137.031 12.282 137.031 13.9762 137.031 15.6883C137.648 15.6883 138.232 15.7469 138.799 15.6753C139.783 15.5511 140.26 14.9538 140.268 13.9427C140.276 12.9248 140.27 11.9067 140.27 10.8455Z" fill="white"/>
<path id="Vector_6" d="M10.3693 12.8461C10.3693 14.4577 10.3693 16.0257 10.3693 17.6258C10.2486 17.6348 10.1526 17.6482 10.0565 17.6482C8.09359 17.6488 6.1303 17.6689 4.16795 17.6349C3.55071 17.6243 2.91062 17.548 2.3251 17.3625C0.864875 16.8999 0.0884577 15.8426 0.0230463 14.3175C-0.0229774 13.2444 0.0141512 12.1677 0.0141512 11.0606C0.626539 11.0606 1.24296 11.0606 1.92504 11.0606C1.92504 11.315 1.919 11.5844 1.92617 11.8535C1.94743 12.6513 1.93584 13.4525 2.00958 14.2456C2.07636 14.9638 2.56062 15.3737 3.23816 15.5494C3.51829 15.6221 3.80911 15.6916 4.09578 15.6946C5.51825 15.7093 6.94096 15.7013 8.41119 15.7013C8.41119 13.7672 8.41119 11.8431 8.41119 9.89453C9.07688 9.89453 9.69548 9.89453 10.3693 9.89453C10.3693 10.8633 10.3693 11.8328 10.3693 12.8461Z" fill="white"/>
<path id="Vector_7" d="M110.459 30.3803C109.828 30.6626 109.487 31.1406 109.453 31.7801C109.402 32.766 109.405 33.7548 109.392 34.7425C109.385 35.323 109.391 35.9037 109.391 36.5175C108.987 36.5175 108.605 36.5175 108.171 36.5175C108.171 36.1569 108.171 35.7989 108.171 35.441C108.171 34.2924 108.171 33.1437 108.17 31.995C108.17 31.9223 108.171 31.8496 108.169 31.7769C108.148 30.7906 107.831 30.3482 107.085 30.2627C106.245 30.1664 105.466 30.6758 105.285 31.501C105.184 31.9651 105.151 32.4507 105.143 32.9275C105.124 34.1168 105.137 35.3066 105.137 36.5234C104.733 36.5234 104.362 36.5234 103.957 36.5234C103.957 34.1551 103.957 31.78 103.957 29.3805C104.301 29.3805 104.64 29.3805 105.017 29.3805C105.017 29.6649 105.017 29.932 105.017 30.3014C105.63 29.5463 106.341 29.1808 107.218 29.1964C108.09 29.2119 108.815 29.5002 109.206 30.417C109.722 29.7294 110.334 29.297 111.164 29.2063C112.518 29.0582 113.451 29.7376 113.583 31.0918C113.668 31.9565 113.631 32.8336 113.637 33.7053C113.644 34.6341 113.639 35.563 113.639 36.5213C113.228 36.5213 112.845 36.5213 112.426 36.5213C112.426 35.2278 112.427 33.9511 112.425 32.6743C112.424 32.2819 112.438 31.8872 112.403 31.4975C112.317 30.5566 111.76 30.1367 110.83 30.2868C110.716 30.3052 110.605 30.3412 110.459 30.3803Z" fill="white"/>
<path id="Vector_8" d="M7.03417 36.5515C6.81275 36.4417 6.5702 36.3746 6.45586 36.2154C5.41377 34.7648 4.39411 33.298 3.36738 31.8363C3.3106 31.7555 3.24919 31.6779 3.16297 31.5628C2.63622 32.0721 2.11988 32.5558 1.62732 33.0627C1.5453 33.1471 1.54494 33.332 1.54403 33.4707C1.5375 34.4732 1.54053 35.4758 1.54053 36.5148C1.11065 36.5148 0.699325 36.5148 0.258789 36.5148C0.258789 33.2427 0.258789 29.965 0.258789 26.6687C0.677872 26.6687 1.08049 26.6687 1.53916 26.6687C1.53916 28.2581 1.53916 29.8458 1.53916 31.4335C1.57756 31.4533 1.61596 31.473 1.65435 31.4927C2.26771 30.864 2.87717 30.2315 3.49538 29.6076C4.3344 28.7609 5.19581 27.9356 6.01491 27.0702C6.32354 26.7442 6.63805 26.5983 7.08043 26.6432C7.41989 26.6777 7.76565 26.6501 8.23338 26.6501C6.80934 28.0293 5.47054 29.326 4.08873 30.6643C5.51264 32.6016 6.9352 34.5371 8.41577 36.5515C7.92182 36.5515 7.49716 36.5515 7.03417 36.5515Z" fill="white"/>
<path id="Vector_9" d="M56.7113 34.255C57.0231 35.0205 57.3206 35.7558 57.6422 36.5506C57.1714 36.5506 56.7543 36.5707 56.3416 36.537C56.233 36.5282 56.0926 36.3712 56.0439 36.251C55.7281 35.4714 55.4236 34.6867 55.138 33.8956C55.0509 33.6545 54.9428 33.5552 54.6732 33.5588C53.5104 33.5747 52.3471 33.5736 51.1842 33.5593C50.9339 33.5562 50.8251 33.6474 50.7477 33.8712C50.4726 34.6663 50.173 35.4531 49.9012 36.2493C49.8231 36.478 49.7173 36.5747 49.4671 36.5567C49.1368 36.5328 48.8035 36.5508 48.4062 36.5508C48.4997 36.2793 48.5705 36.0512 48.6559 35.8288C49.7893 32.876 50.9276 29.9252 52.0543 26.9699C52.1465 26.7279 52.2606 26.6257 52.5257 26.6445C52.8721 26.6691 53.2215 26.6505 53.595 26.6505C54.6303 29.1785 55.6636 31.7016 56.7113 34.255ZM51.4367 32.4991C52.4727 32.4991 53.5087 32.4991 54.5839 32.4991C53.997 30.9137 53.435 29.3956 52.8783 27.8916C52.6319 28.6251 52.394 29.365 52.1343 30.0972C51.8726 30.835 51.587 31.5642 51.3199 32.3001C51.3006 32.3532 51.3464 32.43 51.4367 32.4991Z" fill="white"/>
<path id="Vector_10" d="M117.643 29.6976C117.643 29.8613 117.643 29.9869 117.643 30.0348C118.125 29.7765 118.581 29.401 119.095 29.2813C120.633 28.9239 121.964 29.7315 122.477 31.2299C122.802 32.1756 122.815 33.1367 122.618 34.1086C122.16 36.3722 119.63 37.6022 117.756 35.9275C117.756 37.0496 117.756 38.1468 117.756 39.2782C117.346 39.2782 116.964 39.2782 116.555 39.2782C116.555 35.9967 116.555 32.7064 116.555 29.3571C116.851 29.3571 117.152 29.3371 117.448 29.3709C117.523 29.3795 117.579 29.5587 117.643 29.6976ZM119.136 30.2145C118.826 30.4434 118.436 30.6139 118.222 30.9115C117.424 32.0231 117.502 33.268 117.875 34.4961C118.104 35.2503 118.8 35.7046 119.517 35.7122C120.251 35.7201 120.95 35.2603 121.224 34.5107C121.606 33.4678 121.62 32.3981 121.237 31.3537C120.906 30.4507 120.09 30.014 119.136 30.2145Z" fill="white"/>
<path id="Vector_11" d="M23.4816 29.339C24.6051 29.719 24.9574 30.1836 24.982 31.3312C25.0085 32.5666 24.9976 33.8031 25.0422 35.0378C25.0597 35.5212 25.1835 36.0008 25.2695 36.5504C24.9993 36.5504 24.6602 36.5733 24.3255 36.545C23.8259 36.5028 24.0422 35.991 23.8275 35.7355C23.6037 35.887 23.3849 36.0494 23.1527 36.1895C22.2587 36.7289 21.2946 36.8323 20.2957 36.5889C19.4459 36.3818 18.8879 35.7564 18.7987 34.9175C18.706 34.0452 19.0276 33.3502 19.7838 32.8828C20.4762 32.4548 21.2742 32.4361 22.0462 32.3134C22.6158 32.2229 23.181 32.1056 23.7285 32.0039C23.8608 30.787 23.4231 30.2625 22.2875 30.2106C22.0846 30.2013 21.8803 30.2067 21.6773 30.217C20.8457 30.259 20.3857 30.7319 20.207 31.5635C19.8057 31.5123 19.4252 31.4637 19.0079 31.4104C19.1736 30.507 19.5955 29.8435 20.4475 29.5126C21.4257 29.1326 22.4301 29.1105 23.4816 29.339ZM20.1182 34.9004C20.2918 35.1234 20.4217 35.4164 20.6468 35.5572C21.6239 36.1687 23.3299 35.5239 23.6357 34.4189C23.7642 33.9547 23.7521 33.4515 23.8042 32.9628C22.8467 33.1578 21.9528 33.3226 21.0675 33.5253C20.3216 33.696 20.0608 34.0757 20.1182 34.9004Z" fill="white"/>
<path id="Vector_12" d="M125.146 31.3418C125.337 30.2988 125.93 29.6506 126.925 29.382C127.796 29.1467 128.678 29.1157 129.555 29.3334C130.607 29.5945 131.08 30.1773 131.104 31.2554C131.129 32.4037 131.098 33.5536 131.138 34.7012C131.159 35.3009 131.28 35.897 131.362 36.5504C131.106 36.5504 130.764 36.5775 130.428 36.544C129.931 36.4944 130.172 35.9675 129.918 35.7161C129.058 36.4939 128.034 36.7986 126.875 36.6827C125.833 36.5785 125.087 35.9561 124.932 35.0403C124.757 34.0115 125.232 33.0679 126.262 32.723C127.051 32.4587 127.904 32.389 128.728 32.2268C129.109 32.1518 129.487 32.0628 129.851 31.9836C129.965 30.7567 129.519 30.2464 128.348 30.2061C127.111 30.1636 126.741 30.3993 126.271 31.5748C125.908 31.5095 125.531 31.4418 125.146 31.3418ZM128.379 35.6685C129.585 35.2469 130.076 34.3315 129.837 32.9802C128.932 33.164 128.023 33.3291 127.123 33.5381C126.456 33.6933 126.169 34.1011 126.213 34.7182C126.251 35.2669 126.637 35.6587 127.277 35.7253C127.618 35.7607 127.967 35.7066 128.379 35.6685Z" fill="white"/>
<path id="Vector_13" d="M32.1087 31.1615C32.8479 29.5486 34.4372 28.8412 36.142 29.3407C37.6576 29.7847 38.6024 31.4476 38.349 33.271C36.602 33.271 34.8494 33.271 33.1004 33.271C32.9589 34.8559 34.3081 36.0354 35.7551 35.6392C36.3358 35.4802 36.7098 35.0974 36.9323 34.5648C37.0466 34.2909 37.1767 34.1836 37.4838 34.2732C37.7436 34.349 38.0244 34.3531 38.3372 34.3944C38.1104 35.266 37.6598 35.9221 36.8869 36.3283C35.0925 37.2713 32.8486 36.5541 32.1053 34.8121C31.7516 33.9833 31.7155 33.1178 31.8289 32.2439C31.8751 31.8879 32.0046 31.5428 32.1087 31.1615ZM36.2286 30.5128C35.517 30.0867 34.7867 30.0667 34.0838 30.4951C33.4333 30.8914 33.1513 31.5156 33.1261 32.2771C34.4658 32.2771 35.7699 32.2771 37.0973 32.2771C37.0337 31.5846 36.8456 30.9802 36.2286 30.5128Z" fill="white"/>
<path id="Vector_14" d="M11.6411 32.1079C11.6378 33.5986 11.6378 35.0504 11.6378 36.5245C11.2046 36.5245 10.82 36.5245 10.4238 36.5245C10.4238 33.2316 10.4238 29.9651 10.4238 26.6746C10.8145 26.6746 11.1862 26.6746 11.5979 26.6746C11.5979 27.7993 11.5979 28.9256 11.5979 30.1266C11.7216 30.0392 11.7896 30.0015 11.8454 29.9504C12.7156 29.1533 14.0318 28.9638 15.0946 29.4789C15.8816 29.8604 16.2048 30.5467 16.2207 31.3575C16.2542 33.0719 16.2309 34.7873 16.2309 36.5265C15.8396 36.5265 15.454 36.5265 15.0235 36.5265C15.0235 35.7062 15.0238 34.8965 15.0234 34.0868C15.023 33.3595 15.0297 32.6322 15.0192 31.905C15.0044 30.8805 14.615 30.3837 13.7584 30.2706C12.8402 30.1493 12.0169 30.66 11.7634 31.5159C11.71 31.6962 11.6833 31.8844 11.6411 32.1079Z" fill="white"/>
<path id="Vector_15" d="M20.2686 10.6669C20.2671 12.9325 20.2705 15.1548 20.2593 17.3771C20.2574 17.7672 20.2275 18.1635 20.1534 18.546C19.8479 20.1244 18.8455 20.8374 17.1957 20.6771C16.5324 20.6127 16.5299 20.6129 16.4774 19.9587C16.4472 19.5824 16.4261 19.2053 16.4028 18.8285C16.4002 18.7869 16.4095 18.7446 16.4168 18.6641C16.6748 18.692 16.9256 18.7295 17.1776 18.7442C17.8714 18.7848 18.1744 18.5489 18.286 17.8696C18.3233 17.6421 18.3294 17.4074 18.3297 17.176C18.3327 14.9101 18.3315 12.6442 18.3316 10.3784C18.3316 10.2221 18.3316 10.0659 18.3316 9.89014C18.9841 9.89014 19.6012 9.89014 20.2686 9.89014C20.2686 10.1396 20.2686 10.3816 20.2686 10.6669Z" fill="white"/>
<path id="Vector_16" d="M101.151 31.2919C101.512 32.4089 101.5 33.5037 101.162 34.5789C100.729 35.9545 99.5012 36.7344 97.9193 36.7022C96.4032 36.6713 95.2713 35.8322 94.8771 34.4335C94.6116 33.4911 94.6075 32.5356 94.8429 31.5915C95.2013 30.1542 96.2882 29.3042 97.8432 29.1981C99.3494 29.0953 100.548 29.845 101.151 31.2919ZM96.5944 35.0964C97.6681 36.0981 99.2737 35.8582 99.8316 34.5649C100.279 33.5277 100.291 32.4335 99.8507 31.3857C99.5496 30.6686 98.9707 30.2475 98.1641 30.2062C97.3289 30.1635 96.6469 30.4893 96.3067 31.2439C95.7253 32.5335 95.7257 33.8282 96.5944 35.0964Z" fill="white"/>
<path id="Vector_17" d="M72.9222 33.4951C72.8621 32.5439 72.9198 31.6461 73.3579 30.8231C74.018 29.5831 75.3825 29.0046 76.9839 29.2583C78.2267 29.4553 79.2793 30.4813 79.5159 31.7677C79.7081 32.8124 79.7146 33.8642 79.2868 34.8548C78.6972 36.2198 77.2627 36.9054 75.6253 36.6659C74.2232 36.4609 73.207 35.408 72.9796 33.924C72.9598 33.7947 72.9442 33.6647 72.9222 33.4951ZM78.205 31.6975C77.8007 30.6256 77.1079 30.1412 76.0768 30.2096C75.1631 30.2702 74.4383 30.9039 74.2845 31.9815C74.1825 32.6964 74.2069 33.4599 74.3404 34.1704C74.5234 35.1435 75.3431 35.7188 76.2849 35.7121C77.2031 35.7056 77.9486 35.1192 78.2044 34.1745C78.4204 33.3764 78.429 32.5708 78.205 31.6975Z" fill="white"/>
<path id="Vector_18" d="M12.9473 10.8385C12.9473 9.35918 12.9473 7.9235 12.9473 6.46582C13.5989 6.46582 14.2179 6.46582 14.8633 6.46582C14.8633 10.1869 14.8633 13.8986 14.8633 17.6297C14.236 17.6297 13.6171 17.6297 12.9473 17.6297C12.9473 15.3764 12.9473 13.1293 12.9473 10.8385Z" fill="white"/>
<path id="Vector_19" d="M144.655 37.2888C144.898 36.8364 144.873 36.4391 144.694 35.9815C143.882 33.9008 143.11 31.8042 142.325 29.713C142.285 29.6064 142.255 29.496 142.222 29.3903C142.253 29.3767 142.264 29.3675 142.276 29.3668C143.482 29.2929 143.483 29.2925 143.893 30.4386C144.43 31.9405 144.965 33.4434 145.51 34.9719C146.185 33.1026 146.859 31.2367 147.533 29.369C147.938 29.369 148.315 29.369 148.722 29.369C148.705 29.4571 148.7 29.538 148.673 29.6105C147.678 32.2739 146.688 34.9394 145.677 37.5966C145.519 38.012 145.3 38.4165 145.042 38.7792C144.602 39.4006 143.958 39.5609 143.226 39.4465C142.956 39.404 142.773 39.317 142.789 38.9842C142.8 38.745 142.74 38.5023 142.711 38.256C144.13 38.3164 144.266 38.2493 144.655 37.2888Z" fill="white"/>
<path id="Vector_20" d="M101.442 11.6242C101.442 13.6428 101.442 15.6177 101.442 17.6207C100.795 17.6207 100.166 17.6207 99.5195 17.6207C99.5195 13.909 99.5195 10.2088 99.5195 6.47656C100.139 6.47656 100.756 6.47656 101.442 6.47656C101.442 8.16721 101.442 9.87387 101.442 11.6242Z" fill="white"/>
<path id="Vector_21" d="M64.117 34.3128C64.1613 33.0012 64.1957 31.7245 64.2253 30.4478C64.2333 30.1008 64.2265 29.7535 64.2265 29.3816C64.6268 29.3816 64.9977 29.3816 65.4052 29.3816C65.4052 31.746 65.4052 34.1184 65.4052 36.521C65.0707 36.521 64.731 36.521 64.3535 36.521C64.3535 36.23 64.3535 35.9471 64.3535 35.7398C63.8289 36.0352 63.334 36.4285 62.771 36.6074C61.5547 36.9938 60.24 36.4143 59.8318 35.3933C59.7258 35.1283 59.6491 34.8316 59.6463 34.5486C59.6294 32.8357 59.6379 31.1226 59.6379 29.3829C60.029 29.3829 60.4126 29.3829 60.8488 29.3829C60.8488 29.7972 60.8482 30.2133 60.8489 30.6294C60.8505 31.7193 60.8427 32.8093 60.8572 33.899C60.8717 34.9914 61.2297 35.5124 62.0101 35.629C62.9979 35.7765 63.7677 35.3058 64.117 34.3128Z" fill="white"/>
<path id="Vector_22" d="M134.087 31.5251C134.087 30.7875 134.087 30.0935 134.087 29.3783C134.472 29.3783 134.813 29.3783 135.192 29.3783C135.192 29.6604 135.192 29.9292 135.192 30.2307C135.27 30.2014 135.315 30.1987 135.336 30.1746C136.184 29.1629 137.269 29.0173 138.46 29.3557C139.262 29.5836 139.731 30.1508 139.85 30.9751C139.907 31.3759 139.919 31.7858 139.921 32.1917C139.93 33.6289 139.925 35.0663 139.925 36.5272C139.511 36.5272 139.126 36.5272 138.704 36.5272C138.704 35.3464 138.705 34.1863 138.704 33.0262C138.704 32.6191 138.711 32.2114 138.693 31.8049C138.636 30.5674 137.748 29.9659 136.563 30.3534C135.871 30.5799 135.449 31.0603 135.397 31.7772C135.331 32.6889 135.332 33.6058 135.317 34.5207C135.306 35.1739 135.315 35.8275 135.315 36.5158C134.912 36.5158 134.53 36.5158 134.087 36.5158C134.087 34.8693 134.087 33.219 134.087 31.5251Z" fill="white"/>
<path id="Vector_23" d="M90.2316 30.2095C89.0541 30.2105 88.3195 30.7094 88.1465 31.8079C88.0249 32.5797 88.0371 33.404 88.1645 34.1759C88.3326 35.1944 89.082 35.7288 90.0343 35.7119C90.947 35.6956 91.5213 35.1605 91.7494 34.1154C91.7643 34.0473 91.7871 33.981 91.8123 33.8924C92.2007 33.947 92.5706 33.999 92.9372 34.0506C92.9786 35.3056 91.7889 36.5504 90.4401 36.6838C88.5398 36.8717 87.2307 35.9274 86.849 34.0537C86.6515 33.0844 86.7049 32.1144 87.0429 31.1762C87.5393 29.7985 88.8583 29.0392 90.4109 29.2223C91.8006 29.3862 92.6304 30.132 92.8554 31.4597C92.4744 31.5142 92.0943 31.5685 91.6995 31.6249C91.4865 30.859 91.0923 30.311 90.2316 30.2095Z" fill="white"/>
<path id="Vector_24" d="M68.2002 29.3571C68.3699 29.3571 68.4979 29.3571 68.6676 29.3571C68.6676 28.8754 68.6903 28.428 68.6598 27.9842C68.6387 27.6772 68.7496 27.4989 69.0107 27.3647C69.2786 27.2271 69.5329 27.0631 69.8479 26.8784C69.8479 27.7168 69.8479 28.5047 69.8479 29.3408C70.271 29.3408 70.6543 29.3408 71.0624 29.3408C71.0624 29.6733 71.0624 29.9585 71.0624 30.2833C70.6963 30.2833 70.3115 30.2833 69.8671 30.2833C69.8671 30.4903 69.8671 30.6587 69.8671 30.8271C69.8671 32.0486 69.8655 33.27 69.8676 34.4915C69.8693 35.4408 69.9545 35.5238 70.9111 35.5394C70.9662 35.5403 71.0211 35.5536 71.1003 35.5644C71.1535 35.8985 71.2052 36.2234 71.2629 36.5859C70.6364 36.7361 70.0369 36.7847 69.4517 36.556C68.913 36.3454 68.703 35.8962 68.6981 35.3419C68.6852 33.9026 68.6772 32.4632 68.6678 31.0239C68.6664 30.8061 68.6676 30.5883 68.6676 30.3244C68.3761 30.3244 68.0958 30.3244 67.791 30.3244C67.791 29.9946 67.791 29.7102 67.791 29.3835C67.9104 29.3749 68.0344 29.366 68.2002 29.3571Z" fill="white"/>
<path id="Vector_25" d="M41.7257 29.3564C41.8941 29.3622 42.0209 29.368 42.1658 29.3746C42.1723 29.497 42.1821 29.5956 42.1821 29.6942C42.1821 32.1489 42.1885 34.6036 42.1731 37.0582C42.1703 37.4888 42.107 37.9257 42.016 38.3476C41.8695 39.0269 41.3893 39.3806 40.7242 39.4535C40.315 39.4984 39.8967 39.4619 39.4033 39.4619C39.5044 39.0158 39.5765 38.6975 39.6462 38.3896C39.6914 38.3709 39.7192 38.3475 39.7422 38.3515C40.678 38.5122 40.9393 38.3164 40.945 37.36C40.9601 34.8618 40.954 32.3635 40.9563 29.8653C40.9564 29.7097 40.9563 29.554 40.9563 29.3564C41.2272 29.3564 41.4556 29.3564 41.7257 29.3564Z" fill="white"/>
<path id="Vector_26" d="M27.9522 27.0917C27.9522 26.9362 27.9522 26.8222 27.9522 26.6506C28.1779 26.6506 28.3752 26.6506 28.5725 26.6506C28.7578 26.6506 28.943 26.6506 29.1487 26.6506C29.1487 29.9616 29.1487 33.2361 29.1487 36.5306C28.7603 36.5306 28.3879 36.5306 27.9521 36.5306C27.9521 33.392 27.9521 30.2626 27.9522 27.0917Z" fill="white"/>
<path id="Vector_27" d="M88.6748 7.90906C88.2182 8.46318 87.5462 8.59811 86.9874 8.27539C86.3859 7.92803 86.3382 7.03664 86.899 6.62429C87.3248 6.31114 87.9427 6.30119 88.3675 6.60066C88.7803 6.89171 88.8779 7.2783 88.6748 7.90906Z" fill="white"/>
<path id="Vector_28" d="M68.8872 20.539C68.2105 20.2574 67.9724 19.8177 68.1549 19.2422C68.3218 18.7161 68.9327 18.413 69.5376 18.5562C70.1542 18.7022 70.4651 19.1667 70.3594 19.784C70.2599 20.3649 69.689 20.6674 68.8872 20.539Z" fill="white"/>
<path id="Vector_29" d="M74.2738 20.3748C73.8583 19.976 73.7864 19.4232 74.0739 19.0283C74.3711 18.6199 75.0514 18.4835 75.5332 18.7357C75.9743 18.9665 76.1744 19.4822 76.0106 19.966C75.8114 20.5543 75.0157 20.7531 74.2738 20.3748Z" fill="white"/>
<path id="Vector_30" d="M2.81163 7.89535C3.20784 7.42261 3.68522 7.35365 4.20783 7.53378C4.61398 7.67377 4.83096 8.0412 4.81202 8.4892C4.79335 8.93089 4.57186 9.22568 4.15297 9.357C3.69248 9.50137 3.24743 9.45554 2.90717 9.09362C2.58399 8.74987 2.59146 8.33698 2.81163 7.89535Z" fill="white"/>
<path id="Vector_31" d="M32.6357 19.5762C32.6193 20.0864 32.3949 20.4067 31.9278 20.5316C31.4629 20.6558 31.0209 20.6045 30.6881 20.2322C30.4105 19.9216 30.411 19.5415 30.5733 19.171C30.7448 18.7798 31.2109 18.5591 31.7038 18.6147C32.2292 18.674 32.5009 18.9445 32.6357 19.5762Z" fill="white"/>
<path id="Vector_32" d="M79.0368 19.7791C78.9507 20.3113 78.6001 20.513 78.1526 20.5722C77.713 20.6304 77.2963 20.539 77.0437 20.1398C76.8164 19.7806 76.84 19.3908 77.0787 19.034C77.3301 18.6582 77.8699 18.514 78.3672 18.673C78.8494 18.8273 79.045 19.1378 79.0368 19.7791Z" fill="white"/>
<path id="Vector_33" d="M110.159 8.14979C109.516 8.09694 109.193 7.86128 109.094 7.40019C108.996 6.94521 109.163 6.54468 109.544 6.32001C109.951 6.07977 110.577 6.14601 110.919 6.4604C111.235 6.75032 111.29 7.11639 111.167 7.49308C111.021 7.94448 110.656 8.13049 110.159 8.14979Z" fill="white"/>
<path id="Vector_34" d="M6.38533 9.373C5.74284 9.09623 5.5109 8.63736 5.70539 8.08694C5.87745 7.60001 6.51338 7.32924 7.09169 7.49668C7.65638 7.66017 7.91871 8.12086 7.78317 8.71103C7.66166 9.24011 7.12664 9.50293 6.38533 9.373Z" fill="white"/>
<path id="Vector_35" d="M29.0306 20.5049C28.77 20.5327 28.5351 20.5893 28.3136 20.5562C27.7313 20.4691 27.4471 20.098 27.4813 19.5321C27.5113 19.0337 27.8804 18.6719 28.4166 18.6153C28.9794 18.556 29.4901 18.8695 29.6038 19.3442C29.7269 19.8578 29.5719 20.1867 29.0306 20.5049Z" fill="white"/>
<path id="Vector_36" d="M113.75 7.99174C112.884 8.37456 112.086 7.98557 112.067 7.203C112.055 6.72213 112.352 6.32478 112.808 6.21252C113.353 6.07834 113.916 6.29402 114.126 6.71694C114.339 7.14623 114.199 7.65347 113.75 7.99174Z" fill="white"/>
<path id="Vector_37" d="M140.455 6.90086C140.859 7.33707 140.916 7.89962 140.618 8.25691C140.316 8.61867 139.622 8.71558 139.17 8.45922C138.777 8.23659 138.618 7.73889 138.794 7.28155C139.016 6.70251 139.741 6.52532 140.455 6.90086Z" fill="white"/>
<path id="Vector_38" d="M141.967 8.3632C141.586 7.91242 141.555 7.40606 141.862 7.04483C142.187 6.66267 142.831 6.56956 143.293 6.83792C143.704 7.07691 143.864 7.57899 143.678 8.04613C143.454 8.61002 142.67 8.76764 141.967 8.3632Z" fill="white"/>
<path id="Vector_39" d="M140.793 6.31885C140.283 6.12883 140.209 5.50847 140.404 5.15972C140.618 4.77495 141.168 4.61663 141.632 4.80552C142.062 4.98101 142.252 5.38021 142.122 5.83348C141.985 6.30961 141.471 6.50705 140.793 6.31885Z" fill="white"/>
<path id="Vector_40" d="M42.1837 27.9222C41.9773 28.0093 41.7739 28.0705 41.566 28.0959C41.3831 28.1183 41.1952 28.1006 40.9824 28.1006C40.9824 27.6128 40.9824 27.1581 40.9824 26.676C41.3686 26.676 41.7509 26.676 42.1846 26.676C42.1846 27.0798 42.1846 27.4803 42.1837 27.9222Z" fill="white"/>
</g>
</g>
</svg>
