<svg width="37" height="37" viewBox="0 0 37 37" fill="none" xmlns="http://www.w3.org/2000/svg">
<g id="Group">
<g id="Group_2">
<path id="Vector" d="M20.8138 31.7247C20.2152 31.7247 19.7295 31.2393 19.7295 30.6407C19.7295 30.042 20.2145 29.5567 20.8131 29.5567H20.8138C21.4126 29.5567 21.8978 30.042 21.8978 30.6407C21.8978 31.2393 21.4126 31.7247 20.8138 31.7247Z" fill="#2D9596"/>
</g>
<g id="Group_3">
<path id="Vector_2" d="M26.5951 3.97461C25.9964 3.97461 25.5107 3.48928 25.5107 2.89063C25.5107 2.29198 25.9957 1.80664 26.5944 1.80664H26.5951C27.1938 1.80664 27.6791 2.29198 27.6791 2.89063C27.6791 3.48928 27.1938 3.97461 26.5951 3.97461Z" fill="#2D9596"/>
</g>
<g id="Group_4">
<path id="Vector_3" d="M4.04821 12.0684C3.44957 12.0684 2.96387 11.5831 2.96387 10.9844C2.96387 10.3858 3.44884 9.90042 4.04749 9.90042H4.04821C4.64694 9.90042 5.1322 10.3858 5.1322 10.9844C5.1322 11.5831 4.64694 12.0684 4.04821 12.0684Z" fill="#2D9596"/>
</g>
<g id="Group_5">
<path id="Vector_4" d="M32.078 18.5L29.4844 27.6778C29.006 27.6778 28.584 27.3642 28.4459 26.9053L28.1973 26.0771C27.3388 23.2147 25.3132 20.8061 22.6401 19.4699C22.273 19.2863 22.041 18.9105 22.041 18.5C22.041 18.0896 22.273 17.7138 22.6401 17.5302C25.3132 16.194 27.3388 13.7854 28.1973 10.923L28.4459 10.0948C28.584 9.63586 29.006 9.3223 29.4844 9.3223L32.078 18.5Z" fill="#268484"/>
</g>
<g id="Group_6">
<path id="Vector_5" d="M37 18.5C37 18.9134 36.7644 19.2914 36.3937 19.4735L36.3749 19.4821C33.6722 20.8133 31.6249 23.2321 30.7584 26.119L30.5228 26.9053C30.3848 27.3642 29.9628 27.6778 29.4844 27.6778V9.3223C29.7236 9.3223 29.9483 9.40034 30.1312 9.5362C30.314 9.67206 30.4542 9.86573 30.5228 10.0948L30.7584 10.8811C31.6249 13.768 33.6722 16.1868 36.3764 17.5187L36.3937 17.5266C36.7644 17.7087 37 18.0867 37 18.5Z" fill="#2D9596"/>
</g>
<g id="Group_7">
<path id="Vector_6" d="M22.3366 8.05763L19.6563 16.1153C19.2046 16.1153 18.7999 15.8349 18.6417 15.4121L18.3584 14.657C17.489 12.3394 15.9411 10.3889 13.8815 9.01587L13.8519 8.99564C13.5505 8.79474 13.3691 8.45654 13.3691 8.09376C13.3691 7.73099 13.5505 7.39279 13.8519 7.19189C15.9295 5.80728 17.484 3.83731 18.349 1.49518L18.6395 0.708204C18.7963 0.282559 19.2024 0 19.6563 0L22.3366 8.05763Z" fill="#2D9596"/>
</g>
<g id="Group_8">
<path id="Vector_7" d="M25.9434 8.09376C25.9434 8.45654 25.762 8.79474 25.4606 8.99564L25.431 9.01587C23.3714 10.3889 21.8235 12.3394 20.9541 14.657L20.6709 15.4121C20.5126 15.8349 20.1079 16.1153 19.6562 16.1153V0C20.1101 0 20.5162 0.282559 20.673 0.708204L20.9635 1.49518C21.8286 3.83731 23.383 5.80728 25.4606 7.19189C25.762 7.39279 25.9434 7.73099 25.9434 8.09376Z" fill="#268484"/>
</g>
<g id="Group_9">
<path id="Vector_8" d="M13.3691 23.1612L10.4062 37.0001C9.93138 37.0001 9.51152 36.6908 9.3706 36.2369L8.63999 33.881C7.33198 29.6614 4.47026 26.1825 0.581635 24.0861L0.56935 24.0789C0.229701 23.896 0.0136263 23.5463 0.000618479 23.1611C-0.0123894 22.7759 0.18056 22.4131 0.506479 22.2072L1.52904 21.5641C4.80557 19.503 7.28428 16.3443 8.50847 12.6725L9.37782 10.0637C9.52525 9.62066 9.93933 9.3222 10.4062 9.3222L13.3691 23.1612Z" fill="#2D9596"/>
</g>
<g id="Group_10">
<path id="Vector_9" d="M20.7395 23.1612C20.7265 23.5449 20.5119 23.8932 20.1751 24.0768C16.3234 26.1776 13.4862 29.6428 12.1869 33.8334L11.4418 36.237C11.3009 36.6908 10.881 37.0002 10.4062 37.0002V9.3223C10.8731 9.3223 11.2872 9.62075 11.4346 10.0637L12.3206 12.721C13.5346 16.3639 15.9881 19.5061 19.2277 21.5671L20.238 22.2102C20.5618 22.4169 20.7525 22.7782 20.7395 23.1612Z" fill="#268484"/>
</g>
</g>
</svg>
