<svg width="68" height="24" viewBox="0 0 68 24" fill="none" xmlns="http://www.w3.org/2000/svg">
<path d="M11.1433 1.41174C8.33417 1.50433 5.67436 2.68406 3.73723 4.69661C1.80009 6.70917 0.740772 9.39337 0.787623 12.1706C0.834474 14.9478 1.98374 17.5956 3.98769 19.5432C5.99163 21.4909 8.68975 22.5823 11.5004 22.5823C14.3111 22.5823 17.0092 21.4909 19.0132 19.5432C21.0171 17.5956 22.1664 14.9478 22.2132 12.1706C22.2601 9.39337 21.2008 6.70917 19.2636 4.69661C17.3265 2.68406 14.6667 1.50433 11.8576 1.41174H11.1433ZM26.1433 1.41174C23.3342 1.50433 20.6744 2.68406 18.7372 4.69661C16.8001 6.70917 15.7408 9.39337 15.7876 12.1706C15.8345 14.9478 16.9837 17.5956 18.9877 19.5432C20.9916 21.4909 23.6898 22.5823 26.5004 22.5823C29.3111 22.5823 32.0092 21.4909 34.0132 19.5432C36.0171 17.5956 37.1664 14.9478 37.2132 12.1706C37.2601 9.39337 36.2008 6.70917 34.2636 4.69661C32.3265 2.68406 29.6667 1.50433 26.8576 1.41174H26.1433ZM41.1433 1.41174C38.3342 1.50433 35.6744 2.68406 33.7372 4.69661C31.8001 6.70917 30.7408 9.39337 30.7876 12.1706C30.8345 14.9478 31.9837 17.5956 33.9877 19.5432C35.9916 21.4909 38.6898 22.5823 41.5004 22.5823C44.3111 22.5823 47.0092 21.4909 49.0132 19.5432C51.0171 17.5956 52.1664 14.9478 52.2132 12.1706C52.2601 9.39337 51.2008 6.70917 49.2636 4.69661C47.3265 2.68406 44.6667 1.50433 41.8576 1.41174H41.1433ZM56.1433 1.41174C53.3342 1.50433 50.6744 2.68406 48.7372 4.69661C46.8001 6.70917 45.7408 9.39337 45.7876 12.1706C45.8345 14.9478 46.9837 17.5956 48.9877 19.5432C50.9916 21.4909 53.6898 22.5823 56.5004 22.5823C59.3111 22.5823 62.0092 21.4909 64.0132 19.5432C66.0171 17.5956 67.1664 14.9478 67.2132 12.1706C67.2601 9.39337 66.2008 6.70917 64.2636 4.69661C62.3265 2.68406 59.6667 1.50433 56.8576 1.41174H56.1433Z" stroke="#A7B9D0"/>
</svg>
