<svg width="32" height="32" viewBox="0 0 32 32" fill="none" xmlns="http://www.w3.org/2000/svg">
<path d="M16.0524 0C7.29008 0 0.186523 7.14622 0.186523 15.9604C0.186523 24.7751 7.29008 31.9213 16.0524 31.9213C24.8147 31.9213 31.9182 24.7751 31.9182 15.9604C31.9182 7.14667 24.8147 0 16.0524 0ZM30.8864 15.9604C30.8864 24.2018 24.2453 30.8831 16.0524 30.8831C7.85951 30.8831 1.21841 24.2018 1.21841 15.9604C1.21841 7.71955 7.85995 1.03778 16.0524 1.03778C24.2448 1.03778 30.8864 7.71955 30.8864 15.9604Z" fill="#A7B9D0"/>
<path d="M23.7425 9.18889C23.9577 9.42178 24.2685 9.79734 24.443 10.0253L27.6557 7.97378C27.4952 7.76267 27.2392 7.44178 27.0485 7.21556L25.0137 8.56889L24.8747 8.68889L24.9782 8.53689L25.8768 6.73334L25.2412 6.09423L23.4475 6.99778L23.2967 7.10178L23.4168 6.96223L24.7625 4.91645C24.5258 4.71378 24.2983 4.528 24.0085 4.30311L21.9689 7.532C22.2275 7.732 22.5681 8.02534 22.7851 8.22534L24.7051 7.22311L24.8278 7.132L24.7375 7.256L23.7425 9.18934V9.18889ZM16.4522 5.09645L17.3302 3.11867L17.3859 2.94311L17.3701 3.12578L17.4621 5.76934C17.7703 5.79867 18.0885 5.84178 18.402 5.89423L18.2591 1.97911C17.8207 1.93023 17.3841 1.89556 16.9475 1.87689L16.0826 4.036L16.0519 4.19645L16.0213 4.03645L15.1577 1.87689C14.7207 1.89556 14.2841 1.93023 13.8457 1.97911L13.7032 5.89467C14.0167 5.84134 14.3345 5.79956 14.6426 5.76934L14.7347 3.12578L14.7189 2.94311L14.775 3.11823L15.6526 5.09645H16.4522ZM9.35211 8.21689C9.85973 7.67911 10.1469 7.05778 9.63967 6.46489C9.36351 6.14311 8.89973 6.07245 8.51529 6.23111L8.47715 6.24623L8.48943 6.21245C8.54641 6.05956 8.5828 5.57156 8.16943 5.23467C7.96778 5.07023 7.71529 5.00934 7.45929 5.03556C6.9828 5.08445 6.61633 5.412 5.61819 6.53156C5.3166 6.86934 4.87825 7.40267 4.61523 7.74756L7.35671 10.364C8.26543 9.35245 8.63584 8.976 9.35211 8.21689ZM5.77512 7.57689C6.32658 6.89734 6.91354 6.28089 7.17962 6.03689C7.26378 5.96 7.35496 5.88311 7.46586 5.85289C7.64603 5.80311 7.83189 5.932 7.87354 6.11778C7.91562 6.30445 7.79902 6.48178 7.66926 6.628C7.37732 6.95956 6.30641 8.08623 6.30641 8.08623L5.77469 7.57689H5.77512ZM6.84866 8.60178C6.84866 8.60178 7.89151 7.49245 8.23211 7.13778C8.36712 6.99689 8.45392 6.91111 8.54729 6.86534C8.6674 6.80623 8.79891 6.79423 8.91682 6.87289C9.03211 6.95111 9.08559 7.08489 9.05666 7.21823C9.02203 7.37689 8.89315 7.528 8.78707 7.64356L7.40449 9.132L6.84866 8.60178Z" fill="#A7B9D0"/>
<path d="M16.0524 6.49554V15.9604H6.64355C6.64355 10.7298 10.8527 6.49554 16.0524 6.49554ZM25.4613 15.9604C25.4613 21.1915 21.2522 25.4253 16.0524 25.4253V15.9604H25.4613Z" fill="#A7B9D0"/>
</svg>
