<svg width="72" height="23" viewBox="0 0 72 23" fill="none" xmlns="http://www.w3.org/2000/svg">
<path d="M34.605 0C33.0742 0.124931 31.5692 0.463707 30.135 1.00618C29.742 1.15414 29.328 1.40569 28.893 1.23996C26.931 0.787184 24.9 0.955867 22.917 1.16598C20.34 1.43232 17.757 1.1571 15.18 1.03281C12.83 0.955644 10.4775 1.00504 8.133 1.18077C5.994 1.31099 3.846 1.15118 1.719 0.926273C1.455 0.920354 1.185 0.867087 0.924 0.920355C0.519 1.18078 0.264 1.60692 0 1.9946V2.19583C0.555 2.66341 1.212 2.97118 1.875 3.25527C1.689 3.70213 1.572 4.17267 1.485 4.64617C2.277 5.01312 3.105 5.31794 3.873 5.7352C3.786 6.01634 3.657 6.28564 3.624 6.57861C3.606 6.75322 3.696 6.9367 3.873 6.99884C4.503 7.32437 5.217 7.41907 5.868 7.67949C5.931 7.70908 6.018 7.73868 6.018 7.82154C6.069 8.20033 6.078 8.58505 6.159 8.96089C6.20863 9.00606 6.26671 9.04124 6.33 9.06446C7.191 9.3456 8.094 9.45214 8.973 9.64449C9.075 9.97002 9.039 10.3814 9.291 10.6388C10.416 11.2189 11.751 10.9348 12.93 11.3136C13.224 11.5977 13.155 12.1718 13.599 12.3316C14.487 12.5979 15.441 12.3612 16.353 12.4795C16.56 12.7133 16.584 13.0507 16.785 13.2874C16.9184 13.424 17.1 13.5045 17.292 13.5124C18.153 13.536 18.978 13.2549 19.83 13.1572C20.007 13.4502 20.091 13.8882 20.469 13.977C21.156 14.1101 21.825 13.8527 22.464 13.6337C22.704 14.4031 22.962 15.1755 23.373 15.8769C24.792 18.416 27.237 20.3129 29.967 21.325C30.351 21.4315 30.483 21.8429 30.681 22.1418C31.062 21.9997 31.437 21.8399 31.833 21.7452L32.433 22.6242C32.79 22.4466 33.144 22.2631 33.501 22.0796C33.741 22.3578 33.981 22.633 34.227 22.9083L35.157 22.2572C35.427 22.488 35.676 22.7425 35.919 23H36.024C36.312 22.7485 36.585 22.4762 36.87 22.2217C37.188 22.4496 37.5 22.6834 37.818 22.9171C38.061 22.636 38.307 22.3549 38.556 22.0767C38.916 22.2542 39.27 22.4407 39.627 22.6212C39.816 22.3312 39.999 22.0412 40.182 21.7482C40.602 21.8399 40.992 22.0116 41.394 22.1507C41.493 21.9494 41.589 21.7423 41.7 21.547C41.859 21.1267 42.36 21.0616 42.708 20.8604C45.624 19.5376 48.048 17.0547 49.005 14.0006C49.491 14.1782 50.04 14.3972 50.556 14.19C50.826 14.0539 50.931 13.7639 51.06 13.5153C51.78 13.6722 52.5 13.9711 53.25 13.8172C53.64 13.7018 53.832 13.3407 54.009 13.0152C54.699 13.104 55.377 13.2963 56.079 13.2371C56.391 13.1987 56.82 13.2371 57.033 12.953C57.21 12.6689 57.234 12.3168 57.405 12.0297C58.35 11.9054 59.349 12.154 60.267 11.8167C60.555 11.497 60.558 11.0176 60.819 10.6832C61.56 10.63 62.304 10.6832 63.045 10.63C63.1733 10.6209 63.2979 10.5834 63.4095 10.5204C63.5212 10.4574 63.617 10.3704 63.69 10.266C63.858 9.94931 63.882 9.58531 63.99 9.24794C64.011 9.17692 64.05 9.09998 64.122 9.06742C64.845 8.77149 65.724 9.00232 66.387 8.54362C66.711 8.1885 66.45 7.62622 66.651 7.23263C67.272 6.88343 68.082 6.97221 68.658 6.51943C69.045 6.1939 68.754 5.6849 68.7 5.27651C69.375 5.04864 70.116 4.92434 70.671 4.45085C70.515 4.03654 70.332 3.63703 70.161 3.2316C70.7982 2.94689 71.4129 2.61551 72 2.24022V1.98276C71.7939 1.60019 71.5171 1.25895 71.184 0.976582C70.971 0.819737 70.674 0.946987 70.434 0.923313C68.346 1.10679 66.246 1.30803 64.149 1.19557C62.898 1.13047 61.65 1.01209 60.399 1.01209C58.833 1.01209 57.267 0.967703 55.707 1.092C53.397 1.22813 51.075 1.39681 48.768 1.1423C46.797 0.914436 44.763 0.801982 42.825 1.29915C42.516 1.4264 42.192 1.32578 41.91 1.18965C40.362 0.497168 38.679 0.159804 36.996 0H34.605ZM36.168 0.458697C37.149 0.500128 38.13 0.603704 39.09 0.819736C40.02 1.03281 40.956 1.26068 41.82 1.66907C41.511 1.86143 41.139 2.1544 40.758 1.9946C39.1047 1.419 37.3632 1.12869 35.61 1.13639C34.632 1.19557 33.654 1.27252 32.7 1.5063C32.088 1.62468 31.5 1.84959 30.882 1.94725C30.594 1.8703 30.33 1.73121 30.066 1.59508C32.0118 0.849043 34.0804 0.463791 36.168 0.458697ZM70.569 1.28139C71.079 1.2518 71.493 1.65427 71.754 2.05082C70.7397 2.56138 69.6135 2.81751 68.475 2.79658C63.525 2.87648 58.581 3.07771 53.634 3.20201C53.634 3.28191 53.64 3.36181 53.646 3.44171C53.5935 3.29123 53.5455 3.13925 53.502 2.98598C54.585 2.83801 55.662 2.63085 56.757 2.56575C58.761 2.41778 60.777 2.36451 62.787 2.3438C63.0492 2.35523 63.3078 2.28027 63.522 2.13072C61.923 1.96204 60.312 2.05378 58.71 2.09225C57.597 2.17216 56.478 2.18991 55.368 2.329C53.883 2.50656 52.401 2.78474 50.901 2.8025C49.965 2.81729 49.026 2.89719 48.09 2.83209C46.92 2.81137 45.732 2.7078 44.58 2.96526C44.256 3.06884 43.863 3.18129 43.734 3.53345C43.455 4.08981 43.764 4.71127 44.019 5.21732C44.328 5.85949 44.856 6.47504 44.76 7.23559C44.715 7.50489 44.484 7.68245 44.274 7.83634C44.0595 7.60204 43.861 7.35389 43.68 7.09354C43.8 6.85679 43.998 6.63484 43.944 6.34779C43.845 5.75592 43.41 5.28834 43.002 4.87403C42.414 4.31176 41.76 3.78796 41.361 3.06884C41.244 2.86168 41.163 2.56575 41.388 2.39707C42.048 1.93541 42.861 1.77856 43.644 1.65131C45.789 1.35538 47.952 1.60692 50.103 1.6957C51.162 1.79928 52.23 1.78448 53.292 1.6957C55.806 1.5359 58.332 1.28731 60.852 1.45303C61.986 1.51518 63.123 1.56549 64.257 1.59213C66.333 1.67499 68.397 1.40864 70.467 1.29323C70.5008 1.28742 70.5348 1.28347 70.569 1.28139ZM1.65 1.29027C2.238 1.28435 2.826 1.37017 3.411 1.40865C5.037 1.55069 6.669 1.64243 8.301 1.57437C10.323 1.55069 12.336 1.31395 14.358 1.42048C16.419 1.48559 18.468 1.7105 20.532 1.77265C22.107 1.71938 23.679 1.59508 25.254 1.52406C26.853 1.47375 28.515 1.49151 30.024 2.07746C30.315 2.19583 30.675 2.35267 30.744 2.69004C30.684 3.15762 30.324 3.51866 30.03 3.87082C29.505 4.51004 28.743 4.93618 28.32 5.66122C27.99 6.07553 27.942 6.69699 28.305 7.10538C28.1085 7.36418 27.8886 7.60487 27.648 7.8245C27.399 7.59959 27.168 7.32141 27.198 6.96037C27.312 5.93644 28.239 5.20548 28.347 4.17859C28.44 3.82051 28.254 3.47131 28.023 3.21089C27.5865 2.9921 27.108 2.86703 26.619 2.84393C24.933 2.70188 23.241 2.92383 21.552 2.82321C19.881 2.83505 18.231 2.54799 16.581 2.329C14.471 2.14225 12.3544 2.0376 10.236 2.01531C9.651 2.00643 9.066 2.0597 8.481 2.11001C8.67 2.26389 8.901 2.36747 9.156 2.34084C11.355 2.37043 13.554 2.40594 15.747 2.59238C16.668 2.6782 17.577 2.84097 18.495 2.98006L18.426 3.22864C16.818 3.13098 15.204 3.14578 13.593 3.08067C10.698 2.9771 7.803 2.88832 4.908 2.84097C3.675 2.76107 2.385 2.89127 1.206 2.44441C0.876 2.33492 0.567 2.18399 0.255 2.04194C0.483 1.76673 0.714 1.45304 1.065 1.3317C1.26 1.30211 1.455 1.29027 1.65 1.29027ZM36.015 1.62764C37.6538 1.61848 39.2794 1.91571 40.806 2.5036C40.818 2.81137 40.719 3.14874 40.878 3.42988C41.0117 3.67282 41.1727 3.90015 41.358 4.10756C41.898 4.73494 42.588 5.24099 43.122 5.87429C43.3375 6.10491 43.4983 6.37984 43.593 6.67923C42.488 5.69424 41.1961 4.93486 39.792 4.44493C38.2438 3.91128 36.5981 3.70915 34.9645 3.85203C33.3309 3.99491 31.7469 4.47951 30.318 5.27355C29.796 5.56356 29.322 5.9246 28.86 6.3034L28.404 6.68219C28.4402 6.52868 28.501 6.38184 28.584 6.24717C29.253 5.31498 30.252 4.66984 30.927 3.74357C31.257 3.34997 31.227 2.82617 31.176 2.35268C32.7441 1.87751 34.3746 1.6332 36.015 1.62764ZM53.301 2.97414C53.349 3.10435 53.391 3.23456 53.433 3.36477C52.494 3.89745 51.369 3.76428 50.337 3.63111C50.103 3.61039 49.965 3.41212 49.872 3.21976C51.012 3.09843 52.161 3.10731 53.301 2.97414ZM18.651 3.02149C19.809 3.03924 20.964 3.09547 22.113 3.21089C22.023 3.36181 21.951 3.57784 21.747 3.60152C21.138 3.7051 20.517 3.72285 19.905 3.74653C19.431 3.77612 18.996 3.56305 18.585 3.36477L18.654 3.02149H18.651ZM22.272 3.18425C22.734 3.19313 23.199 3.19905 23.661 3.22568C24.891 3.27599 26.154 3.17833 27.351 3.53641C27.648 3.63703 27.975 3.77316 28.128 4.06318C28.245 4.57218 27.948 5.02496 27.696 5.43631C27.447 5.88317 27.105 6.3034 26.991 6.80944C26.847 7.28294 27.141 7.67949 27.363 8.06125C27.027 8.07308 26.613 8.21217 26.349 7.94287C26.226 7.70021 26.37 7.41315 26.421 7.16456L25.941 7.58775L25.356 7.55224C25.311 6.95149 25.779 6.51647 26.019 6.01042C25.605 6.37442 25.185 6.88935 24.57 6.842C24.327 6.85087 24.141 6.53422 24.291 6.34187C24.624 5.9246 25.056 5.59019 25.368 5.15221C24.996 5.43631 24.618 5.72928 24.177 5.89501C23.848 5.97631 23.5002 5.93632 23.199 5.78255C23.253 5.17885 23.901 4.96577 24.249 4.54851C23.868 4.70535 23.529 5.00424 23.088 4.97761C22.914 4.98353 22.743 4.93026 22.578 4.89179C22.548 4.37983 23.091 4.19931 23.397 3.89449C23.127 3.95368 22.866 4.07797 22.587 4.07205C22.401 4.00695 22.257 3.85898 22.095 3.75244C22.14 3.55713 22.2 3.36773 22.275 3.18425H22.272ZM49.74 3.18425C49.794 3.41508 50.001 3.71101 49.725 3.88561C49.425 4.25553 48.921 3.95072 48.555 3.8797C48.891 4.16379 49.41 4.3739 49.407 4.89475C49.119 4.94506 48.807 5.04272 48.522 4.92434C48.258 4.81781 48.003 4.68464 47.745 4.5633C47.826 4.64321 47.91 4.72015 47.997 4.79413L48.258 5.01904C48.429 5.16997 48.597 5.32681 48.738 5.50437C48.786 5.70561 48.639 5.91868 48.42 5.91572C47.721 6.09032 47.175 5.53989 46.668 5.16405C46.935 5.52213 47.253 5.83286 47.559 6.15543C47.712 6.31523 47.697 6.55494 47.751 6.75618C47.499 6.78873 47.229 6.88639 46.983 6.77985C46.599 6.62596 46.308 6.32115 45.993 6.06073C46.266 6.53422 46.683 6.96333 46.641 7.54632L46.017 7.56999C45.8787 7.44107 45.7417 7.31085 45.606 7.17936C45.63 7.42203 45.786 7.70021 45.627 7.9192C45.441 8.12635 45.153 8.11155 44.889 8.10563C44.799 8.10563 44.712 8.10564 44.631 8.11451C44.772 7.76235 45.051 7.45754 45.042 7.06099C44.934 6.02522 43.968 5.32385 43.824 4.30288C43.794 3.86194 44.286 3.65775 44.643 3.53049C46.305 3.10139 48.042 3.31446 49.743 3.18425H49.74ZM2.094 3.19017C4.404 3.19017 6.714 3.30854 9.024 3.32926C11.913 3.39141 14.802 3.41212 17.688 3.4861C18.288 3.44467 18.783 3.82939 19.278 4.09869L19.224 4.66096C19.1354 4.70417 19.0464 4.74659 18.957 4.78821L19.035 4.57218C16.338 4.64321 13.647 4.82373 10.95 4.90363C9.252 4.93914 7.56 5.08119 5.859 5.0516C4.78477 5.0898 3.7106 4.97417 2.67 4.70831C2.325 4.60769 1.929 4.55443 1.656 4.30288C1.653 3.90337 1.875 3.52162 2.091 3.19017H2.094ZM69.954 3.25527C70.146 3.58376 70.35 3.91225 70.491 4.26737C69.201 4.68168 67.821 4.66096 66.483 4.61065C63.999 4.60473 61.515 4.44789 59.031 4.36503C56.934 4.27033 54.837 4.18747 52.74 4.06909C53.169 3.76724 53.655 3.47131 54.198 3.48906C59.451 3.46835 64.701 3.25823 69.954 3.25232V3.25527ZM21.735 3.88858C21.966 3.90337 22.143 4.10757 22.317 4.2437C22.3679 4.28501 22.4081 4.3377 22.4342 4.39741C22.4602 4.45712 22.4715 4.52211 22.467 4.58698C22.233 4.76454 21.924 4.78821 21.648 4.85924C21.09 4.95985 20.538 5.12558 19.968 5.14629C19.767 5.06935 19.548 4.98353 19.413 4.80301C19.365 4.55443 19.443 4.21114 19.725 4.14604C20.355 4.02175 21 3.98623 21.633 3.89449C21.6666 3.8884 21.7009 3.88642 21.735 3.88858ZM50.13 3.91225C50.835 3.91225 51.54 4.00103 52.23 4.12828C52.557 4.19043 52.548 4.57218 52.632 4.82077C52.362 4.96873 52.101 5.20548 51.762 5.13742C51.273 5.06343 50.793 4.9421 50.307 4.85332C50.046 4.78821 49.746 4.7675 49.533 4.58698C49.548 4.26737 49.881 4.06317 50.133 3.91225H50.13ZM35.775 4.32064C38.499 4.26145 41.301 5.17885 43.26 7.08762C44.334 8.16778 45.12 9.62082 45.096 11.1626C45.126 12.5535 44.499 13.903 43.575 14.9328C41.877 16.8327 39.33 17.8419 36.807 18.0283C34.5281 18.2185 32.2472 17.6856 30.297 16.5072C29.262 15.8562 28.317 15.0275 27.696 13.9681C26.9487 12.7589 26.7047 11.3113 27.015 9.92859C27.312 8.70046 28.083 7.63806 29.019 6.80056C30.714 5.2913 32.973 4.50708 35.229 4.34431C35.409 4.33247 35.592 4.32656 35.775 4.32064ZM52.695 4.3887C53.349 4.37391 54 4.46269 54.654 4.49228C58.974 4.7527 63.3 4.90659 67.62 5.15517C67.899 5.1966 68.214 5.14334 68.469 5.28242C68.64 5.52805 68.685 5.8299 68.73 6.11992C67.824 6.6674 66.696 6.53423 65.685 6.56086C64.41 6.478 63.135 6.32411 61.863 6.20278C61.4385 6.16155 61.0135 6.12603 60.588 6.09624C57.972 5.83878 55.347 5.6849 52.743 5.33273C52.7619 5.01629 52.7458 4.69875 52.695 4.38574V4.3887ZM36.036 4.4183C35.688 4.4183 35.346 4.43309 35.001 4.46565C32.586 4.69352 30.12 5.61979 28.518 7.48417C27.594 8.51402 26.964 9.87828 27.066 11.2781C27.12 13.2726 28.41 15.0453 30.021 16.161C32.673 17.9898 36.192 18.3805 39.258 17.4631C40.638 17.0221 41.967 16.3385 42.993 15.3116C44.277 14.0865 45.135 12.302 44.898 10.5116C44.703 9.04671 43.848 7.72684 42.729 6.76801C40.899 5.18181 38.454 4.41534 36.036 4.4183ZM18.291 4.93618C18.468 4.93618 18.645 4.93618 18.825 4.9421C19.269 5.06639 19.572 5.43631 19.902 5.72928C19.821 5.95715 19.752 6.18798 19.686 6.42177C19.902 6.59045 20.133 6.74138 20.376 6.86567C18.825 7.11426 17.286 7.43682 15.744 7.7298L14.352 8.03165L12.957 8.32167C12.027 8.50811 11.094 8.68567 10.155 8.83659C8.94 9.04967 7.671 8.98456 6.489 8.6324C6.15 8.5377 6.066 8.15299 6.204 7.85705C6.255 7.56112 6.627 7.59071 6.849 7.54632C10.677 7.1616 14.493 6.67331 18.309 6.22349C18.843 6.16727 19.449 6.15543 19.839 5.74112C17.736 5.93052 15.633 6.16135 13.533 6.39218L10.38 6.72658C9.33 6.83312 8.277 6.93374 7.224 7.02252C6.042 7.14089 4.818 7.02843 3.714 6.56974C3.82186 6.23168 3.96672 5.9062 4.146 5.59907C8.325 5.41263 12.513 5.32681 16.686 5.022C17.22 4.99833 17.754 4.94802 18.291 4.93618ZM22.059 5.12558C22.1815 5.12027 22.3042 5.12821 22.425 5.14925C22.677 5.22324 22.911 5.34753 23.145 5.45998C23.118 5.85062 22.731 5.95123 22.431 6.08736C22.056 6.23829 21.69 6.41289 21.306 6.54014C20.82 6.69403 20.331 6.45728 19.884 6.28268C19.944 6.08145 19.968 5.85654 20.094 5.68194C20.3675 5.51286 20.6692 5.39264 20.985 5.32681C21.336 5.23803 21.696 5.13741 22.059 5.12558ZM49.803 5.12558C50.334 5.11374 50.853 5.28538 51.354 5.43927C51.546 5.51621 51.786 5.5458 51.93 5.71153C52.026 5.88909 52.05 6.09624 52.122 6.27972C51.684 6.43657 51.216 6.70883 50.736 6.55494C50.0908 6.31902 49.458 6.05136 48.84 5.75296C48.894 5.38896 49.251 5.22028 49.575 5.14334C49.6506 5.13344 49.7267 5.12751 49.803 5.12558ZM52.464 5.63458C53.181 5.62275 53.886 5.75592 54.597 5.8299C56.871 6.08144 59.148 6.32707 61.425 6.5579C63.054 6.75913 64.695 6.87751 66.321 7.12018C66.36 7.43683 66.699 8.04349 66.222 8.15594C65.1106 8.33085 63.9802 8.35574 62.862 8.22993C59.316 7.68541 55.782 7.06395 52.23 6.55494C52.2169 6.25136 52.1928 5.94833 52.158 5.64642C52.26 5.6405 52.362 5.63458 52.464 5.63458ZM36.333 5.96307C37.092 5.96603 37.845 6.05777 38.577 6.26789C39.423 6.51647 40.281 6.93669 40.767 7.69429C41.1 8.16778 41.139 8.78332 41.028 9.33376C40.86 10.0026 40.239 10.4139 39.702 10.7898L39.714 10.9141C40.509 11.4497 41.376 12.1984 41.349 13.2371C41.424 13.9888 41.019 14.6931 40.47 15.1814C40.083 15.4714 39.66 15.723 39.204 15.8946C37.914 16.3356 36.528 16.3918 35.178 16.303C33.522 16.0988 31.788 15.6401 30.567 14.4475C30.777 14.1693 31.047 13.9444 31.239 13.6544C31.3013 12.062 31.3073 10.4679 31.257 8.87506C31.059 8.58209 30.786 8.35126 30.564 8.07604C31.386 6.96629 32.76 6.4632 34.074 6.18206C34.815 6.04297 35.574 5.96011 36.333 5.96307ZM48.822 6.14951C48.909 6.14951 48.996 6.15247 49.08 6.17318C49.587 6.36554 50.076 6.59933 50.562 6.83904C50.67 6.91006 50.832 6.94557 50.88 7.0817C50.892 7.31845 50.778 7.57887 50.541 7.66469C50.196 7.80674 49.782 7.89552 49.431 7.73572C48.858 7.48713 48.336 7.13793 47.799 6.8272C47.85 6.70291 47.874 6.54606 47.961 6.44249C47.9921 6.40737 48.0311 6.37999 48.075 6.36258C48.3055 6.23925 48.5603 6.16656 48.822 6.14951ZM23.133 6.14951C23.4247 6.15356 23.7103 6.23316 23.961 6.38034C24.156 6.47208 24.198 6.79465 24.012 6.91302C23.526 7.23855 23.016 7.53448 22.47 7.7446C22.041 7.88368 21.609 7.72388 21.21 7.58775L21.09 7.01364C21.594 6.75322 22.11 6.50167 22.632 6.2738C22.7863 6.193 22.9583 6.15035 23.133 6.14951ZM36.243 6.65852C35.9604 6.6578 35.6779 6.67262 35.397 6.70291C34.9906 6.7473 34.6101 6.92195 34.314 7.20008C33.825 7.70021 33.786 8.44892 33.879 9.09701C33.9028 9.41617 34.0193 9.72181 34.2146 9.97739C34.4098 10.233 34.6755 10.4277 34.98 10.5382C35.679 10.772 36.45 10.7602 37.155 10.5678C37.917 10.3163 38.301 9.49653 38.283 8.75077C38.322 8.12043 38.163 7.38355 37.59 7.0166C37.186 6.77049 36.7176 6.64699 36.243 6.66148V6.65852ZM52.104 6.91006C52.914 6.92782 53.724 7.06395 54.522 7.20304C57.021 7.64694 59.52 8.0938 62.016 8.55841C62.646 8.68567 63.285 8.7922 63.906 8.9668C63.822 9.33672 63.777 9.91379 63.3 9.98482C61.761 10.1772 60.216 9.83685 58.74 9.43142C56.298 8.78036 53.829 8.20625 51.39 7.53744C51.2433 7.5052 51.0921 7.49819 50.943 7.51673C50.982 7.36284 50.994 7.20008 51.069 7.06099C51.261 6.91894 51.528 6.92782 51.756 6.91302H52.104V6.91006ZM20.943 7.07282C21.027 7.41019 21.099 7.75051 21.234 8.07012C19.332 8.64719 17.433 9.22427 15.522 9.76287C14.508 10.0499 13.512 10.4228 12.462 10.5619C11.514 10.6447 10.542 10.6004 9.618 10.3666C9.24 10.266 9.138 9.86349 9.129 9.52612C11.799 8.95497 14.46 8.34534 17.139 7.81858C18.405 7.56703 19.656 7.21783 20.943 7.07282ZM47.634 7.22375C47.8281 7.22012 48.0169 7.2864 48.165 7.41019C48.615 7.70317 49.056 8.00206 49.509 8.28615C49.4901 8.32683 49.476 8.36953 49.467 8.41341L49.437 8.5525C49.41 8.64719 49.374 8.73302 49.287 8.78037C48.897 8.8218 48.48 8.90762 48.099 8.76261C47.6668 8.48934 47.2681 8.16759 46.911 7.80378C46.773 7.68837 46.788 7.4605 46.905 7.33621C46.9453 7.29479 46.9978 7.26685 47.055 7.2563C47.238 7.24743 47.439 7.21783 47.634 7.22671V7.22375ZM24.495 7.22375C24.648 7.22375 24.801 7.23559 24.951 7.25334C25.158 7.30365 25.299 7.61439 25.092 7.75347C24.624 8.21513 24.138 8.80108 23.421 8.83363C23.181 8.83067 22.941 8.83955 22.707 8.78924C22.536 8.67679 22.551 8.43412 22.494 8.2684C23.013 7.94287 23.508 7.58479 24.042 7.28294C24.189 7.24545 24.3401 7.22557 24.492 7.22375H24.495ZM51.066 7.82746C51.552 7.87777 52.014 8.03461 52.485 8.14707C54.783 8.81292 57.084 9.46989 59.379 10.1417C59.808 10.2689 60.246 10.3755 60.657 10.5501C60.543 10.8312 60.435 11.1508 60.168 11.3254C59.0687 11.5499 57.9283 11.4763 56.868 11.1123C56.058 10.8075 55.287 10.4228 54.492 10.0884C53.052 9.48173 51.618 8.84843 50.157 8.2832C50.466 8.14411 50.742 7.92512 51.066 7.82746ZM46.377 7.94583C46.692 7.94583 46.947 8.19441 47.175 8.38381C47.391 8.59688 47.676 8.77149 47.811 9.04967C47.856 9.30121 47.646 9.5202 47.574 9.74511C47.262 9.68592 46.872 9.8043 46.62 9.54979C46.2351 9.21286 45.9088 8.81598 45.654 8.37494C45.606 8.12043 45.903 7.96655 46.143 7.95767L46.239 7.96063C46.2843 7.9505 46.3306 7.94553 46.377 7.94583ZM25.704 7.95767C25.9532 7.96989 26.1932 8.0543 26.394 8.20034C26.144 8.70915 25.7978 9.16618 25.374 9.54683C25.152 9.81318 24.774 9.76879 24.474 9.68001C24.285 9.54092 24.216 9.29529 24.102 9.09997C24.471 8.72414 24.822 8.32463 25.269 8.03757C25.4057 7.97789 25.5547 7.95053 25.704 7.95767ZM21.726 8.31279C21.834 8.30797 21.9422 8.30995 22.05 8.31871C22.356 8.3631 22.395 8.71822 22.509 8.94609C21.975 9.12365 21.486 9.39887 20.985 9.64449C19.683 10.26 18.414 10.9318 17.115 11.5533C16.23 12.0149 15.186 11.938 14.217 11.9469C13.947 11.9202 13.644 11.9469 13.407 11.793C13.251 11.5947 13.185 11.3432 13.107 11.1064C13.842 10.7394 14.655 10.5737 15.417 10.2689C16.785 9.75991 18.189 9.35152 19.569 8.87803C20.283 8.67975 20.982 8.3483 21.729 8.31575L21.726 8.31279ZM44.802 8.34534C45.081 8.41045 45.423 8.38973 45.633 8.61464C45.927 9.00823 46.224 9.41958 46.392 9.88124C46.338 10.2364 45.93 10.4731 45.576 10.4583C45.456 9.7096 45.132 9.02303 44.802 8.34534ZM27.138 8.35422C26.8056 9.02926 26.5617 9.74325 26.412 10.479C26.127 10.4139 25.77 10.3429 25.644 10.044C25.554 9.89604 25.641 9.73327 25.71 9.6001C25.9004 9.23776 26.1265 8.89479 26.385 8.57617C26.598 8.41637 26.886 8.41637 27.138 8.35422ZM49.683 8.43708C50.229 8.53474 50.709 8.83363 51.207 9.06446C53.19 9.9789 55.167 10.9081 57.138 11.8522C57.099 12.0593 57.105 12.3079 56.961 12.4855C56.472 12.6719 55.929 12.595 55.422 12.5446C54.804 12.4766 54.162 12.4056 53.619 12.0712C52.098 11.139 50.679 10.0381 49.092 9.21243C49.437 9.08814 49.554 8.74189 49.683 8.43708ZM23.187 9.18875C23.457 9.18875 23.727 9.23018 23.988 9.31305C23.406 9.99961 22.62 10.4731 21.903 11.0028C21.063 11.5651 20.289 12.2369 19.353 12.6393C18.6188 12.8845 17.8439 12.989 17.07 12.9471C16.734 12.9057 16.587 12.5979 16.572 12.2961C18.333 11.3491 20.133 10.4761 21.894 9.535C22.284 9.30574 22.73 9.18601 23.184 9.18875H23.187ZM48.465 9.24202C48.8187 9.27751 49.1537 9.41549 49.428 9.63858C50.775 10.63 52.116 11.6332 53.466 12.6186C53.646 12.7104 53.739 12.8879 53.814 13.0684C53.436 13.2283 53.025 13.4236 52.605 13.2993C52.482 13.2697 52.353 13.246 52.227 13.2194C51.84 13.1666 51.4683 13.0357 51.135 12.8347C49.854 12.0356 48.816 10.9111 47.517 10.1357C47.793 9.89308 47.877 9.51428 48.135 9.26866C48.2432 9.24474 48.3543 9.23578 48.465 9.24202ZM23.997 9.76287C24.339 10.2896 24.999 10.1091 25.521 10.2512C24.381 11.0591 23.523 12.1806 22.395 13.0033C21.711 13.5035 20.646 13.6958 19.953 13.1128C20.292 12.595 20.823 12.2546 21.294 11.861C22.194 11.1626 23.073 10.4317 23.997 9.76287ZM46.659 10.1328C46.989 10.2008 47.358 10.2275 47.616 10.4761C48.468 11.1863 49.269 11.9498 50.124 12.6601C50.415 12.9264 50.805 13.1543 50.838 13.5923C50.553 13.6958 50.232 13.8142 49.932 13.6899C49.8598 13.6711 49.7887 13.6484 49.719 13.6218C49.233 13.4354 48.834 13.0803 48.447 12.7429C47.714 12.0339 46.944 11.3632 46.14 10.7335C46.308 10.5293 46.482 10.3281 46.659 10.1328ZM25.455 10.6536C25.761 10.7335 26.058 10.846 26.364 10.9229C26.403 11.2189 26.424 11.5148 26.442 11.8107C25.92 12.3286 25.521 13.0122 24.819 13.32C24.351 13.4976 23.838 13.5597 23.34 13.4976C23.169 13.462 23.049 13.3289 22.926 13.2164C23.76 12.3523 24.546 11.4408 25.455 10.6536ZM45.642 10.8697C46.095 10.8637 46.392 11.2189 46.674 11.5148C47.262 12.1895 47.934 12.7814 48.54 13.4354C48.411 13.6041 48.27 13.8379 48 13.7491C47.6818 13.7666 47.3636 13.7161 47.067 13.6011C46.443 13.3052 46.032 12.734 45.501 12.3197L45.642 10.8697ZM36.333 11.2603C36.0773 11.2535 35.8214 11.2674 35.568 11.3017C34.746 11.3964 33.957 11.9972 33.816 12.8258C33.726 13.6278 33.759 14.6073 34.428 15.1814C34.869 15.5365 35.448 15.6549 36.003 15.7023C36.777 15.7259 37.683 15.6046 38.163 14.921C38.688 14.1397 38.691 13.0773 38.325 12.2339C37.929 11.5237 37.122 11.281 36.333 11.2573V11.2603ZM26.424 12.2369C26.622 12.74 26.766 13.2608 26.904 13.7817C26.544 13.7136 25.998 13.7521 25.794 13.3733C25.695 12.8968 26.145 12.5624 26.424 12.2398V12.2369ZM45.471 12.6808C45.732 12.9086 46.083 13.2164 45.981 13.5982C45.78 13.9444 45.327 13.9474 44.976 13.9829C45.1441 13.55 45.3091 13.116 45.471 12.6808ZM25.401 13.6307C25.68 13.8586 25.986 14.0953 26.358 14.1516C26.598 14.2226 26.877 14.2048 27.093 14.338C27.561 14.9032 27.975 15.5188 28.557 15.9804C29.454 16.8002 30.531 17.3684 31.542 18.0283C31.368 18.7386 30.903 19.3215 30.525 19.9341C27.765 18.8895 25.368 16.7676 24.27 14.0302C24.648 13.9059 25.026 13.7728 25.398 13.6307H25.401ZM46.38 13.8172C46.659 13.9267 46.938 14.0391 47.22 14.1427C46.665 15.652 45.624 16.9541 44.4 17.9928C43.5107 18.7685 42.4806 19.371 41.364 19.7684C41.124 19.3541 40.866 18.9457 40.656 18.5136C40.596 18.3657 40.5 18.1644 40.626 18.0253C40.92 17.7353 41.307 17.5637 41.664 17.3625C42.408 16.9245 43.092 16.3948 43.722 15.8058C44.142 15.4093 44.406 14.8825 44.793 14.4564C45.123 14.3291 45.507 14.3854 45.834 14.2374C46.044 14.1309 46.206 13.9651 46.38 13.8172ZM23.37 14.0243L23.982 14.0332C24.504 15.3057 25.248 16.5102 26.262 17.4572C26.883 18.0105 27.486 18.5935 28.209 19.0167C28.899 19.4665 29.655 19.7921 30.399 20.1413C30.3256 20.3451 30.2363 20.5429 30.132 20.7331C29.4037 20.4465 28.7021 20.098 28.035 19.6915C27.135 19.1677 26.385 18.4456 25.635 17.7383C24.855 16.9896 24.345 16.0219 23.823 15.0926C23.628 14.7553 23.505 14.3854 23.373 14.0243H23.37ZM47.451 14.196L48.111 14.2551C47.6131 15.7571 46.7391 17.1108 45.57 18.1911C44.454 19.1972 43.215 20.159 41.754 20.6177C41.652 20.4106 41.55 20.2034 41.454 19.9904C42.369 19.5849 43.284 19.1351 44.064 18.4988C45.504 17.3506 46.794 15.9301 47.451 14.196ZM43.407 15.4774C42.837 16.2645 41.952 16.7203 41.169 17.2678C40.809 17.543 40.299 17.7117 40.152 18.1852C40.185 18.4633 40.413 18.6705 40.542 18.9102C40.866 19.4606 41.187 20.017 41.448 20.597C41.592 20.964 41.445 21.3428 41.304 21.6831C40.83 21.5558 40.302 21.3428 40.095 20.8693C39.696 20.1561 39.705 19.2594 39.15 18.6202C39.099 19.5731 39.798 20.3425 39.915 21.2629C39.867 21.5854 39.663 21.8607 39.507 22.1418C39.09 21.911 38.577 21.6801 38.478 21.1682C38.193 20.4106 38.367 19.5021 37.902 18.8096C37.713 19.4695 38.04 20.1117 38.166 20.7509C38.235 21.1475 38.412 21.6476 38.097 21.9849C37.9951 22.1193 37.8891 22.2506 37.779 22.3785C37.464 22.1566 37.059 21.9494 36.954 21.5499C36.777 20.7805 36.906 19.9815 36.762 19.212C36.72 19.1144 36.651 19.0374 36.588 18.9575C36.378 19.8749 36.843 20.7805 36.729 21.7038C36.603 22.0353 36.324 22.3815 35.949 22.4436C35.604 22.2069 35.283 21.8518 35.286 21.4079C35.241 20.6059 35.547 19.8246 35.505 19.0197L35.286 19.0138C35.175 19.6944 35.232 20.3899 35.187 21.0764C35.1825 21.3923 35.0729 21.698 34.875 21.9465C34.695 22.1063 34.494 22.2424 34.284 22.3667C34.095 22.1714 33.879 21.982 33.765 21.7275C33.663 21.3428 33.804 20.9581 33.885 20.5793C34.026 20.0111 34.23 19.4429 34.203 18.851H34.005C33.756 19.6175 33.762 20.4283 33.543 21.2007C33.4808 21.3971 33.375 21.5774 33.2333 21.7284C33.0917 21.8794 32.9177 21.9974 32.724 22.0737C32.562 22.1448 32.367 22.0323 32.304 21.8784C32.013 21.5144 32.16 21.0232 32.289 20.6266C32.547 19.9696 32.865 19.3275 33.009 18.632L32.811 18.5521C32.391 19.3215 32.289 20.2212 31.851 20.9817C31.7554 21.1586 31.6227 21.3133 31.4619 21.4358C31.301 21.5582 31.1156 21.6455 30.918 21.692C30.783 21.7364 30.678 21.6269 30.618 21.5233C30.5406 21.3702 30.4991 21.2018 30.4965 21.0308C30.4939 20.8597 30.5303 20.6902 30.603 20.5349C30.939 19.8217 31.413 19.1736 31.743 18.4574C31.803 18.2621 31.911 17.9987 31.746 17.8271C31.086 17.1583 30.108 16.9393 29.436 16.2823C30.135 16.6907 30.813 17.1583 31.584 17.4246C34.353 18.5255 37.554 18.558 40.329 17.4572C41.499 17.0547 42.516 16.3119 43.407 15.4774Z" fill="#A7B9D0"/>
</svg>
