<svg width="62" height="24" viewBox="0 0 62 24" fill="none" xmlns="http://www.w3.org/2000/svg">
<path d="M43.2067 14.5442C43.2175 14.5999 43.2823 14.6501 43.3524 14.6779C43.3794 14.6891 43.3902 14.7058 43.3632 14.7615C43.1689 15.1906 42.9908 15.4357 42.7533 15.8035C42.532 16.149 42.2783 16.4165 41.976 16.6728C41.5172 17.0629 40.8802 17.4919 40.3566 17.2022C40.1245 17.0796 40.0219 16.7397 40.0273 16.4666C40.0381 15.6976 40.3674 14.9119 40.9828 14.1374C41.7277 13.1901 42.5535 12.6997 43.0933 12.9672C43.6547 13.2403 43.4766 13.9089 43.2229 14.4383C43.2013 14.4717 43.2013 14.5107 43.2067 14.5442ZM49.2091 8.5595C49.2469 8.48706 49.2091 8.43134 49.1174 8.43134C48.6477 8.43134 48.0378 8.43134 47.552 8.43134C47.4386 8.43134 47.3738 8.44805 47.3199 8.5595C47.1417 8.91613 44.9502 12.3041 44.5454 12.9616C44.4752 13.0619 44.3942 13.0452 44.3834 12.9338C44.3402 12.5437 44.0164 12.0924 43.4982 11.8806C43.1041 11.719 42.7209 11.6856 42.3214 11.7413C41.6035 11.8416 40.9612 12.2317 40.3944 12.6774C39.5469 13.3461 38.8128 14.2098 37.8628 14.8507C37.3446 15.1961 36.6375 15.5026 36.1625 15.0513C35.736 14.6389 35.7846 13.7306 36.4378 13.0229C36.5079 12.9505 36.5889 13.0118 36.5781 13.0787C36.5187 13.3963 36.5943 13.7139 36.8264 13.9368C37.1125 14.2043 37.5227 14.2321 37.8736 14.0538C38.2892 13.8421 38.5321 13.4353 38.6023 12.9728C38.7103 12.2539 38.1759 11.6187 37.5065 11.5686C36.9613 11.5295 36.4378 11.7246 35.9304 12.1592C35.6767 12.3765 35.5309 12.5381 35.3096 12.8613C35.2556 12.9393 35.1746 12.9505 35.1746 12.8335C35.2016 11.914 34.8292 11.3958 34.0951 11.3791C33.5229 11.3624 32.9129 11.6856 32.4325 12.0756C31.9089 12.5103 31.4555 13.0842 30.9643 13.6247C30.9049 13.6916 30.8509 13.686 30.8348 13.5579C30.8186 12.9505 30.6728 12.3543 30.3975 11.9363C30.3004 11.7914 30.0952 11.719 29.9279 11.8193C29.8469 11.8639 29.5717 11.9921 29.3719 12.1592C29.2748 12.2428 29.2316 12.3654 29.2802 12.5214C29.5447 13.4353 29.4853 14.4662 29.129 15.3466C28.7998 16.149 28.1628 16.8734 27.4071 17.113C26.9105 17.2746 26.3977 17.1966 26.0792 16.7452C25.642 16.1211 25.8201 15.0345 26.4679 14.1318C27.0454 13.335 27.8767 12.8335 28.7026 12.5047C28.7998 12.4657 28.8213 12.3988 28.7944 12.3152C28.7512 12.1759 28.6756 11.9809 28.6486 11.8973C28.573 11.6856 28.3571 11.6521 28.098 11.6856C27.4935 11.758 26.9537 11.9698 26.4139 12.2707C25.005 13.0508 24.3033 14.5553 23.9902 15.3577C23.8391 15.7422 23.715 15.9874 23.5476 16.1992C23.3263 16.4889 23.0456 16.7508 22.5382 17.2077C22.4896 17.2523 22.4573 17.3359 22.495 17.4195C22.549 17.5309 22.8135 17.9154 22.8891 17.9489C22.9701 17.9934 23.0672 17.9321 23.105 17.9043C23.4613 17.6535 23.8877 17.2579 24.0982 16.9904C24.1738 16.9013 24.2439 16.9347 24.2871 17.074C24.4815 17.7928 24.9889 18.3779 25.696 18.6231C26.9861 19.0745 28.3247 18.4225 29.3341 17.2913C29.9765 16.5725 30.2086 16.11 30.4515 15.7924C30.8671 15.2574 31.693 14.065 32.67 13.3015C33.0317 13.0174 33.4527 12.8056 33.6686 12.9449C33.8414 13.0619 33.8954 13.3238 33.6201 13.8421C32.6215 15.7255 31.1532 17.9377 30.8833 18.4727C30.8348 18.5674 30.8779 18.6398 30.9697 18.6398C31.4933 18.6398 32.0115 18.6398 32.4865 18.6398C32.5675 18.6343 32.5999 18.6008 32.643 18.5395C33.4095 17.3025 34.1329 16.1211 34.9048 14.9008C34.9479 14.8284 34.9857 14.8841 34.9911 14.9175C35.0073 15.2017 35.0721 15.5862 35.2394 15.8425C35.5309 16.3106 35.9465 16.5112 36.4054 16.5168C36.7724 16.5224 36.9559 16.4611 37.35 16.3106C37.6685 16.188 37.9276 16.0264 38.1273 15.8815C38.2406 15.7979 38.2622 15.9373 38.2622 15.9595C38.0841 16.9403 38.3054 18.1105 39.25 18.5897C40.3836 19.1636 41.6251 18.3556 42.343 17.6257C42.4132 17.5532 42.4888 17.5644 42.4942 17.7148C42.5104 17.9934 42.6291 18.3278 42.8558 18.5562C43.455 19.1803 44.6695 18.9296 45.884 17.96C46.6667 17.3359 47.4818 16.4611 48.2159 15.5305C48.2429 15.497 48.2645 15.4357 48.2105 15.38C48.0972 15.2574 47.9352 15.1181 47.8219 15.0123C47.7733 14.9677 47.6977 14.9788 47.6545 15.0123C46.8988 15.7534 46.2187 16.6004 45.2363 17.3025C44.907 17.5421 44.378 17.7315 44.1405 17.4028C44.0488 17.2746 44.0596 17.0963 44.1513 16.8623C44.432 16.11 48.9716 8.97742 49.2091 8.5595Z" fill="#A7B9D0"/>
<path d="M27.8496 9.41765C27.8712 9.52352 27.909 9.54581 27.9576 9.53467C28.1897 9.48452 28.4434 9.28949 28.5891 9.06102C28.7241 8.85485 28.7888 8.55951 28.6539 8.43692C28.5351 8.33105 28.3354 8.35891 28.1897 8.49264C27.8982 8.76012 27.8118 9.13903 27.8496 9.41765ZM16.2766 18.6064C14.5816 18.6176 13.0918 17.5365 12.9191 15.6698C12.8219 14.6333 13.108 13.7083 13.6748 12.9505C14.1768 12.2707 15.0296 11.7079 15.753 11.5741C15.9905 11.5296 16.3035 11.5574 16.4331 11.719C16.6382 11.9642 16.5788 12.2372 16.3737 12.3431C15.8231 12.6329 15.1592 13.1288 14.8353 13.8086C14.5708 14.3603 14.5168 15.029 14.9217 15.6642C15.6018 16.723 17.4965 16.7508 19.2562 15.0624C19.6934 14.6501 20.0821 14.2489 20.4815 13.7808C21.2588 12.8669 21.5179 12.5326 22.5489 11.0559C22.5597 11.0392 22.5651 11.0169 22.5597 11.0058C22.5489 10.9835 22.5381 10.9835 22.5057 10.9779C21.8148 11.0002 21.2156 11.2119 20.6326 11.6577C20.4653 11.7859 20.2224 11.7692 20.1144 11.602C19.9957 11.4125 20.0821 11.1674 20.2764 11.0281C21.2156 10.3538 22.2412 10.2312 23.2884 10.0473C23.2884 10.0473 23.3586 10.0529 23.4233 9.96931C23.8552 9.40093 24.179 8.88828 24.6379 8.30876C25.1021 7.72366 25.6959 7.18872 26.1493 6.78194C26.7862 6.21914 27.1911 6.02968 27.6067 5.79564C27.7147 5.73434 27.5905 5.66748 27.5581 5.66748C25.2424 5.21612 22.835 4.6366 20.5409 5.51702C18.9485 6.12998 18.2522 7.4339 18.5868 8.30319C18.8244 8.92171 19.6124 9.02202 20.352 8.64867C20.9619 8.33662 21.5287 7.84068 21.9335 7.19987C22.1602 6.84324 22.6299 7.09956 22.3762 7.71809C21.7014 9.35078 20.4167 10.6436 18.8513 10.6993C17.5181 10.7439 16.6598 9.7297 16.6598 8.4815C16.6652 6.01853 19.321 4.39699 22.1117 4.15738C25.4745 3.87319 28.6539 4.79262 31.9898 5.21055C34.5484 5.52817 36.999 5.53931 39.5684 4.92636C39.8707 4.85949 40.0866 5.06009 40.065 5.37772C40.038 5.83465 39.6979 6.27486 38.8505 6.75408C37.8897 7.30017 36.8803 7.46177 35.8277 7.47291C33.2853 7.4952 30.9156 6.46989 28.465 5.9238C28.4704 6.03525 28.4973 6.16899 28.4056 6.23585C27.0453 7.27231 25.82 8.3199 24.9995 9.79657C24.9725 9.83 24.9833 9.86344 25.0373 9.85786C25.7498 9.81886 26.3922 9.80214 27.0615 9.74642C27.1803 9.73527 27.1803 9.70741 27.1695 9.61825C27.1101 9.11117 27.2558 8.53165 27.6877 8.13044C28.1303 7.71809 28.6863 7.67351 29.0533 7.96885C29.469 8.30319 29.4366 8.91057 29.2045 9.36193C28.9724 9.82443 28.5891 10.0696 28.2167 10.1866C28.2167 10.1866 28.1411 10.2033 28.1519 10.2758C28.1681 10.3928 28.6701 10.6826 28.7133 10.755C28.7564 10.8274 28.7349 10.9389 28.6593 11.0281C28.6053 11.0893 28.5243 11.1506 28.4164 11.1506C28.33 11.1506 28.276 11.1172 28.1681 11.0559C27.9414 10.9278 27.6607 10.7216 27.4718 10.4764C27.407 10.3928 27.3746 10.3928 27.2127 10.3984C26.4893 10.443 25.3666 10.5544 24.6055 10.6491C24.422 10.6714 24.395 10.7104 24.3572 10.7717C23.1427 12.8391 21.8472 15.068 20.4221 16.5614C18.8945 18.1718 17.626 18.5953 16.2766 18.6064Z" fill="#A7B9D0"/>
<path d="M30.9965 1.96192C15.1645 1.96192 2.33378 6.4755 2.33378 12.0032C2.33378 17.531 15.1645 22.0446 30.9965 22.0446C46.8231 22.0446 59.6538 17.531 59.6538 12.0032C59.6538 6.48107 46.8231 1.96192 30.9965 1.96192ZM30.9965 22.9584C14.5924 22.9584 1.29199 18.0548 1.29199 12.0088C1.29199 5.95728 14.5924 1.0592 30.9965 1.0592C47.4006 1.0592 60.701 5.96285 60.701 12.0088C60.701 18.0548 47.4006 22.9584 30.9965 22.9584Z" fill="#A7B9D0"/>
</svg>
